<?xml version="1.0" encoding="UTF-8" standalone="no"?>
<!-- Created with Inkscape (http://www.inkscape.org/) -->

<svg
   version="1.1"
   id="svg1"
   width="401.75998"
   height="242.83203"
   viewBox="0 0 401.75998 242.83203"
   sodipodi:docname="cm12004-Week4-b_(More on Maps).pdf"
   xmlns:inkscape="http://www.inkscape.org/namespaces/inkscape"
   xmlns:sodipodi="http://sodipodi.sourceforge.net/DTD/sodipodi-0.dtd"
   xmlns="http://www.w3.org/2000/svg"
   xmlns:svg="http://www.w3.org/2000/svg">
  <defs
     id="defs1">
    <clipPath
       clipPathUnits="userSpaceOnUse"
       id="clipPath124">
      <path
         d="M 1.4305e-5,0 H 960.00001 V 540 H 1.4305e-5 Z"
         transform="matrix(1,0,0,-1,-327.07001,307.06001)"
         clip-rule="evenodd"
         id="path124" />
    </clipPath>
    <clipPath
       clipPathUnits="userSpaceOnUse"
       id="clipPath127">
      <path
         d="M 1.4305e-5,0 H 960.00001 V 540 H 1.4305e-5 Z"
         transform="matrix(1,0,0,-1,-448.73001,307.06001)"
         clip-rule="evenodd"
         id="path127" />
    </clipPath>
    <clipPath
       clipPathUnits="userSpaceOnUse"
       id="clipPath130">
      <path
         d="M 1.4305e-5,0 H 960.00001 V 540 H 1.4305e-5 Z"
         transform="matrix(1,0,0,-1,-570.41002,306.86001)"
         clip-rule="evenodd"
         id="path130" />
    </clipPath>
    <clipPath
       clipPathUnits="userSpaceOnUse"
       id="clipPath136">
      <path
         d="M 1.4305e-5,0 H 960.00001 V 540 H 1.4305e-5 Z"
         transform="matrix(1,0,0,-1,-327.07001,232.37001)"
         clip-rule="evenodd"
         id="path136" />
    </clipPath>
    <clipPath
       clipPathUnits="userSpaceOnUse"
       id="clipPath138">
      <path
         d="M 1.4305e-5,0 H 960.00001 V 540 H 1.4305e-5 Z"
         transform="matrix(1,0,0,-1,-443.09001,232.37001)"
         clip-rule="evenodd"
         id="path138" />
    </clipPath>
    <clipPath
       clipPathUnits="userSpaceOnUse"
       id="clipPath140">
      <path
         d="M 1.4305e-5,0 H 960.00001 V 540 H 1.4305e-5 Z"
         transform="matrix(1,0,0,-1,-448.25001,232.37001)"
         clip-rule="evenodd"
         id="path140" />
    </clipPath>
    <clipPath
       clipPathUnits="userSpaceOnUse"
       id="clipPath142">
      <path
         d="M 1.4305e-5,0 H 960.00001 V 540 H 1.4305e-5 Z"
         transform="matrix(1,0,0,-1,-453.53001,232.37001)"
         clip-rule="evenodd"
         id="path142" />
    </clipPath>
    <clipPath
       clipPathUnits="userSpaceOnUse"
       id="clipPath144">
      <path
         d="M 1.4305e-5,0 H 960.00001 V 540 H 1.4305e-5 Z"
         transform="matrix(1,0,0,-1,-461.45001,232.37001)"
         clip-rule="evenodd"
         id="path144" />
    </clipPath>
    <clipPath
       clipPathUnits="userSpaceOnUse"
       id="clipPath146">
      <path
         d="M 1.4305e-5,0 H 960.00001 V 540 H 1.4305e-5 Z"
         transform="matrix(1,0,0,-1,-558.22001,232.37001)"
         clip-rule="evenodd"
         id="path146" />
    </clipPath>
    <clipPath
       clipPathUnits="userSpaceOnUse"
       id="clipPath148">
      <path
         d="M 1.4305e-5,0 H 960.00001 V 540 H 1.4305e-5 Z"
         transform="matrix(1,0,0,-1,-566.98001,232.37001)"
         clip-rule="evenodd"
         id="path148" />
    </clipPath>
    <clipPath
       clipPathUnits="userSpaceOnUse"
       id="clipPath150">
      <path
         d="M 1.4305e-5,0 H 960.00001 V 540 H 1.4305e-5 Z"
         transform="matrix(1,0,0,-1,-572.26001,232.37001)"
         clip-rule="evenodd"
         id="path150" />
    </clipPath>
    <clipPath
       clipPathUnits="userSpaceOnUse"
       id="clipPath152">
      <path
         d="M 1.4305e-5,0 H 960.00001 V 540 H 1.4305e-5 Z"
         transform="matrix(1,0,0,-1,-577.42001,232.37001)"
         clip-rule="evenodd"
         id="path152" />
    </clipPath>
    <clipPath
       clipPathUnits="userSpaceOnUse"
       id="clipPath154">
      <path
         d="M 1.4305e-5,0 H 960.00001 V 540 H 1.4305e-5 Z"
         transform="matrix(1,0,0,-1,-582.70001,232.37001)"
         clip-rule="evenodd"
         id="path154" />
    </clipPath>
    <clipPath
       clipPathUnits="userSpaceOnUse"
       id="clipPath156">
      <path
         d="M 1.4305e-5,0 H 960.00001 V 540 H 1.4305e-5 Z"
         transform="matrix(1,0,0,-1,-590.62001,232.37001)"
         clip-rule="evenodd"
         id="path156" />
    </clipPath>
    <clipPath
       clipPathUnits="userSpaceOnUse"
       id="clipPath159">
      <path
         d="M 1.4305e-5,0 H 960.00001 V 540 H 1.4305e-5 Z"
         transform="matrix(1,0,0,-1,-386.95001,249.77001)"
         clip-rule="evenodd"
         id="path159" />
    </clipPath>
    <clipPath
       clipPathUnits="userSpaceOnUse"
       id="clipPath162">
      <path
         d="M 1.4305e-5,0 H 960.00001 V 540 H 1.4305e-5 Z"
         transform="matrix(1,0,0,-1,-512.54002,249.77001)"
         clip-rule="evenodd"
         id="path162" />
    </clipPath>
    <clipPath
       clipPathUnits="userSpaceOnUse"
       id="clipPath165">
      <path
         d="M 1.4305e-5,0 H 960.00001 V 540 H 1.4305e-5 Z"
         transform="matrix(1,0,0,-1,-437.98001,140.09001)"
         clip-rule="evenodd"
         id="path165" />
    </clipPath>
    <clipPath
       clipPathUnits="userSpaceOnUse"
       id="clipPath167">
      <path
         d="M 1.4305e-5,0 H 960.00001 V 540 H 1.4305e-5 Z"
         transform="matrix(1,0,0,-1,-450.34001,140.09001)"
         clip-rule="evenodd"
         id="path167" />
    </clipPath>
    <clipPath
       clipPathUnits="userSpaceOnUse"
       id="clipPath169">
      <path
         d="M 1.4305e-5,0 H 960.00001 V 540 H 1.4305e-5 Z"
         transform="matrix(1,0,0,-1,-462.46001,140.09001)"
         clip-rule="evenodd"
         id="path169" />
    </clipPath>
  </defs>
  <sodipodi:namedview
     id="namedview1"
     pagecolor="#ffffff"
     bordercolor="#000000"
     borderopacity="0.25"
     inkscape:showpageshadow="2"
     inkscape:pageopacity="0.0"
     inkscape:pagecheckerboard="0"
     inkscape:deskcolor="#d1d1d1">
    <inkscape:page
       x="0"
       y="0"
       width="401.75998"
       height="242.83203"
       id="page2"
       margin="0"
       bleed="0" />
  </sodipodi:namedview>
  <g
     id="g1"
     inkscape:groupmode="layer"
     inkscape:label="12"
     transform="translate(-403.86667,-294.80469)">
    <g
       id="g121"
       inkscape:export-filename="g121.svg"
       inkscape:export-xdpi="96"
       inkscape:export-ydpi="96">
      <path
         id="path122"
         d="m 303.65,234.78 c 0,35.25 11.76,63.83 26.26,63.83 14.5,0 26.26,-28.58 26.26,-63.83 0,-35.25 -11.76,-63.82 -26.26,-63.82 -14.5,0 -26.26,28.57 -26.26,63.82 z"
         style="fill:#d9f2d0;fill-opacity:1;fill-rule:evenodd;stroke:#000000;stroke-width:1.5;stroke-linecap:butt;stroke-linejoin:miter;stroke-miterlimit:10;stroke-dasharray:none;stroke-opacity:1"
         transform="matrix(1.3333333,0,0,-1.3333333,0,720)" />
    </g>
    <g
       id="g122">
      <path
         id="path123"
         d="M -0.83171875,-5.46875e-4 6.1175,-11.836484 H 7.7815625 L 9.6448438,-5.46875e-4 h -1.59375 L 7.6526563,-3.3169531 H 2.7307813 L 0.85578125,-5.46875e-4 Z M 3.445625,-4.6411719 h 4.03125 L 6.6565625,-10.254453 Z m 0,0"
         style="fill:#000000;fill-opacity:1;fill-rule:nonzero;stroke:none"
         aria-label="A"
         transform="matrix(1.3333333,0,0,1.3333333,436.09333,310.58667)"
         clip-path="url(#clipPath124)" />
    </g>
    <g
       id="g124">
      <path
         id="path125"
         d="m 427.3,234.78 c 0,35.25 11.76,63.83 26.26,63.83 14.5,0 26.26,-28.58 26.26,-63.83 0,-35.25 -11.76,-63.82 -26.26,-63.82 -14.5,0 -26.26,28.57 -26.26,63.82 z"
         style="fill:#c1e5f5;fill-opacity:1;fill-rule:evenodd;stroke:#000000;stroke-width:1.5;stroke-linecap:butt;stroke-linejoin:miter;stroke-miterlimit:10;stroke-dasharray:none;stroke-opacity:1"
         transform="matrix(1.3333333,0,0,-1.3333333,0,720)" />
    </g>
    <g
       id="g125">
      <path
         id="path126"
         d="M 0.65769531,-5.46875e-4 3.1537891,-11.836484 h 3.65625 c 0.8203125,0 1.5029297,0.140625 2.0507812,0.421875 0.553711,0.28125 0.9492188,0.679687 1.1835937,1.195312 0.234375,0.5156251 0.272461,1.1191407 0.117188,1.8046876 -0.117188,0.5332031 -0.3955082,0.9931641 -0.8320317,1.3828125 -0.4394531,0.3837891 -0.9580078,0.6328125 -1.5585937,0.75 0.46875,0.1259766 0.8789062,0.3339844 1.2304687,0.6210938 0.3515625,0.290039 0.600586,0.65625 0.75,1.1015625 0.1552735,0.4453125 0.1699219,0.9726562 0.046875,1.5820312 -0.1259765,0.6035156 -0.3925781,1.125 -0.796875,1.5703125 -0.4072265,0.44531252 -0.9550781,0.79394534 -1.640625,1.04296877 -0.6796875,0.24316407 -1.508789,0.363281255 -2.484375,0.363281255 z M 2.4858203,-1.3247656 h 2.5664063 c 0.84375,0 1.546875,-0.1552735 2.109375,-0.46875 0.5683593,-0.3105469 0.9257812,-0.788086 1.0664062,-1.4296875 0.1552735,-0.7558594 0.017578,-1.3271485 -0.4101562,-1.7109375 -0.421875,-0.3896485 -1.0488282,-0.5859375 -1.875,-0.5859375 H 3.3764453 Z m 1.1835938,-5.484375 h 2.2148437 c 0.796875,0 1.4238281,-0.1523438 1.8867188,-0.4570313 0.4599609,-0.3105469 0.75,-0.7412109 0.8671875,-1.2890625 0.1230468,-0.6152344 0.011719,-1.1015625 -0.3398438,-1.4531246 -0.3515625,-0.351563 -0.9228515,-0.527344 -1.7109375,-0.527344 H 4.4545703 Z m 0,0"
         style="fill:#000000;fill-opacity:1;fill-rule:nonzero;stroke:none"
         aria-label="B"
         transform="matrix(1.3333333,0,0,1.3333333,598.30667,310.58667)"
         clip-path="url(#clipPath127)" />
    </g>
    <g
       id="g127">
      <path
         id="path128"
         d="m 550.95,234.78 c 0,35.25 11.76,63.83 26.26,63.83 14.51,0 26.26,-28.58 26.26,-63.83 0,-35.25 -11.75,-63.82 -26.26,-63.82 -14.5,0 -26.26,28.57 -26.26,63.82 z"
         style="fill:#fbe3d6;fill-opacity:1;fill-rule:evenodd;stroke:#000000;stroke-width:1.5;stroke-linecap:butt;stroke-linejoin:miter;stroke-miterlimit:10;stroke-dasharray:none;stroke-opacity:1"
         transform="matrix(1.3333333,0,0,-1.3333333,0,720)" />
    </g>
    <g
       id="g128">
      <path
         id="path129"
         d="m 6.1173438,0.16273437 c -1.2041016,0 -2.2001954,-0.26953125 -2.9882813,-0.80859375 C 2.3468359,-1.1907813 1.7989844,-1.9495703 1.4884375,-2.9192969 1.1749609,-3.8860938 1.1251563,-5.0169531 1.3360938,-6.3060156 c 0.1875,-1.1074219 0.5507812,-2.0888672 1.0898437,-2.9414063 0.5449219,-0.8583981 1.2597656,-1.5292971 2.1445313,-2.0156251 0.8818359,-0.483398 1.921875,-0.726562 3.1171875,-0.726562 0.8496093,0 1.6113281,0.149414 2.2851562,0.445312 0.6796875,0.298828 1.2128905,0.735352 1.6054685,1.3125 0.398438,0.5712892 0.597657,1.2832032 0.597657,2.1328126 h -1.59375 c 0,-0.5683594 -0.134766,-1.0429687 -0.398438,-1.4179687 -0.2578125,-0.375 -0.6181641,-0.6591799 -1.078125,-0.8554689 -0.4541016,-0.193359 -0.9697266,-0.292969 -1.546875,-0.292969 -0.9140625,0 -1.6962891,0.210938 -2.34375,0.632813 -0.6416016,0.4160155 -1.1542969,0.9697264 -1.5351562,1.6640624 -0.375,0.6884765 -0.6298829,1.4589843 -0.7617188,2.3085937 -0.1494141,0.9462891 -0.1376953,1.7900391 0.035156,2.53125 0.1699218,0.7353516 0.5214843,1.3125 1.0546875,1.734375 0.5390625,0.421875 1.2773437,0.6328125 2.2148437,0.6328125 0.9667969,0 1.7724609,-0.2255859 2.4140625,-0.6796875 0.6386719,-0.4599609 1.0898438,-1.1777344 1.3476563,-2.15625 h 1.582032 C 11.229648,-2.5677344 10.596836,-1.5159766 9.668125,-0.84507813 8.7452734,-0.17125 7.5616797,0.16273437 6.1173438,0.16273437 Z m 0,0"
         style="fill:#000000;fill-opacity:1;fill-rule:nonzero;stroke:none"
         aria-label="C"
         transform="matrix(1.3333333,0,0,1.3333333,760.54667,310.85333)"
         clip-path="url(#clipPath130)" />
    </g>
    <g
       id="g134">
      <path
         id="path135"
         d="M -0.83171875,-0.00109375 3.3870313,-4.7354687 3.9495313,-5.1339062 6.9026563,-8.5675 h 1.59375 L 4.5823438,-4.1495312 4.0901563,-3.78625 0.76203125,-0.00109375 Z m 6.38671875,0 L 3.7620313,-3.739375 3.3870313,-4.2432812 1.2659375,-8.5675 h 1.4414063 l 1.59375,3.4335938 0.3984375,0.5273437 2.2851562,4.60546875 z m 0,0"
         style="fill:#000000;fill-opacity:1;fill-rule:nonzero;stroke:none"
         aria-label="x"
         transform="matrix(1.3333333,0,0,1.3333333,436.09333,410.17333)"
         clip-path="url(#clipPath136)" />
    </g>
    <g
       id="g136">
      <path
         id="path137"
         d="M 0.64339844,-0.00109375 2.2137109,-7.3721875 H 0.79574219 L 1.0418359,-8.5675 h 1.4179688 l 0.09375,-0.4921875 c 0.099609,-0.4746094 0.2167969,-0.8847656 0.3515625,-1.2304685 0.140625,-0.351563 0.3193359,-0.638672 0.5390625,-0.867188 0.2167969,-0.225586 0.5039062,-0.392578 0.8554687,-0.503906 0.3574219,-0.117187 0.8085938,-0.175781 1.3476563,-0.175781 h 0.9726562 l -0.2578125,1.160156 h -0.796875 c -0.515625,0 -0.8789062,0.146484 -1.0898437,0.433594 -0.2050781,0.2900388 -0.3603516,0.7001951 -0.46875,1.2304685 L 3.9129297,-8.5675 H 5.9051172 L 5.6590234,-7.3721875 H 3.6785547 l -1.5585938,7.37109375 z m 0,0"
         style="fill:#000000;fill-opacity:1;fill-rule:nonzero;stroke:none"
         aria-label="f"
         transform="matrix(1.3333333,0,0,1.3333333,590.78667,410.17333)"
         clip-path="url(#clipPath138)" />
    </g>
    <g
       id="g138">
      <path
         id="path139"
         d="M 3.4228516,3.1395313 C 2.9453125,2.3192188 2.5380859,1.5223438 2.2041016,0.74890625 1.8671875,-0.02453125 1.609375,-0.82140625 1.4306641,-1.6417187 1.2490234,-2.4620312 1.1611328,-3.3467969 1.1611328,-4.301875 c 0,-0.9375 0.084961,-1.8339844 0.2578125,-2.6953125 0.1787109,-0.8583984 0.4365234,-1.6933594 0.7734375,-2.5078125 0.3339844,-0.811523 0.7441406,-1.611328 1.2304688,-2.402344 h 1.2070312 c -0.6972656,1.189453 -1.2128906,2.4550784 -1.546875,3.7968753 -0.328125,1.3359375 -0.4921875,2.7011718 -0.4921875,4.0898437 0,1.2421875 0.1875,2.484375 0.5625,3.7265625 0.375,1.2421875 0.8671875,2.3847656 1.4765625,3.4335938 z m 0,0"
         style="fill:#000000;fill-opacity:1;fill-rule:nonzero;stroke:none"
         aria-label="("
         transform="matrix(1.3333333,0,0,1.3333333,597.66667,410.17333)"
         clip-path="url(#clipPath140)" />
      <path
         id="path141"
         d="M -0.83175781,-0.00109375 3.3869922,-4.7354687 3.9494922,-5.1339062 6.9026172,-8.5675 h 1.59375 L 4.5823047,-4.1495312 4.0901172,-3.78625 0.76199219,-0.00109375 Z m 6.38671871,0 L 3.7619922,-3.739375 3.3869922,-4.2432812 1.2658984,-8.5675 h 1.4414063 l 1.59375,3.4335938 0.3984375,0.5273437 2.2851562,4.60546875 z m 0,0"
         style="fill:#000000;fill-opacity:1;fill-rule:nonzero;stroke:none"
         aria-label="x"
         transform="matrix(1.3333333,0,0,1.3333333,604.70667,410.17333)"
         clip-path="url(#clipPath142)" />
      <path
         id="path143"
         d="M 0.65546875,3.1395313 C 1.3498047,1.9500781 1.8625,0.6903125 2.190625,-0.645625 c 0.3339844,-1.3417969 0.5039063,-2.71875 0.5039063,-4.125 0,-1.2421875 -0.1933594,-2.4785156 -0.5742188,-3.7148437 -0.375,-1.2333985 -0.8642578,-2.3730473 -1.46484375,-3.4218753 H 1.8507813 c 0.4746093,0.814453 0.8818359,1.605469 1.21875,2.3789065 0.3427734,0.7675781 0.6035156,1.5585938 0.7851562,2.3789063 0.1787109,0.8203125 0.2695313,1.7080078 0.2695313,2.6601562 0,0.9375 -0.09082,1.8398438 -0.2695313,2.7070313 C 3.6730469,-0.92101562 3.4152344,-0.08605469 3.08125,0.72546875 2.7443359,1.5457813 2.3341797,2.3485156 1.8507813,3.1395313 Z m 0,0"
         style="fill:#000000;fill-opacity:1;fill-rule:nonzero;stroke:none"
         aria-label=")"
         transform="matrix(1.3333333,0,0,1.3333333,615.26667,410.17333)"
         clip-path="url(#clipPath144)" />
    </g>
    <g
       id="g144">
      <path
         id="path145"
         d="M 3.0114453,3.3153125 C 2.1120312,3.3153125 1.4001172,3.198125 0.87863281,2.96375 0.36300781,2.729375 0.00558594,2.4246875 -0.18777344,2.0496875 c -0.19335937,-0.3691406 -0.2578125,-0.7558594 -0.1875,-1.16015625 0.09375,-0.50976562 0.39257813,-0.93164062 0.90234375,-1.27734375 0.50683589,-0.3515625 1.19531249,-0.60058594 2.06249999,-0.75 l 0.2226563,-0.4804687 h 1.21875 c 1.40625,0 2.3789062,0.2167968 2.9179687,0.6445312 0.5390625,0.421875 0.7382813,1.04589844 0.5976563,1.875 C 7.420625,1.5809375 6.9753125,2.1492969 6.2106641,2.6121875 5.4430859,3.0809375 4.3766797,3.3153125 3.0114453,3.3153125 Z M 3.1403516,2.2489063 c 0.9609375,0 1.6757812,-0.1376954 2.1445312,-0.4101563 C 5.7594922,1.5633594 6.0378125,1.229375 6.1169141,0.8309375 6.1637891,0.573125 6.1315625,0.35046875 6.0231641,0.16296875 5.920625,-0.02453125 5.6891797,-0.16808594 5.3317578,-0.270625 4.9801953,-0.37023437 4.4557812,-0.42296875 3.7614453,-0.42296875 H 2.4723828 C 2.0563672,-0.32042969 1.7223828,-0.1534375 1.4645703,0.0809375 1.2067578,0.32117188 1.0544141,0.58484375 1.0075391,0.86609375 0.93722656,1.2469531 1.0602734,1.5721484 1.3825391,1.83875 1.701875,2.1112109 2.2878125,2.2489063 3.1403516,2.2489063 Z M 2.4723828,-0.51671875 C 1.9626172,-0.56945312 1.56125,-0.68371094 1.2653516,-0.8565625 0.9753125,-1.0352734 0.77609375,-1.2374219 0.66769531,-1.4659375 0.55636719,-1.6915234 0.51828125,-1.91125 0.55050781,-2.1221875 c 0.046875,-0.2871094 0.2109375,-0.5449219 0.49218749,-0.7734375 0.28125,-0.2255859 0.6738281,-0.4160156 1.1835938,-0.5742187 l 0.7148437,0.4570312 C 2.6042187,-2.9425 2.3346875,-2.8399609 2.1325391,-2.708125 1.93625,-2.5733594 1.8190625,-2.426875 1.7809766,-2.2628125 c -0.023437,0.1113281 0.00586,0.2167969 0.09375,0.3164063 0.084961,0.09375 0.2460937,0.1728515 0.4804687,0.234375 0.234375,0.064453 0.5625,0.09375 0.984375,0.09375 z M 4.1012891,-2.7667187 c -0.7265625,0 -1.3242188,-0.1435547 -1.7929688,-0.4335938 -0.4628906,-0.2871094 -0.7851562,-0.6679687 -0.9726562,-1.1367187 -0.1875,-0.4746094 -0.2285157,-0.9990235 -0.1171875,-1.5703125 0.084961,-0.4833985 0.28125,-0.928711 0.5859375,-1.3359375 0.3046875,-0.413086 0.7148437,-0.75 1.2304687,-1.0078125 0.515625,-0.2578125 1.1308594,-0.3867188 1.8515625,-0.3867188 1.1015625,0 1.8925781,0.3017578 2.3789063,0.9023438 0.4921875,0.5947265 0.65625,1.3330078 0.4921875,2.2148437 -0.079102,0.4775391 -0.2695313,0.9257813 -0.5742188,1.3476563 -0.2988281,0.4160156 -0.703125,0.7558593 -1.21875,1.0195312 -0.515625,0.2578125 -1.1367187,0.3867188 -1.8632812,0.3867188 z m 0.070312,-1.0078125 c 0.5625,0 1.0458984,-0.1552735 1.453125,-0.46875 C 6.0290234,-4.5538281 6.2839062,-5.0108594 6.3864453,-5.614375 6.5094922,-6.3175 6.4216016,-6.8272656 6.1169141,-7.1495312 5.8122266,-7.4776562 5.3844922,-7.6417187 4.8395703,-7.6417187 c -0.5800781,0 -1.0722656,0.1640625 -1.4765625,0.4921875 -0.3984375,0.3222656 -0.65625,0.7734375 -0.7734375,1.359375 -0.079102,0.4628906 -0.052734,0.8408203 0.082031,1.1367187 0.1318359,0.2988281 0.3339843,0.5214844 0.609375,0.6679688 0.2724609,0.140625 0.5683593,0.2109375 0.8906248,0.2109375 z M 7.0895703,-7.63 6.5622266,-8.2510937 c 0.2167968,-0.375 0.4570312,-0.6621094 0.7148437,-0.8671875 0.2578125,-0.2109375 0.5537109,-0.3574219 0.890625,-0.4453125 C 8.5016797,-9.6485547 8.9089062,-9.6925 9.3864453,-9.6925 l -0.2226562,1.2304688 c -0.4921875,0 -0.8964844,0.058594 -1.2070313,0.1757812 C 7.6432812,-8.1749219 7.3532422,-7.958125 7.0895703,-7.63 Z m 0,0"
         style="fill:#000000;fill-opacity:1;fill-rule:nonzero;stroke:none"
         aria-label="g"
         transform="matrix(1.3333333,0,0,1.3333333,744.29333,410.17333)"
         clip-path="url(#clipPath146)" />
      <path
         id="path147"
         d="M 3.4213672,3.1395313 C 2.9438281,2.3192188 2.5366016,1.5223438 2.2026172,0.74890625 1.8657031,-0.02453125 1.6078906,-0.82140625 1.4291797,-1.6417187 1.2475391,-2.4620312 1.1596484,-3.3467969 1.1596484,-4.301875 c 0,-0.9375 0.084961,-1.8339844 0.2578125,-2.6953125 0.178711,-0.8583984 0.4365235,-1.6933594 0.7734375,-2.5078125 0.3339844,-0.811523 0.7441407,-1.611328 1.2304688,-2.402344 h 1.2070312 c -0.6972656,1.189453 -1.2128906,2.4550784 -1.546875,3.7968753 -0.328125,1.3359375 -0.4921875,2.7011718 -0.4921875,4.0898437 0,1.2421875 0.1875,2.484375 0.5625,3.7265625 0.375,1.2421875 0.8671875,2.3847656 1.4765625,3.4335938 z m 0,0"
         style="fill:#000000;fill-opacity:1;fill-rule:nonzero;stroke:none"
         aria-label="("
         transform="matrix(1.3333333,0,0,1.3333333,755.97333,410.17333)"
         clip-path="url(#clipPath148)" />
      <path
         id="path149"
         d="M 0.64332031,-0.00109375 2.2136328,-7.3721875 H 0.79566406 L 1.0417578,-8.5675 h 1.4179688 l 0.09375,-0.4921875 c 0.099609,-0.4746094 0.2167968,-0.8847656 0.3515625,-1.2304685 0.140625,-0.351563 0.3193359,-0.638672 0.5390625,-0.867188 0.2167968,-0.225586 0.5039062,-0.392578 0.8554687,-0.503906 0.3574219,-0.117187 0.8085938,-0.175781 1.3476563,-0.175781 h 0.9726562 l -0.2578125,1.160156 h -0.796875 c -0.515625,0 -0.8789062,0.146484 -1.0898437,0.433594 C 4.2702734,-9.9532422 4.115,-9.5430859 4.0066016,-9.0128125 L 3.9128516,-8.5675 H 5.9050391 L 5.6589453,-7.3721875 H 3.6784766 l -1.5585938,7.37109375 z m 0,0"
         style="fill:#000000;fill-opacity:1;fill-rule:nonzero;stroke:none"
         aria-label="f"
         transform="matrix(1.3333333,0,0,1.3333333,763.01333,410.17333)"
         clip-path="url(#clipPath150)" />
      <path
         id="path151"
         d="M 3.4227734,3.1395313 C 2.9452344,2.3192188 2.5380078,1.5223438 2.2040234,0.74890625 1.8671094,-0.02453125 1.6092969,-0.82140625 1.4305859,-1.6417187 1.2489453,-2.4620312 1.1610547,-3.3467969 1.1610547,-4.301875 c 0,-0.9375 0.084961,-1.8339844 0.2578125,-2.6953125 0.1787109,-0.8583984 0.4365234,-1.6933594 0.7734375,-2.5078125 0.3339844,-0.811523 0.7441406,-1.611328 1.2304687,-2.402344 h 1.2070313 c -0.6972656,1.189453 -1.2128906,2.4550784 -1.546875,3.7968753 -0.328125,1.3359375 -0.4921875,2.7011718 -0.4921875,4.0898437 0,1.2421875 0.1875,2.484375 0.5625,3.7265625 0.375,1.2421875 0.8671875,2.3847656 1.4765625,3.4335938 z m 0,0"
         style="fill:#000000;fill-opacity:1;fill-rule:nonzero;stroke:none"
         aria-label="("
         transform="matrix(1.3333333,0,0,1.3333333,769.89333,410.17333)"
         clip-path="url(#clipPath152)" />
      <path
         id="path153"
         d="M -0.83183594,-0.00109375 3.3869141,-4.7354687 3.9494141,-5.1339062 6.9025391,-8.5675 h 1.59375 L 4.5822266,-4.1495312 4.0900391,-3.78625 0.76191406,-0.00109375 Z m 6.38671874,0 L 3.7619141,-3.739375 3.3869141,-4.2432812 1.2658203,-8.5675 h 1.4414063 l 1.59375,3.4335938 0.3984375,0.5273437 2.2851562,4.60546875 z m 0,0"
         style="fill:#000000;fill-opacity:1;fill-rule:nonzero;stroke:none"
         aria-label="x"
         transform="matrix(1.3333333,0,0,1.3333333,776.93333,410.17333)"
         clip-path="url(#clipPath154)" />
      <path
         id="path155"
         d="M 0.65539062,3.1395313 C 1.3497266,1.9500781 1.8624219,0.6903125 2.1905469,-0.645625 c 0.3339843,-1.3417969 0.5039062,-2.71875 0.5039062,-4.125 0,-1.2421875 -0.1933594,-2.4785156 -0.5742187,-3.7148437 -0.375,-1.2333985 -0.8642578,-2.3730473 -1.46484378,-3.4218753 H 1.8507031 c 0.4746094,0.814453 0.881836,1.605469 1.21875,2.3789065 0.3427735,0.7675781 0.6035156,1.5585938 0.7851563,2.3789063 0.1787109,0.8203125 0.2695312,1.7080078 0.2695312,2.6601562 0,0.9375 -0.09082,1.8398438 -0.2695312,2.7070313 C 3.6729687,-0.92101562 3.4151562,-0.08605469 3.0811719,0.72546875 2.7442578,1.5457813 2.3341016,2.3485156 1.8507031,3.1395313 Z m 5.28222658,0 C 6.6319531,1.9500781 7.1446484,0.6903125 7.4727734,-0.645625 c 0.3339844,-1.3417969 0.5039063,-2.71875 0.5039063,-4.125 0,-1.2421875 -0.1933594,-2.4785156 -0.5742188,-3.7148437 -0.375,-1.2333985 -0.8642578,-2.3730473 -1.4648437,-3.4218753 h 1.1953125 c 0.4746094,0.814453 0.8818359,1.605469 1.21875,2.3789065 0.3427734,0.7675781 0.6035156,1.5585938 0.7851562,2.3789063 0.178711,0.8203125 0.2695313,1.7080078 0.2695313,2.6601562 0,0.9375 -0.09082,1.8398438 -0.2695313,2.7070313 C 8.9551953,-0.92101562 8.6973828,-0.08605469 8.3633984,0.72546875 8.0264844,1.5457813 7.6163281,2.3485156 7.1329297,3.1395313 Z m 0,0"
         style="fill:#000000;fill-opacity:1;fill-rule:nonzero;stroke:none"
         aria-label="))"
         transform="matrix(1.3333333,0,0,1.3333333,787.49333,410.17333)"
         clip-path="url(#clipPath156)" />
    </g>
    <g
       id="g156">
      <path
         id="path157"
         d="m 365.56,238.82 h 47.52 v -1.5 h -47.52 z m 46.52,2.25 6,-3 -6,-3 z"
         style="fill:#000000;fill-opacity:1;fill-rule:nonzero;stroke:none"
         transform="matrix(1.3333333,0,0,-1.3333333,0,720)" />
    </g>
    <g
       id="g157">
      <path
         id="path158"
         d="M 0.64472656,-5.078125e-4 2.2150391,-7.3716016 H 0.79707031 L 1.0431641,-8.5669141 h 1.4179687 l 0.09375,-0.4921875 c 0.099609,-0.4746093 0.2167969,-0.8847656 0.3515625,-1.2304684 0.140625,-0.351563 0.319336,-0.638672 0.5390625,-0.867188 0.2167969,-0.225586 0.5039063,-0.392578 0.8554688,-0.503906 0.3574218,-0.117188 0.8085937,-0.175781 1.3476562,-0.175781 h 0.9726563 l -0.2578125,1.160156 h -0.796875 c -0.515625,0 -0.8789063,0.146484 -1.0898438,0.433594 -0.2050781,0.2900387 -0.3603515,0.700195 -0.46875,1.2304684 l -0.09375,0.4453125 H 5.9064453 L 5.6603516,-7.3716016 H 3.6798828 L 2.1212891,-5.078125e-4 Z m 0,0"
         style="fill:#000000;fill-opacity:1;fill-rule:nonzero;stroke:none"
         aria-label="f"
         transform="matrix(1.3333333,0,0,1.3333333,515.93333,386.97333)"
         clip-path="url(#clipPath159)" />
    </g>
    <g
       id="g159">
      <path
         id="path160"
         d="m 489.96,238.63 h 47.52 v -1.5 h -47.52 z m 46.52,2.25 6,-3 -6,-3 z"
         style="fill:#000000;fill-opacity:1;fill-rule:nonzero;stroke:none"
         transform="matrix(1.3333333,0,0,-1.3333333,0,720)" />
    </g>
    <g
       id="g160">
      <path
         id="path161"
         d="m 3.0117578,3.3158984 c -0.899414,0 -1.6113281,-0.1171875 -2.13281249,-0.3515625 -0.515625,-0.234375 -0.87304687,-0.5390625 -1.06640625,-0.9140625 -0.19335937,-0.3691406 -0.2578125,-0.7558593 -0.1875,-1.16015621 0.09375,-0.50976563 0.39257813,-0.93164063 0.90234375,-1.27734375 C 1.0342188,-0.73878906 1.7226953,-0.9878125 2.5898828,-1.1372266 l 0.2226563,-0.4804687 h 1.21875 c 1.40625,0 2.3789062,0.2167969 2.9179687,0.64453124 0.5390625,0.421875 0.7382813,1.04589843 0.5976563,1.875 C 7.4209375,1.5815234 6.975625,2.1498828 6.2109766,2.6127734 5.4433984,3.0815234 4.3769922,3.3158984 3.0117578,3.3158984 Z M 3.1406641,2.2494922 c 0.9609375,0 1.6757812,-0.1376953 2.1445312,-0.4101563 C 5.7598047,1.5639453 6.038125,1.2299609 6.1172266,0.83152344 6.1641016,0.57371094 6.131875,0.35105469 6.0234766,0.16355469 5.9209375,-0.02394531 5.6894922,-0.1675 5.3320703,-0.27003906 4.9805078,-0.36964844 4.4560938,-0.42238281 3.7617578,-0.42238281 H 2.4726953 c -0.4160156,0.10253906 -0.75,0.26953125 -1.0078125,0.50390625 C 1.2070703,0.32175781 1.0547266,0.58542969 1.0078516,0.86667969 0.9375391,1.2475391 1.0605856,1.5727344 1.3828516,1.8393359 1.7021875,2.1117969 2.288125,2.2494922 3.1406641,2.2494922 Z M 2.4726953,-0.51613281 C 1.9629297,-0.56886719 1.5615625,-0.683125 1.2656641,-0.85597656 0.975625,-1.0346875 0.77640625,-1.2368359 0.66800781,-1.4653516 c -0.11132812,-0.2255859 -0.14941406,-0.4453125 -0.1171875,-0.65625 0.046875,-0.2871093 0.2109375,-0.5449218 0.49218749,-0.7734375 0.28125,-0.2255859 0.6738281,-0.4160156 1.1835938,-0.5742187 l 0.7148437,0.4570312 C 2.6045313,-2.9419141 2.335,-2.839375 2.1328516,-2.7075391 c -0.1962891,0.1347657 -0.3134766,0.28125 -0.3515625,0.4453125 -0.023437,0.1113282 0.00586,0.2167969 0.09375,0.3164063 0.084961,0.09375 0.2460937,0.1728515 0.4804687,0.234375 0.234375,0.064453 0.5625,0.09375 0.984375,0.09375 z M 4.1016016,-2.7661328 c -0.7265625,0 -1.3242188,-0.1435547 -1.7929688,-0.4335938 -0.4628906,-0.2871093 -0.7851562,-0.6679687 -0.9726562,-1.1367187 -0.1875,-0.4746094 -0.2285157,-0.9990235 -0.1171875,-1.5703125 0.084961,-0.4833985 0.28125,-0.928711 0.5859375,-1.3359375 0.3046875,-0.413086 0.7148437,-0.75 1.2304687,-1.0078125 0.515625,-0.2578125 1.1308594,-0.3867188 1.8515625,-0.3867188 1.1015625,0 1.8925781,0.3017578 2.3789063,0.9023438 0.4921875,0.5947265 0.65625,1.3330078 0.4921875,2.2148437 -0.079102,0.4775391 -0.2695313,0.9257813 -0.5742188,1.3476563 -0.2988281,0.4160156 -0.703125,0.7558594 -1.21875,1.0195312 -0.515625,0.2578125 -1.1367187,0.3867188 -1.8632812,0.3867188 z m 0.070312,-1.0078125 c 0.5625,0 1.0458984,-0.1552735 1.453125,-0.46875 0.4042968,-0.3105469 0.6591797,-0.7675781 0.7617187,-1.3710938 0.1230469,-0.703125 0.035156,-1.2128906 -0.2695312,-1.5351562 -0.3046875,-0.328125 -0.7324219,-0.4921875 -1.2773438,-0.4921875 -0.5800781,0 -1.0722656,0.1640625 -1.4765625,0.4921875 -0.3984375,0.3222656 -0.65625,0.7734375 -0.7734375,1.359375 -0.079101,0.4628906 -0.052734,0.8408203 0.082031,1.1367187 0.1318359,0.2988282 0.3339843,0.5214844 0.609375,0.6679688 0.2724609,0.140625 0.5683593,0.2109375 0.8906253,0.2109375 z M 7.0898828,-7.6294141 6.5625391,-8.2505078 c 0.2167968,-0.375 0.4570312,-0.6621094 0.7148437,-0.8671875 0.2578125,-0.2109375 0.553711,-0.3574219 0.890625,-0.4453125 0.3339844,-0.084961 0.741211,-0.1289063 1.21875,-0.1289063 l -0.2226562,1.2304688 c -0.4921875,0 -0.8964844,0.058594 -1.2070313,0.1757812 -0.3134765,0.1113282 -0.6035156,0.328125 -0.8671875,0.65625 z m 0,0"
         style="fill:#000000;fill-opacity:1;fill-rule:nonzero;stroke:none"
         aria-label="g"
         transform="matrix(1.3333333,0,0,1.3333333,683.38667,386.97333)"
         clip-path="url(#clipPath162)" />
    </g>
    <g
       id="g162">
      <path
         id="path163"
         d="m 356.44,181.47 12.66,-4.45 h -0.01 l 6.33,-2.18 -0.01,0.01 6.32,-2.13 v 0 l 6.3,-2.06 v 0.01 l 6.3,-1.98 -0.01,0.01 6.28,-1.87 h -0.01 l 6.27,-1.75 -0.02,0.01 6.26,-1.61 -0.02,0.01 6.24,-1.46 -0.02,0.01 3.11,-0.66 h -0.01 l 3.1,-0.62 -0.01,0.01 3.1,-0.57 h -0.01 l 3.09,-0.53 h -0.02 l 3.09,-0.46 h -0.01 l 3.08,-0.41 h -0.02 l 3.07,-0.36 h -0.01 l 3.06,-0.29 h -0.01 l 3.05,-0.24 h -0.01 l 3.05,-0.17 h -0.01 l 3.03,-0.11 H 453 l 3.03,-0.05 h -0.02 l 3.02,0.03 -0.01,-0.01 3.01,0.09 h -0.02 l 3.01,0.16 H 465 l 3,0.23 -0.01,-0.01 2.99,0.28 h -0.02 l 2.99,0.34 h -0.02 l 2.98,0.39 -0.01,-0.01 2.97,0.45 h -0.02 l 2.96,0.5 h -0.01 l 2.96,0.55 h -0.01 l 2.95,0.6 h -0.01 l 2.94,0.64 h -0.01 l 5.88,1.41 -0.02,-0.01 5.85,1.57 -0.02,-0.01 5.84,1.71 h -0.01 l 5.82,1.83 h -0.01 l 5.81,1.93 h -0.01 l 5.8,2.02 -0.01,-0.01 5.79,2.1 -0.01,-0.01 5.79,2.14 v 0 l 6.88,2.6 0.53,-1.41 -6.89,-2.6 -5.79,-2.13 -5.8,-2.1 -5.8,-2.02 -5.83,-1.94 -5.83,-1.83 -5.86,-1.72 -5.87,-1.57 -5.89,-1.41 -2.96,-0.65 -2.96,-0.6 -2.97,-0.55 -2.97,-0.51 -2.99,-0.45 -2.99,-0.39 -3,-0.34 -3,-0.28 -3.01,-0.23 -3.03,-0.15 -3.03,-0.09 -3.04,-0.03 -3.04,0.05 -3.06,0.11 -3.07,0.17 -3.06,0.25 -3.08,0.29 -3.09,0.36 -3.08,0.41 -3.11,0.47 -3.1,0.53 -3.11,0.57 -3.11,0.62 -3.12,0.66 -6.25,1.46 -6.27,1.61 -6.28,1.75 -6.3,1.87 -6.31,1.98 -6.31,2.05 -6.33,2.14 -6.33,2.17 -12.66,4.45 z m 186.82,-0.64 6.67,-0.69 -4.55,-4.92 z"
         style="fill:#042433;fill-opacity:1;fill-rule:nonzero;stroke:none"
         transform="matrix(1.3333333,0,0,-1.3333333,0,720)" />
    </g>
    <g
       id="g163">
      <path
         id="path164"
         d="m 3.0112109,3.3175391 c -0.899414,0 -1.6113281,-0.1171875 -2.13281246,-0.3515625 -0.515625,-0.234375 -0.87304688,-0.5390625 -1.06640625,-0.9140625 -0.19335938,-0.3691407 -0.2578125,-0.7558594 -0.1875,-1.16015629 0.09375,-0.50976562 0.39257812,-0.93164062 0.90234375,-1.27734375 C 1.0336719,-0.73714844 1.7221484,-0.98617188 2.5893359,-1.1355859 l 0.2226563,-0.4804688 h 1.21875 c 1.40625,0 2.3789062,0.2167969 2.9179687,0.64453126 0.5390625,0.421875 0.7382813,1.04589844 0.5976563,1.875 C 7.4203906,1.5831641 6.9750781,2.1515234 6.2104297,2.6144141 5.4428516,3.0831641 4.3764453,3.3175391 3.0112109,3.3175391 Z M 3.1401172,2.2511328 c 0.9609375,0 1.6757812,-0.1376953 2.1445312,-0.4101562 C 5.7592578,1.5655859 6.0375781,1.2316016 6.1166797,0.83316406 6.1635547,0.57535156 6.1313281,0.35269531 6.0229297,0.16519531 5.9203906,-0.02230469 5.6889453,-0.16585938 5.3315234,-0.26839844 4.9799609,-0.36800781 4.4555469,-0.42074219 3.7612109,-0.42074219 H 2.4721484 c -0.4160156,0.10253906 -0.75,0.26953125 -1.0078125,0.50390625 C 1.2065234,0.32339844 1.0541797,0.58707031 1.0073047,0.86832031 0.93699219,1.2491797 1.0600391,1.574375 1.3823047,1.8409766 1.7016406,2.1134375 2.2875781,2.2511328 3.1401172,2.2511328 Z M 2.4721484,-0.51449219 C 1.9623828,-0.56722656 1.5610156,-0.68148438 1.2651172,-0.85433594 0.97507813,-1.0330469 0.77585938,-1.2351953 0.66746094,-1.4637109 c -0.11132813,-0.225586 -0.14941406,-0.4453125 -0.1171875,-0.65625 0.046875,-0.2871094 0.2109375,-0.5449219 0.49218746,-0.7734375 0.28125,-0.225586 0.6738282,-0.4160157 1.1835938,-0.5742188 l 0.7148437,0.4570313 c -0.336914,0.070312 -0.6064453,0.1728515 -0.8085937,0.3046875 -0.1962891,0.1347656 -0.3134766,0.28125 -0.3515625,0.4453125 -0.023437,0.1113281 0.00586,0.2167968 0.09375,0.3164062 0.084961,0.09375 0.2460937,0.1728516 0.4804687,0.234375 0.234375,0.064453 0.5625,0.09375 0.984375,0.09375 z M 4.1010547,-2.7644922 c -0.7265625,0 -1.3242188,-0.1435547 -1.7929688,-0.4335937 -0.4628906,-0.2871094 -0.7851562,-0.6679688 -0.9726562,-1.1367188 -0.1875,-0.4746094 -0.2285156,-0.9990234 -0.1171875,-1.5703125 0.084961,-0.4833984 0.28125,-0.9287109 0.5859375,-1.3359375 0.3046875,-0.4130859 0.7148437,-0.75 1.2304687,-1.0078125 0.515625,-0.2578125 1.1308594,-0.3867187 1.8515625,-0.3867187 1.1015625,0 1.8925782,0.3017578 2.3789063,0.9023437 0.4921875,0.5947266 0.65625,1.3330078 0.4921875,2.2148438 -0.079102,0.477539 -0.2695313,0.9257812 -0.5742188,1.3476562 -0.2988281,0.4160156 -0.703125,0.7558594 -1.21875,1.0195313 -0.515625,0.2578125 -1.1367187,0.3867187 -1.8632812,0.3867187 z m 0.070312,-1.0078125 c 0.5625,0 1.0458984,-0.1552734 1.453125,-0.46875 0.4042969,-0.3105469 0.6591797,-0.7675781 0.7617187,-1.3710937 0.1230469,-0.703125 0.035156,-1.2128907 -0.2695312,-1.5351563 -0.3046875,-0.328125 -0.7324219,-0.4921875 -1.2773438,-0.4921875 -0.5800781,0 -1.0722656,0.1640625 -1.4765625,0.4921875 -0.3984375,0.3222656 -0.65625,0.7734375 -0.7734375,1.359375 -0.079102,0.4628906 -0.052734,0.8408203 0.082031,1.1367188 0.1318359,0.2988281 0.3339844,0.5214843 0.609375,0.6679687 0.2724609,0.140625 0.5683594,0.2109375 0.8906253,0.2109375 z M 7.0893359,-7.6277734 6.5619922,-8.2488672 c 0.2167969,-0.375 0.4570312,-0.6621094 0.7148437,-0.8671875 0.2578125,-0.2109375 0.553711,-0.3574219 0.890625,-0.4453125 0.3339844,-0.084961 0.741211,-0.1289062 1.21875,-0.1289062 l -0.2226562,1.2304687 c -0.4921875,0 -0.8964844,0.058594 -1.2070313,0.1757813 -0.3134765,0.1113281 -0.6035156,0.328125 -0.8671875,0.65625 z m 0,0"
         style="fill:#000000;fill-opacity:1;fill-rule:nonzero;stroke:none"
         aria-label="g"
         transform="matrix(1.3333333,0,0,1.3333333,583.97333,533.21333)"
         clip-path="url(#clipPath165)" />
      <path
         id="path166"
         d="m 4.2185937,-3.2566797 c -0.5097656,0 -0.9726562,-0.1230469 -1.3945312,-0.375 -0.4160156,-0.2490234 -0.7470703,-0.5859375 -0.9960938,-1.0078125 -0.243164,-0.421875 -0.3632812,-0.8847656 -0.3632812,-1.3945312 0,-0.515625 0.1201172,-0.9785157 0.3632812,-1.3945313 0.2490235,-0.4130859 0.5800782,-0.7412109 0.9960938,-0.984375 0.421875,-0.2490234 0.8847656,-0.375 1.3945312,-0.375 0.515625,0 0.9785157,0.1259766 1.3945313,0.375 0.421875,0.2431641 0.7558594,0.5712891 1.0078125,0.984375 0.2490234,0.4160156 0.375,0.8789063 0.375,1.3945313 0,0.5097656 -0.1259766,0.9726562 -0.375,1.3945312 -0.2519531,0.421875 -0.5859375,0.7587891 -1.0078125,1.0078125 -0.4160156,0.2519531 -0.8789063,0.375 -1.3945313,0.375 z m 0,-0.9257812 c 0.3427735,0 0.65625,-0.082031 0.9375,-0.2460938 0.28125,-0.1699219 0.5039063,-0.3984375 0.6679688,-0.6796875 0.1699219,-0.28125 0.2578125,-0.5888672 0.2578125,-0.9257812 0,-0.3515625 -0.087891,-0.6621094 -0.2578125,-0.9375 C 5.66,-7.2439844 5.4373437,-7.4637109 5.1560937,-7.6277734 c -0.28125,-0.1640625 -0.5947265,-0.2460938 -0.9375,-0.2460938 -0.336914,0 -0.6445312,0.082031 -0.9257812,0.2460938 -0.2753906,0.1640625 -0.4921875,0.383789 -0.65625,0.65625 -0.1640625,0.2753906 -0.2460938,0.5859375 -0.2460938,0.9375 0,0.336914 0.082031,0.6445312 0.2460938,0.9257812 0.1640625,0.28125 0.3808594,0.5097656 0.65625,0.6796875 0.28125,0.1640625 0.5888672,0.2460938 0.9257812,0.2460938 z m 0,0"
         style="fill:#000000;fill-opacity:1;fill-rule:nonzero;stroke:none"
         aria-label=" ◦"
         transform="matrix(1.3333333,0,0,1.3333333,600.45333,533.21333)"
         clip-path="url(#clipPath167)" />
      <path
         id="path168"
         d="M 0.64449219,0.00113281 2.2148047,-7.3699609 H 0.79683594 L 1.0429297,-8.5652734 h 1.4179687 l 0.09375,-0.4921875 c 0.099609,-0.4746094 0.2167969,-0.8847657 0.3515625,-1.2304691 0.140625,-0.351562 0.319336,-0.638672 0.5390625,-0.867187 0.2167969,-0.225586 0.5039063,-0.392578 0.8554688,-0.503906 0.3574219,-0.117188 0.8085937,-0.175782 1.3476562,-0.175782 h 0.9726563 l -0.2578125,1.160157 h -0.796875 c -0.515625,0 -0.8789063,0.146484 -1.0898438,0.433593 -0.2050781,0.2900394 -0.3603515,0.7001956 -0.46875,1.2304691 l -0.09375,0.4453125 H 5.9062109 L 5.6601172,-7.3699609 H 3.6796484 L 2.1210547,0.00113281 Z m 0,0"
         style="fill:#000000;fill-opacity:1;fill-rule:nonzero;stroke:none"
         aria-label=" f"
         transform="matrix(1.3333333,0,0,1.3333333,616.61333,533.21333)"
         clip-path="url(#clipPath169)" />
    </g>
  </g>
</svg>
