<?xml version="1.0" encoding="UTF-8" standalone="no"?>
<!-- Created with Inkscape (http://www.inkscape.org/) -->

<svg
   width="34.654732mm"
   height="49.648937mm"
   viewBox="0 0 34.654732 49.648938"
   version="1.1"
   id="svg1"
   xml:space="preserve"
   xmlns="http://www.w3.org/2000/svg"
   xmlns:svg="http://www.w3.org/2000/svg"><defs
     id="defs1"><clipPath
       clipPathUnits="userSpaceOnUse"
       id="clipPath1242"><path
         d="M 1.4305e-5,0 H 960.00001 V 540 H 1.4305e-5 Z"
         transform="matrix(1,0,0,-1,-774.90977,423.74001)"
         clip-rule="evenodd"
         id="path1242" /></clipPath><clipPath
       clipPathUnits="userSpaceOnUse"
       id="clipPath1244"><path
         d="M 1.4305e-5,0 H 960.00001 V 540 H 1.4305e-5 Z"
         transform="matrix(1,0,0,-1,-862.05977,423.74001)"
         clip-rule="evenodd"
         id="path1244" /></clipPath></defs><g
     id="g1123"
     transform="matrix(0.26458333,0,0,0.26458334,-4744.536,-36.838061)"><g
       id="g1231"><path
         id="path1232"
         d="m 777.02,410.86 c 0,1.92 1.55,3.48 3.47,3.48 1.93,0 3.48,-1.56 3.48,-3.48 0,-1.92 -1.55,-3.48 -3.48,-3.48 -1.92,0 -3.47,1.56 -3.47,3.48 z"
         style="fill:#47d45a;fill-opacity:1;fill-rule:evenodd;stroke:#042433;stroke-width:1.5;stroke-linecap:butt;stroke-linejoin:miter;stroke-miterlimit:10;stroke-dasharray:none;stroke-opacity:1"
         transform="matrix(1.3333333,0,0,-1.3333333,16900,720)" /></g><g
       id="g1232"><path
         id="path1233"
         d="m 777.02,382.87 c 0,1.92 1.55,3.47 3.47,3.47 1.93,0 3.48,-1.55 3.48,-3.47 0,-1.93 -1.55,-3.48 -3.48,-3.48 -1.92,0 -3.47,1.55 -3.47,3.48 z"
         style="fill:#47d45a;fill-opacity:1;fill-rule:evenodd;stroke:#042433;stroke-width:1.5;stroke-linecap:butt;stroke-linejoin:miter;stroke-miterlimit:10;stroke-dasharray:none;stroke-opacity:1"
         transform="matrix(1.3333333,0,0,-1.3333333,16900,720)" /></g><g
       id="g1233"><path
         id="path1234"
         d="m 777.02,355.24 c 0,1.92 1.55,3.48 3.47,3.48 1.93,0 3.48,-1.56 3.48,-3.48 0,-1.92 -1.55,-3.48 -3.48,-3.48 -1.92,0 -3.47,1.56 -3.47,3.48 z"
         style="fill:#47d45a;fill-opacity:1;fill-rule:evenodd;stroke:#042433;stroke-width:1.5;stroke-linecap:butt;stroke-linejoin:miter;stroke-miterlimit:10;stroke-dasharray:none;stroke-opacity:1"
         transform="matrix(1.3333333,0,0,-1.3333333,16900,720)" /></g><g
       id="g1234"><path
         id="path1235"
         d="m 777.02,327.16 c 0,1.92 1.55,3.47 3.47,3.47 1.93,0 3.48,-1.55 3.48,-3.47 0,-1.92 -1.55,-3.48 -3.48,-3.48 -1.92,0 -3.47,1.56 -3.47,3.48 z"
         style="fill:#47d45a;fill-opacity:1;fill-rule:evenodd;stroke:#042433;stroke-width:1.5;stroke-linecap:butt;stroke-linejoin:miter;stroke-miterlimit:10;stroke-dasharray:none;stroke-opacity:1"
         transform="matrix(1.3333333,0,0,-1.3333333,16900,720)" /></g><g
       id="g1235"><path
         id="path1236"
         d="m 864.15,410.86 c 0,1.92 1.55,3.48 3.48,3.48 1.92,0 3.47,-1.56 3.47,-3.48 0,-1.92 -1.55,-3.48 -3.47,-3.48 -1.93,0 -3.48,1.56 -3.48,3.48 z"
         style="fill:#46b1e1;fill-opacity:1;fill-rule:evenodd;stroke:#042433;stroke-width:1.5;stroke-linecap:butt;stroke-linejoin:miter;stroke-miterlimit:10;stroke-dasharray:none;stroke-opacity:1"
         transform="matrix(1.3333333,0,0,-1.3333333,16900,720)" /></g><g
       id="g1236"><path
         id="path1237"
         d="m 864.15,382.87 c 0,1.92 1.55,3.47 3.48,3.47 1.92,0 3.47,-1.55 3.47,-3.47 0,-1.93 -1.55,-3.48 -3.47,-3.48 -1.93,0 -3.48,1.55 -3.48,3.48 z"
         style="fill:#46b1e1;fill-opacity:1;fill-rule:evenodd;stroke:#042433;stroke-width:1.5;stroke-linecap:butt;stroke-linejoin:miter;stroke-miterlimit:10;stroke-dasharray:none;stroke-opacity:1"
         transform="matrix(1.3333333,0,0,-1.3333333,16900,720)" /></g><g
       id="g1237"><path
         id="path1238"
         d="m 864.15,355.24 c 0,1.92 1.55,3.48 3.48,3.48 1.92,0 3.47,-1.56 3.47,-3.48 0,-1.92 -1.55,-3.48 -3.47,-3.48 -1.93,0 -3.48,1.56 -3.48,3.48 z"
         style="fill:#46b1e1;fill-opacity:1;fill-rule:evenodd;stroke:#042433;stroke-width:1.5;stroke-linecap:butt;stroke-linejoin:miter;stroke-miterlimit:10;stroke-dasharray:none;stroke-opacity:1"
         transform="matrix(1.3333333,0,0,-1.3333333,16900,720)" /></g><g
       id="g1238"><path
         id="path1239"
         d="m 864.15,327.16 c 0,1.92 1.55,3.47 3.48,3.47 1.92,0 3.47,-1.55 3.47,-3.47 0,-1.92 -1.55,-3.48 -3.47,-3.48 -1.93,0 -3.48,1.56 -3.48,3.48 z"
         style="fill:#46b1e1;fill-opacity:1;fill-rule:evenodd;stroke:#042433;stroke-width:1.5;stroke-linecap:butt;stroke-linejoin:miter;stroke-miterlimit:10;stroke-dasharray:none;stroke-opacity:1"
         transform="matrix(1.3333333,0,0,-1.3333333,16900,720)" /></g><g
       id="g1239"><path
         id="path1240"
         d="m 864.15,299.07 c 0,1.92 1.55,3.48 3.48,3.48 1.92,0 3.47,-1.56 3.47,-3.48 0,-1.92 -1.55,-3.48 -3.47,-3.48 -1.93,0 -3.48,1.56 -3.48,3.48 z"
         style="fill:#46b1e1;fill-opacity:1;fill-rule:evenodd;stroke:#042433;stroke-width:1.5;stroke-linecap:butt;stroke-linejoin:miter;stroke-miterlimit:10;stroke-dasharray:none;stroke-opacity:1"
         transform="matrix(1.3333333,0,0,-1.3333333,16900,720)" /></g><g
       id="g1240"><path
         id="path1241"
         d="M -0.83089844,-0.00121094 6.1183203,-11.837148 h 1.6640625 l 1.8632813,11.83593706 h -1.59375 L 7.6534766,-3.3176172 H 2.7316016 L 0.85660156,-0.00121094 Z M 3.4464453,-4.6418359 h 4.03125 L 6.6573828,-10.255117 Z m 0,0"
         style="fill:#00b050;fill-opacity:1;fill-rule:nonzero;stroke:none"
         aria-label="A"
         transform="matrix(1.3333333,0,0,1.3333333,17933.213,155.01333)"
         clip-path="url(#clipPath1242)" /></g><g
       id="g1242"><path
         id="path1243"
         d="M 0.65679688,-0.00121094 3.1528906,-11.837148 h 3.65625 c 0.8203125,0 1.5029297,0.140625 2.0507813,0.421875 0.5537109,0.28125 0.9492187,0.679687 1.1835941,1.195312 0.234375,0.5156251 0.272461,1.1191407 0.117187,1.8046876 -0.117187,0.5332031 -0.3955077,0.993164 -0.8320311,1.3828125 -0.4394531,0.383789 -0.9580078,0.6328125 -1.5585938,0.75 0.46875,0.1259765 0.8789063,0.3339843 1.2304688,0.6210937 0.3515625,0.2900391 0.6005859,0.65625 0.75,1.1015625 0.1552734,0.4453125 0.1699219,0.9726563 0.046875,1.5820313 -0.1259766,0.6035156 -0.3925781,1.125 -0.796875,1.5703125 -0.4072266,0.44531246 -0.9550781,0.79394528 -1.640625,1.04296871 -0.6796875,0.24316407 -1.5087891,0.36328125 -2.484375,0.36328125 z M 2.4849219,-1.3254297 h 2.5664062 c 0.84375,0 1.546875,-0.1552734 2.109375,-0.46875 0.5683594,-0.3105469 0.9257813,-0.7880859 1.0664063,-1.4296875 0.1552734,-0.7558594 0.017578,-1.3271484 -0.4101563,-1.7109375 -0.421875,-0.3896484 -1.0488281,-0.5859375 -1.875,-0.5859375 H 3.3755469 Z m 1.1835937,-5.484375 h 2.2148438 c 0.796875,0 1.4238281,-0.1523437 1.8867187,-0.4570312 0.459961,-0.3105469 0.75,-0.741211 0.8671875,-1.2890625 0.1230469,-0.6152344 0.011719,-1.1015625 -0.3398437,-1.4531246 -0.3515625,-0.351563 -0.9228516,-0.527344 -1.7109375,-0.527344 H 4.4536719 Z m 0,0"
         style="fill:#46b1e1;fill-opacity:1;fill-rule:nonzero;stroke:none"
         aria-label="B"
         transform="matrix(1.3333333,0,0,1.3333333,18049.413,155.01333)"
         clip-path="url(#clipPath1244)" /></g><g
       id="g1244"><path
         id="path1245"
         d="m 788.15,411.61 h 67.34 v -1.5 h -67.34 z m 66.34,2.25 6,-3 -6,-3 z"
         style="fill:#000000;fill-opacity:1;fill-rule:nonzero;stroke:none"
         transform="matrix(1.3333333,0,0,-1.3333333,16900,720)" /></g><g
       id="g1245"><path
         id="path1246"
         d="m 788.39,383.92 67.61,-22.89 -0.48,-1.42 -67.61,22.89 z m 67.38,-20.44 4.72,-4.76 -6.64,-0.92 z"
         style="fill:#000000;fill-opacity:1;fill-rule:nonzero;stroke:none"
         transform="matrix(1.3333333,0,0,-1.3333333,16900,720)" /></g><g
       id="g1246"><path
         id="path1247"
         d="m 788.38,355.17 67.59,-21.85 -0.46,-1.43 -67.59,21.85 z m 67.33,-19.4 4.78,-4.7 -6.63,-1.01 z"
         style="fill:#000000;fill-opacity:1;fill-rule:nonzero;stroke:none"
         transform="matrix(1.3333333,0,0,-1.3333333,16900,720)" /></g><g
       id="g1247"><path
         id="path1248"
         d="m 788.08,327.53 68.88,52.06 -0.91,1.2 -68.88,-52.06 z m 69.44,49.67 2.97,6.01 -6.59,-1.23 z"
         style="fill:#000000;fill-opacity:1;fill-rule:nonzero;stroke:none"
         transform="matrix(1.3333333,0,0,-1.3333333,16900,720)" /></g></g></svg>
