<?xml version="1.0" encoding="UTF-8" standalone="no"?>
<!-- Created with Inkscape (http://www.inkscape.org/) -->

<svg
   width="34.655121mm"
   height="49.634392mm"
   viewBox="0 0 34.655121 49.634393"
   version="1.1"
   id="svg1"
   xml:space="preserve"
   xmlns="http://www.w3.org/2000/svg"
   xmlns:svg="http://www.w3.org/2000/svg"><defs
     id="defs1"><clipPath
       clipPathUnits="userSpaceOnUse"
       id="clipPath141"><path
         d="M 1.4305e-5,0 H 960.00001 V 540 H 1.4305e-5 Z"
         transform="matrix(1,0,0,-1,-804.74005,254.71)"
         clip-rule="evenodd"
         id="path141" /></clipPath><clipPath
       clipPathUnits="userSpaceOnUse"
       id="clipPath143"><path
         d="M 1.4305e-5,0 H 960.00001 V 540 H 1.4305e-5 Z"
         transform="matrix(1,0,0,-1,-891.89005,254.71)"
         clip-rule="evenodd"
         id="path143" /></clipPath></defs><g
     id="g55"
     transform="matrix(0.26458333,0,0,0.26458334,-1315.4762,-96.468537)"><g
       id="g129"><path
         id="path130"
         d="m 806.83,241.86 c 0,1.93 1.56,3.48 3.48,3.48 1.92,0 3.48,-1.55 3.48,-3.48 0,-1.92 -1.56,-3.47 -3.48,-3.47 -1.92,0 -3.48,1.55 -3.48,3.47 z"
         style="fill:#47d45a;fill-opacity:1;fill-rule:evenodd;stroke:#042433;stroke-width:1.5;stroke-linecap:butt;stroke-linejoin:miter;stroke-miterlimit:10;stroke-dasharray:none;stroke-opacity:1"
         transform="matrix(1.3333333,0,0,-1.3333333,3900,720)" /></g><g
       id="g130"><path
         id="path131"
         d="m 806.83,213.87 c 0,1.92 1.56,3.48 3.48,3.48 1.92,0 3.48,-1.56 3.48,-3.48 0,-1.92 -1.56,-3.48 -3.48,-3.48 -1.92,0 -3.48,1.56 -3.48,3.48 z"
         style="fill:#47d45a;fill-opacity:1;fill-rule:evenodd;stroke:#042433;stroke-width:1.5;stroke-linecap:butt;stroke-linejoin:miter;stroke-miterlimit:10;stroke-dasharray:none;stroke-opacity:1"
         transform="matrix(1.3333333,0,0,-1.3333333,3900,720)" /></g><g
       id="g131"><path
         id="path132"
         d="m 806.83,186.25 c 0,1.92 1.56,3.47 3.48,3.47 1.92,0 3.48,-1.55 3.48,-3.47 0,-1.92 -1.56,-3.48 -3.48,-3.48 -1.92,0 -3.48,1.56 -3.48,3.48 z"
         style="fill:#47d45a;fill-opacity:1;fill-rule:evenodd;stroke:#042433;stroke-width:1.5;stroke-linecap:butt;stroke-linejoin:miter;stroke-miterlimit:10;stroke-dasharray:none;stroke-opacity:1"
         transform="matrix(1.3333333,0,0,-1.3333333,3900,720)" /></g><g
       id="g132"><path
         id="path133"
         d="m 806.83,158.16 c 0,1.92 1.56,3.48 3.48,3.48 1.92,0 3.48,-1.56 3.48,-3.48 0,-1.92 -1.56,-3.48 -3.48,-3.48 -1.92,0 -3.48,1.56 -3.48,3.48 z"
         style="fill:#47d45a;fill-opacity:1;fill-rule:evenodd;stroke:#042433;stroke-width:1.5;stroke-linecap:butt;stroke-linejoin:miter;stroke-miterlimit:10;stroke-dasharray:none;stroke-opacity:1"
         transform="matrix(1.3333333,0,0,-1.3333333,3900,720)" /></g><g
       id="g133"><path
         id="path134"
         d="m 806.83,130.08 c 0,1.92 1.56,3.47 3.48,3.47 1.92,0 3.48,-1.55 3.48,-3.47 0,-1.92 -1.56,-3.48 -3.48,-3.48 -1.92,0 -3.48,1.56 -3.48,3.48 z"
         style="fill:#47d45a;fill-opacity:1;fill-rule:evenodd;stroke:#042433;stroke-width:1.5;stroke-linecap:butt;stroke-linejoin:miter;stroke-miterlimit:10;stroke-dasharray:none;stroke-opacity:1"
         transform="matrix(1.3333333,0,0,-1.3333333,3900,720)" /></g><g
       id="g134"><path
         id="path135"
         d="m 893.96,241.86 c 0,1.93 1.56,3.48 3.48,3.48 1.92,0 3.48,-1.55 3.48,-3.48 0,-1.92 -1.56,-3.47 -3.48,-3.47 -1.92,0 -3.48,1.55 -3.48,3.47 z"
         style="fill:#46b1e1;fill-opacity:1;fill-rule:evenodd;stroke:#042433;stroke-width:1.5;stroke-linecap:butt;stroke-linejoin:miter;stroke-miterlimit:10;stroke-dasharray:none;stroke-opacity:1"
         transform="matrix(1.3333333,0,0,-1.3333333,3900,720)" /></g><g
       id="g135"><path
         id="path136"
         d="m 893.96,213.87 c 0,1.92 1.56,3.48 3.48,3.48 1.92,0 3.48,-1.56 3.48,-3.48 0,-1.92 -1.56,-3.48 -3.48,-3.48 -1.92,0 -3.48,1.56 -3.48,3.48 z"
         style="fill:#46b1e1;fill-opacity:1;fill-rule:evenodd;stroke:#042433;stroke-width:1.5;stroke-linecap:butt;stroke-linejoin:miter;stroke-miterlimit:10;stroke-dasharray:none;stroke-opacity:1"
         transform="matrix(1.3333333,0,0,-1.3333333,3900,720)" /></g><g
       id="g136"><path
         id="path137"
         d="m 893.96,186.25 c 0,1.92 1.56,3.47 3.48,3.47 1.92,0 3.48,-1.55 3.48,-3.47 0,-1.92 -1.56,-3.48 -3.48,-3.48 -1.92,0 -3.48,1.56 -3.48,3.48 z"
         style="fill:#46b1e1;fill-opacity:1;fill-rule:evenodd;stroke:#042433;stroke-width:1.5;stroke-linecap:butt;stroke-linejoin:miter;stroke-miterlimit:10;stroke-dasharray:none;stroke-opacity:1"
         transform="matrix(1.3333333,0,0,-1.3333333,3900,720)" /></g><g
       id="g137"><path
         id="path138"
         d="m 893.96,158.16 c 0,1.92 1.56,3.48 3.48,3.48 1.92,0 3.48,-1.56 3.48,-3.48 0,-1.92 -1.56,-3.48 -3.48,-3.48 -1.92,0 -3.48,1.56 -3.48,3.48 z"
         style="fill:#46b1e1;fill-opacity:1;fill-rule:evenodd;stroke:#042433;stroke-width:1.5;stroke-linecap:butt;stroke-linejoin:miter;stroke-miterlimit:10;stroke-dasharray:none;stroke-opacity:1"
         transform="matrix(1.3333333,0,0,-1.3333333,3900,720)" /></g><g
       id="g138"><path
         id="path139"
         d="m 893.96,130.08 c 0,1.92 1.56,3.47 3.48,3.47 1.92,0 3.48,-1.55 3.48,-3.47 0,-1.92 -1.56,-3.48 -3.48,-3.48 -1.92,0 -3.48,1.56 -3.48,3.48 z"
         style="fill:#46b1e1;fill-opacity:1;fill-rule:evenodd;stroke:#042433;stroke-width:1.5;stroke-linecap:butt;stroke-linejoin:miter;stroke-miterlimit:10;stroke-dasharray:none;stroke-opacity:1"
         transform="matrix(1.3333333,0,0,-1.3333333,3900,720)" /></g><g
       id="g139"><path
         id="path140"
         d="M -0.83082031,3.90625e-5 6.1183984,-11.835898 H 7.7824609 L 9.6457422,3.90625e-5 h -1.59375 L 7.6535547,-3.3163672 H 2.7316797 L 0.85667969,3.90625e-5 Z M 3.4465234,-4.6405859 h 4.03125 L 6.6574609,-10.253867 Z m 0,0"
         style="fill:#00b050;fill-opacity:1;fill-rule:nonzero;stroke:none"
         aria-label="A"
         transform="matrix(1.3333333,0,0,1.3333333,4972.9867,380.38667)"
         clip-path="url(#clipPath141)" /></g><g
       id="g141"><path
         id="path142"
         d="M 0.656875,3.90625e-5 3.1529688,-11.835898 h 3.65625 c 0.8203125,0 1.5029296,0.140625 2.0507812,0.421875 0.5537109,0.28125 0.9492188,0.679687 1.183594,1.195312 0.234375,0.5156251 0.272461,1.1191407 0.117187,1.8046876 -0.117187,0.5332031 -0.3955076,0.993164 -0.832031,1.3828125 -0.4394531,0.383789 -0.9580078,0.6328125 -1.5585937,0.75 0.46875,0.1259765 0.8789062,0.3339843 1.2304687,0.6210937 0.3515625,0.2900391 0.6005859,0.65625 0.75,1.1015625 0.1552734,0.4453125 0.1699219,0.9726563 0.046875,1.5820313 -0.1259766,0.6035156 -0.3925781,1.125 -0.796875,1.5703125 C 8.5933984,-0.96089844 8.0455469,-0.61226563 7.36,-0.36324219 6.6803125,-0.12007813 5.8512109,3.90625e-5 4.875625,3.90625e-5 Z M 2.485,-1.3241797 h 2.5664063 c 0.84375,0 1.546875,-0.1552734 2.109375,-0.46875 0.5683593,-0.3105469 0.9257812,-0.7880859 1.0664062,-1.4296875 0.1552734,-0.7558594 0.017578,-1.3271484 -0.4101562,-1.7109375 -0.421875,-0.3896484 -1.0488282,-0.5859375 -1.875,-0.5859375 H 3.375625 Z m 1.1835938,-5.484375 h 2.2148437 c 0.796875,0 1.4238281,-0.1523437 1.8867188,-0.4570312 0.4599609,-0.3105469 0.75,-0.741211 0.8671875,-1.2890625 C 8.7603906,-9.1698828 8.6490625,-9.6562109 8.2975,-10.007773 7.9459375,-10.359336 7.3746484,-10.535117 6.5865625,-10.535117 H 4.45375 Z m 0,0"
         style="fill:#46b1e1;fill-opacity:1;fill-rule:nonzero;stroke:none"
         aria-label="B"
         transform="matrix(1.3333333,0,0,1.3333333,5089.1867,380.38667)"
         clip-path="url(#clipPath143)" /></g><g
       id="g143"><path
         id="path144"
         d="m 817.96,242.61 h 67.35 v -1.5 h -67.35 z m 66.35,2.25 6,-3 -6,-3 z"
         style="fill:#000000;fill-opacity:1;fill-rule:nonzero;stroke:none"
         transform="matrix(1.3333333,0,0,-1.3333333,3900,720)" /></g><g
       id="g144"><path
         id="path145"
         d="m 818.2,214.92 67.61,-22.88 -0.48,-1.42 -67.61,22.88 z m 67.39,-20.43 4.72,-4.77 -6.65,-0.91 z"
         style="fill:#000000;fill-opacity:1;fill-rule:nonzero;stroke:none"
         transform="matrix(1.3333333,0,0,-1.3333333,3900,720)" /></g><g
       id="g145"><path
         id="path146"
         d="m 818.22,129.68 67.67,25.36 -0.53,1.41 -67.66,-25.36 z m 67.52,22.91 4.57,4.91 -6.67,0.7 z"
         style="fill:#000000;fill-opacity:1;fill-rule:nonzero;stroke:none"
         transform="matrix(1.3333333,0,0,-1.3333333,3900,720)" /></g><g
       id="g146"><path
         id="path147"
         d="m 818.19,186.17 67.59,-21.85 -0.46,-1.42 -67.59,21.85 z m 67.33,-19.4 4.79,-4.7 -6.63,-1.01 z"
         style="fill:#000000;fill-opacity:1;fill-rule:nonzero;stroke:none"
         transform="matrix(1.3333333,0,0,-1.3333333,3900,720)" /></g><g
       id="g147"><path
         id="path148"
         d="m 817.89,158.53 68.88,52.07 -0.9,1.2 -68.88,-52.07 z m 69.44,49.67 2.98,6.01 -6.6,-1.22 z"
         style="fill:#000000;fill-opacity:1;fill-rule:nonzero;stroke:none"
         transform="matrix(1.3333333,0,0,-1.3333333,3900,720)" /></g></g></svg>
