<?xml version="1.0" encoding="UTF-8" standalone="no"?>
<!-- Created with Inkscape (http://www.inkscape.org/) -->

<svg
   width="34.643364mm"
   height="39.739422mm"
   viewBox="0 0 34.643364 39.739423"
   version="1.1"
   id="svg1"
   xml:space="preserve"
   xmlns="http://www.w3.org/2000/svg"
   xmlns:svg="http://www.w3.org/2000/svg"><defs
     id="defs1"><clipPath
       clipPathUnits="userSpaceOnUse"
       id="clipPath1412"><path
         d="M 1.4305e-5,0 H 960.00001 V 540 H 1.4305e-5 Z"
         transform="matrix(1,0,0,-1,-796.14977,423.74001)"
         clip-rule="evenodd"
         id="path1412" /></clipPath><clipPath
       clipPathUnits="userSpaceOnUse"
       id="clipPath1414"><path
         d="M 1.4305e-5,0 H 960.00001 V 540 H 1.4305e-5 Z"
         transform="matrix(1,0,0,-1,-883.26977,423.74001)"
         clip-rule="evenodd"
         id="path1414" /></clipPath></defs><g
     id="g1344"
     transform="matrix(0.26458333,0,0,0.26458334,-5783.9036,-36.838062)"><g
       id="g1402"><path
         id="path1403"
         d="m 798.23,410.86 c 0,1.92 1.56,3.48 3.48,3.48 1.92,0 3.48,-1.56 3.48,-3.48 0,-1.92 -1.56,-3.48 -3.48,-3.48 -1.92,0 -3.48,1.56 -3.48,3.48 z"
         style="fill:#47d45a;fill-opacity:1;fill-rule:evenodd;stroke:#042433;stroke-width:1.5;stroke-linecap:butt;stroke-linejoin:miter;stroke-miterlimit:10;stroke-dasharray:none;stroke-opacity:1"
         transform="matrix(1.3333333,0,0,-1.3333333,20800,720)" /></g><g
       id="g1403"><path
         id="path1404"
         d="m 798.23,382.87 c 0,1.92 1.56,3.47 3.48,3.47 1.92,0 3.48,-1.55 3.48,-3.47 0,-1.93 -1.56,-3.48 -3.48,-3.48 -1.92,0 -3.48,1.55 -3.48,3.48 z"
         style="fill:#47d45a;fill-opacity:1;fill-rule:evenodd;stroke:#042433;stroke-width:1.5;stroke-linecap:butt;stroke-linejoin:miter;stroke-miterlimit:10;stroke-dasharray:none;stroke-opacity:1"
         transform="matrix(1.3333333,0,0,-1.3333333,20800,720)" /></g><g
       id="g1404"><path
         id="path1405"
         d="m 798.23,355.24 c 0,1.92 1.56,3.48 3.48,3.48 1.92,0 3.48,-1.56 3.48,-3.48 0,-1.92 -1.56,-3.48 -3.48,-3.48 -1.92,0 -3.48,1.56 -3.48,3.48 z"
         style="fill:#47d45a;fill-opacity:1;fill-rule:evenodd;stroke:#042433;stroke-width:1.5;stroke-linecap:butt;stroke-linejoin:miter;stroke-miterlimit:10;stroke-dasharray:none;stroke-opacity:1"
         transform="matrix(1.3333333,0,0,-1.3333333,20800,720)" /></g><g
       id="g1405"><path
         id="path1406"
         d="m 798.23,327.16 c 0,1.92 1.56,3.47 3.48,3.47 1.92,0 3.48,-1.55 3.48,-3.47 0,-1.92 -1.56,-3.48 -3.48,-3.48 -1.92,0 -3.48,1.56 -3.48,3.48 z"
         style="fill:#47d45a;fill-opacity:1;fill-rule:evenodd;stroke:#042433;stroke-width:1.5;stroke-linecap:butt;stroke-linejoin:miter;stroke-miterlimit:10;stroke-dasharray:none;stroke-opacity:1"
         transform="matrix(1.3333333,0,0,-1.3333333,20800,720)" /></g><g
       id="g1406"><path
         id="path1407"
         d="m 885.36,410.86 c 0,1.92 1.56,3.48 3.48,3.48 1.92,0 3.48,-1.56 3.48,-3.48 0,-1.92 -1.56,-3.48 -3.48,-3.48 -1.92,0 -3.48,1.56 -3.48,3.48 z"
         style="fill:#46b1e1;fill-opacity:1;fill-rule:evenodd;stroke:#042433;stroke-width:1.5;stroke-linecap:butt;stroke-linejoin:miter;stroke-miterlimit:10;stroke-dasharray:none;stroke-opacity:1"
         transform="matrix(1.3333333,0,0,-1.3333333,20800,720)" /></g><g
       id="g1407"><path
         id="path1408"
         d="m 885.36,382.87 c 0,1.92 1.56,3.47 3.48,3.47 1.92,0 3.48,-1.55 3.48,-3.47 0,-1.93 -1.56,-3.48 -3.48,-3.48 -1.92,0 -3.48,1.55 -3.48,3.48 z"
         style="fill:#46b1e1;fill-opacity:1;fill-rule:evenodd;stroke:#042433;stroke-width:1.5;stroke-linecap:butt;stroke-linejoin:miter;stroke-miterlimit:10;stroke-dasharray:none;stroke-opacity:1"
         transform="matrix(1.3333333,0,0,-1.3333333,20800,720)" /></g><g
       id="g1408"><path
         id="path1409"
         d="m 885.36,355.24 c 0,1.92 1.56,3.48 3.48,3.48 1.92,0 3.48,-1.56 3.48,-3.48 0,-1.92 -1.56,-3.48 -3.48,-3.48 -1.92,0 -3.48,1.56 -3.48,3.48 z"
         style="fill:#46b1e1;fill-opacity:1;fill-rule:evenodd;stroke:#042433;stroke-width:1.5;stroke-linecap:butt;stroke-linejoin:miter;stroke-miterlimit:10;stroke-dasharray:none;stroke-opacity:1"
         transform="matrix(1.3333333,0,0,-1.3333333,20800,720)" /></g><g
       id="g1409"><path
         id="path1410"
         d="m 885.36,327.16 c 0,1.92 1.56,3.47 3.48,3.47 1.92,0 3.48,-1.55 3.48,-3.47 0,-1.92 -1.56,-3.48 -3.48,-3.48 -1.92,0 -3.48,1.56 -3.48,3.48 z"
         style="fill:#46b1e1;fill-opacity:1;fill-rule:evenodd;stroke:#042433;stroke-width:1.5;stroke-linecap:butt;stroke-linejoin:miter;stroke-miterlimit:10;stroke-dasharray:none;stroke-opacity:1"
         transform="matrix(1.3333333,0,0,-1.3333333,20800,720)" /></g><g
       id="g1410"><path
         id="path1411"
         d="M -0.83066406,-0.00121094 6.1185547,-11.837148 h 1.6640625 l 1.8632812,11.83593706 h -1.59375 L 7.6537109,-3.3176172 H 2.7318359 L 0.85683594,-0.00121094 Z M 3.4466797,-4.6418359 h 4.03125 L 6.6576172,-10.255117 Z m 0,0"
         style="fill:#00b050;fill-opacity:1;fill-rule:nonzero;stroke:none"
         aria-label="A"
         transform="matrix(1.3333333,0,0,1.3333333,21861.533,155.01333)"
         clip-path="url(#clipPath1412)" /></g><g
       id="g1412"><path
         id="path1413"
         d="M 0.65480469,-0.00121094 3.1508984,-11.837148 h 3.65625 c 0.8203125,0 1.5029297,0.140625 2.0507813,0.421875 0.5537109,0.28125 0.9492187,0.679687 1.1835933,1.195312 0.234375,0.5156251 0.272461,1.1191407 0.117188,1.8046876 -0.117188,0.5332031 -0.3955079,0.993164 -0.8320313,1.3828125 -0.4394531,0.383789 -0.9580078,0.6328125 -1.5585938,0.75 0.46875,0.1259765 0.8789063,0.3339843 1.2304688,0.6210937 0.3515625,0.2900391 0.6005859,0.65625 0.75,1.1015625 0.1552734,0.4453125 0.1699219,0.9726563 0.046875,1.5820313 -0.1259766,0.6035156 -0.3925781,1.125 -0.796875,1.5703125 -0.4072266,0.44531246 -0.9550781,0.79394528 -1.640625,1.04296871 -0.6796875,0.24316407 -1.5087891,0.36328125 -2.484375,0.36328125 z M 2.4829297,-1.3254297 h 2.5664062 c 0.84375,0 1.546875,-0.1552734 2.109375,-0.46875 0.5683594,-0.3105469 0.9257813,-0.7880859 1.0664063,-1.4296875 0.1552734,-0.7558594 0.017578,-1.3271484 -0.4101563,-1.7109375 -0.421875,-0.3896484 -1.0488281,-0.5859375 -1.875,-0.5859375 H 3.3735547 Z m 1.1835937,-5.484375 h 2.2148438 c 0.796875,0 1.4238281,-0.1523437 1.8867187,-0.4570312 0.459961,-0.3105469 0.75,-0.741211 0.8671875,-1.2890625 0.1230469,-0.6152344 0.011719,-1.1015625 -0.3398437,-1.4531246 -0.3515625,-0.351563 -0.9228516,-0.527344 -1.7109375,-0.527344 H 4.4516797 Z m 0,0"
         style="fill:#46b1e1;fill-opacity:1;fill-rule:nonzero;stroke:none"
         aria-label="B"
         transform="matrix(1.3333333,0,0,1.3333333,21977.693,155.01333)"
         clip-path="url(#clipPath1414)" /></g><g
       id="g1414"><path
         id="path1415"
         d="m 809.36,411.61 h 67.35 v -1.5 h -67.35 z m 66.35,2.25 6,-3 -6,-3 z"
         style="fill:#000000;fill-opacity:1;fill-rule:nonzero;stroke:none"
         transform="matrix(1.3333333,0,0,-1.3333333,20800,720)" /></g><g
       id="g1415"><path
         id="path1416"
         d="m 809.6,383.92 67.62,-22.89 -0.48,-1.42 -67.62,22.89 z m 67.39,-20.44 4.72,-4.76 -6.64,-0.92 z"
         style="fill:#000000;fill-opacity:1;fill-rule:nonzero;stroke:none"
         transform="matrix(1.3333333,0,0,-1.3333333,20800,720)" /></g><g
       id="g1416"><path
         id="path1417"
         d="m 809.59,355.17 67.59,-21.85 -0.46,-1.43 -67.59,21.85 z m 67.34,-19.4 4.78,-4.7 -6.63,-1.01 z"
         style="fill:#000000;fill-opacity:1;fill-rule:nonzero;stroke:none"
         transform="matrix(1.3333333,0,0,-1.3333333,20800,720)" /></g><g
       id="g1417"><path
         id="path1418"
         d="m 809.29,327.53 68.88,52.06 -0.9,1.2 -68.88,-52.06 z m 69.44,49.67 2.98,6.01 -6.59,-1.23 z"
         style="fill:#000000;fill-opacity:1;fill-rule:nonzero;stroke:none"
         transform="matrix(1.3333333,0,0,-1.3333333,20800,720)" /></g></g></svg>
