<?xml version="1.0" encoding="UTF-8" standalone="no"?>
<!-- Created with Inkscape (http://www.inkscape.org/) -->

<svg
   version="1.1"
   id="svg1"
   width="379.375"
   height="157.26172"
   viewBox="0 0 379.375 157.26172"
   sodipodi:docname="cm12004-Week4-b_(More on Maps).pdf"
   xmlns:inkscape="http://www.inkscape.org/namespaces/inkscape"
   xmlns:sodipodi="http://sodipodi.sourceforge.net/DTD/sodipodi-0.dtd"
   xmlns="http://www.w3.org/2000/svg"
   xmlns:svg="http://www.w3.org/2000/svg">
  <defs
     id="defs1">
    <clipPath
       clipPathUnits="userSpaceOnUse"
       id="clipPath175">
      <path
         d="M 1.4305e-5,0 H 960.00001 V 540 H 1.4305e-5 Z"
         transform="matrix(1,0,0,-1,-280.56001,326.74001)"
         clip-rule="evenodd"
         id="path175" />
    </clipPath>
    <clipPath
       clipPathUnits="userSpaceOnUse"
       id="clipPath177">
      <path
         d="M 1.4305e-5,0 H 960.00001 V 540 H 1.4305e-5 Z"
         transform="matrix(1,0,0,-1,-292.32001,326.74001)"
         clip-rule="evenodd"
         id="path177" />
    </clipPath>
    <clipPath
       clipPathUnits="userSpaceOnUse"
       id="clipPath179">
      <path
         d="M 1.4305e-5,0 H 960.00001 V 540 H 1.4305e-5 Z"
         transform="matrix(1,0,0,-1,-308.40001,326.74001)"
         clip-rule="evenodd"
         id="path179" />
    </clipPath>
    <clipPath
       clipPathUnits="userSpaceOnUse"
       id="clipPath181">
      <path
         d="M 1.4305e-5,0 H 960.00001 V 540 H 1.4305e-5 Z"
         transform="matrix(1,0,0,-1,-315.36001,333.94001)"
         clip-rule="evenodd"
         id="path181" />
    </clipPath>
    <clipPath
       clipPathUnits="userSpaceOnUse"
       id="clipPath183">
      <path
         d="M 1.4305e-5,0 H 960.00001 V 540 H 1.4305e-5 Z"
         transform="matrix(1,0,0,-1,-335.54001,326.74001)"
         clip-rule="evenodd"
         id="path183" />
    </clipPath>
    <clipPath
       clipPathUnits="userSpaceOnUse"
       id="clipPath185">
      <path
         d="M 1.4305e-5,0 H 960.00001 V 540 H 1.4305e-5 Z"
         transform="matrix(1,0,0,-1,-359.54001,320.86001)"
         clip-rule="evenodd"
         id="path185" />
    </clipPath>
    <clipPath
       clipPathUnits="userSpaceOnUse"
       id="clipPath187">
      <path
         d="M 1.4305e-5,0 H 960.00001 V 540 H 1.4305e-5 Z"
         transform="matrix(1,0,0,-1,-287.64001,263.62)"
         clip-rule="evenodd"
         id="path187" />
    </clipPath>
    <clipPath
       clipPathUnits="userSpaceOnUse"
       id="clipPath189">
      <path
         d="M 1.4305e-5,0 H 960.00001 V 540 H 1.4305e-5 Z"
         transform="matrix(1,0,0,-1,-299.40001,263.62)"
         clip-rule="evenodd"
         id="path189" />
    </clipPath>
    <clipPath
       clipPathUnits="userSpaceOnUse"
       id="clipPath191">
      <path
         d="M 1.4305e-5,0 H 960.00001 V 540 H 1.4305e-5 Z"
         transform="matrix(1,0,0,-1,-315.48001,263.62)"
         clip-rule="evenodd"
         id="path191" />
    </clipPath>
    <clipPath
       clipPathUnits="userSpaceOnUse"
       id="clipPath193">
      <path
         d="M 1.4305e-5,0 H 960.00001 V 540 H 1.4305e-5 Z"
         transform="matrix(1,0,0,-1,-321.72001,257.74)"
         clip-rule="evenodd"
         id="path193" />
    </clipPath>
    <clipPath
       clipPathUnits="userSpaceOnUse"
       id="clipPath195">
      <path
         d="M 1.4305e-5,0 H 960.00001 V 540 H 1.4305e-5 Z"
         transform="matrix(1,0,0,-1,-334.44001,263.62)"
         clip-rule="evenodd"
         id="path195" />
    </clipPath>
    <clipPath
       clipPathUnits="userSpaceOnUse"
       id="clipPath197">
      <path
         d="M 1.4305e-5,0 H 960.00001 V 540 H 1.4305e-5 Z"
         transform="matrix(1,0,0,-1,-287.64001,232.08001)"
         clip-rule="evenodd"
         id="path197" />
    </clipPath>
    <clipPath
       clipPathUnits="userSpaceOnUse"
       id="clipPath199">
      <path
         d="M 1.4305e-5,0 H 960.00001 V 540 H 1.4305e-5 Z"
         transform="matrix(1,0,0,-1,-293.88001,226.20001)"
         clip-rule="evenodd"
         id="path199" />
    </clipPath>
    <clipPath
       clipPathUnits="userSpaceOnUse"
       id="clipPath201">
      <path
         d="M 1.4305e-5,0 H 960.00001 V 540 H 1.4305e-5 Z"
         transform="matrix(1,0,0,-1,-306.48001,232.08001)"
         clip-rule="evenodd"
         id="path201" />
    </clipPath>
    <clipPath
       clipPathUnits="userSpaceOnUse"
       id="clipPath203">
      <path
         d="M 1.4305e-5,0 H 960.00001 V 540 H 1.4305e-5 Z"
         transform="matrix(1,0,0,-1,-322.68001,232.08001)"
         clip-rule="evenodd"
         id="path203" />
    </clipPath>
    <clipPath
       clipPathUnits="userSpaceOnUse"
       id="clipPath205">
      <path
         d="M 1.4305e-5,0 H 960.00001 V 540 H 1.4305e-5 Z"
         transform="matrix(1,0,0,-1,-336.00001,232.08001)"
         clip-rule="evenodd"
         id="path205" />
    </clipPath>
    <clipPath
       clipPathUnits="userSpaceOnUse"
       id="clipPath207">
      <path
         d="M 1.4305e-5,0 H 960.00001 V 540 H 1.4305e-5 Z"
         transform="matrix(1,0,0,-1,-280.56001,294.1)"
         clip-rule="evenodd"
         id="path207" />
    </clipPath>
    <clipPath
       clipPathUnits="userSpaceOnUse"
       id="clipPath209">
      <path
         d="M 1.4305e-5,0 H 960.00001 V 540 H 1.4305e-5 Z"
         transform="matrix(1,0,0,-1,-287.52001,301.30001)"
         clip-rule="evenodd"
         id="path209" />
    </clipPath>
    <clipPath
       clipPathUnits="userSpaceOnUse"
       id="clipPath211">
      <path
         d="M 1.4305e-5,0 H 960.00001 V 540 H 1.4305e-5 Z"
         transform="matrix(1,0,0,-1,-309.36001,294.1)"
         clip-rule="evenodd"
         id="path211" />
    </clipPath>
    <clipPath
       clipPathUnits="userSpaceOnUse"
       id="clipPath213">
      <path
         d="M 1.4305e-5,0 H 960.00001 V 540 H 1.4305e-5 Z"
         transform="matrix(1,0,0,-1,-325.44001,294.1)"
         clip-rule="evenodd"
         id="path213" />
    </clipPath>
    <clipPath
       clipPathUnits="userSpaceOnUse"
       id="clipPath215">
      <path
         d="M 1.4305e-5,0 H 960.00001 V 540 H 1.4305e-5 Z"
         transform="matrix(1,0,0,-1,-335.54001,294.1)"
         clip-rule="evenodd"
         id="path215" />
    </clipPath>
    <clipPath
       clipPathUnits="userSpaceOnUse"
       id="clipPath217">
      <path
         d="M 1.4305e-5,0 H 960.00001 V 540 H 1.4305e-5 Z"
         transform="matrix(1,0,0,-1,-359.54001,288.19)"
         clip-rule="evenodd"
         id="path217" />
    </clipPath>
    <clipPath
       clipPathUnits="userSpaceOnUse"
       id="clipPath219">
      <path
         d="M 1.4305e-5,0 H 960.00001 V 540 H 1.4305e-5 Z"
         transform="matrix(1,0,0,-1,-486.00001,326.74001)"
         clip-rule="evenodd"
         id="path219" />
    </clipPath>
    <clipPath
       clipPathUnits="userSpaceOnUse"
       id="clipPath221">
      <path
         d="M 1.4305e-5,0 H 960.00001 V 540 H 1.4305e-5 Z"
         transform="matrix(1,0,0,-1,-498.72001,326.74001)"
         clip-rule="evenodd"
         id="path221" />
    </clipPath>
    <clipPath
       clipPathUnits="userSpaceOnUse"
       id="clipPath223">
      <path
         d="M 1.4305e-5,0 H 960.00001 V 540 H 1.4305e-5 Z"
         transform="matrix(1,0,0,-1,-505.56001,326.74001)"
         clip-rule="evenodd"
         id="path223" />
    </clipPath>
    <clipPath
       clipPathUnits="userSpaceOnUse"
       id="clipPath225">
      <path
         d="M 1.4305e-5,0 H 960.00001 V 540 H 1.4305e-5 Z"
         transform="matrix(1,0,0,-1,-518.28001,333.94001)"
         clip-rule="evenodd"
         id="path225" />
    </clipPath>
    <clipPath
       clipPathUnits="userSpaceOnUse"
       id="clipPath227">
      <path
         d="M 1.4305e-5,0 H 960.00001 V 540 H 1.4305e-5 Z"
         transform="matrix(1,0,0,-1,-526.80001,333.94001)"
         clip-rule="evenodd"
         id="path227" />
    </clipPath>
    <clipPath
       clipPathUnits="userSpaceOnUse"
       id="clipPath229">
      <path
         d="M 1.4305e-5,0 H 960.00001 V 540 H 1.4305e-5 Z"
         transform="matrix(1,0,0,-1,-538.68001,326.74001)"
         clip-rule="evenodd"
         id="path229" />
    </clipPath>
    <clipPath
       clipPathUnits="userSpaceOnUse"
       id="clipPath231">
      <path
         d="M 1.4305e-5,0 H 960.00001 V 540 H 1.4305e-5 Z"
         transform="matrix(1,0,0,-1,-556.32001,326.74001)"
         clip-rule="evenodd"
         id="path231" />
    </clipPath>
    <clipPath
       clipPathUnits="userSpaceOnUse"
       id="clipPath233">
      <path
         d="M 1.4305e-5,0 H 960.00001 V 540 H 1.4305e-5 Z"
         transform="matrix(1,0,0,-1,-487.27001,293.11)"
         clip-rule="evenodd"
         id="path233" />
    </clipPath>
    <clipPath
       clipPathUnits="userSpaceOnUse"
       id="clipPath235">
      <path
         d="M 1.4305e-5,0 H 960.00001 V 540 H 1.4305e-5 Z"
         transform="matrix(1,0,0,-1,-499.99001,300.31001)"
         clip-rule="evenodd"
         id="path235" />
    </clipPath>
    <clipPath
       clipPathUnits="userSpaceOnUse"
       id="clipPath237">
      <path
         d="M 1.4305e-5,0 H 960.00001 V 540 H 1.4305e-5 Z"
         transform="matrix(1,0,0,-1,-508.51001,300.31001)"
         clip-rule="evenodd"
         id="path237" />
    </clipPath>
    <clipPath
       clipPathUnits="userSpaceOnUse"
       id="clipPath239">
      <path
         d="M 1.4305e-5,0 H 960.00001 V 540 H 1.4305e-5 Z"
         transform="matrix(1,0,0,-1,-517.03001,293.11)"
         clip-rule="evenodd"
         id="path239" />
    </clipPath>
    <clipPath
       clipPathUnits="userSpaceOnUse"
       id="clipPath241">
      <path
         d="M 1.4305e-5,0 H 960.00001 V 540 H 1.4305e-5 Z"
         transform="matrix(1,0,0,-1,-523.87001,293.11)"
         clip-rule="evenodd"
         id="path241" />
    </clipPath>
    <clipPath
       clipPathUnits="userSpaceOnUse"
       id="clipPath243">
      <path
         d="M 1.4305e-5,0 H 960.00001 V 540 H 1.4305e-5 Z"
         transform="matrix(1,0,0,-1,-539.95001,293.11)"
         clip-rule="evenodd"
         id="path243" />
    </clipPath>
    <clipPath
       clipPathUnits="userSpaceOnUse"
       id="clipPath245">
      <path
         d="M 1.4305e-5,0 H 960.00001 V 540 H 1.4305e-5 Z"
         transform="matrix(1,0,0,-1,-557.59001,293.11)"
         clip-rule="evenodd"
         id="path245" />
    </clipPath>
    <clipPath
       clipPathUnits="userSpaceOnUse"
       id="clipPath247">
      <path
         d="M 1.4305e-5,0 H 960.00001 V 540 H 1.4305e-5 Z"
         transform="matrix(1,0,0,-1,-499.94001,263.62)"
         clip-rule="evenodd"
         id="path247" />
    </clipPath>
    <clipPath
       clipPathUnits="userSpaceOnUse"
       id="clipPath249">
      <path
         d="M 1.4305e-5,0 H 960.00001 V 540 H 1.4305e-5 Z"
         transform="matrix(1,0,0,-1,-512.66002,263.62)"
         clip-rule="evenodd"
         id="path249" />
    </clipPath>
    <clipPath
       clipPathUnits="userSpaceOnUse"
       id="clipPath251">
      <path
         d="M 1.4305e-5,0 H 960.00001 V 540 H 1.4305e-5 Z"
         transform="matrix(1,0,0,-1,-519.50002,263.62)"
         clip-rule="evenodd"
         id="path251" />
    </clipPath>
    <clipPath
       clipPathUnits="userSpaceOnUse"
       id="clipPath253">
      <path
         d="M 1.4305e-5,0 H 960.00001 V 540 H 1.4305e-5 Z"
         transform="matrix(1,0,0,-1,-535.70002,263.62)"
         clip-rule="evenodd"
         id="path253" />
    </clipPath>
    <clipPath
       clipPathUnits="userSpaceOnUse"
       id="clipPath255">
      <path
         d="M 1.4305e-5,0 H 960.00001 V 540 H 1.4305e-5 Z"
         transform="matrix(1,0,0,-1,-553.46002,263.62)"
         clip-rule="evenodd"
         id="path255" />
    </clipPath>
    <clipPath
       clipPathUnits="userSpaceOnUse"
       id="clipPath257">
      <path
         d="M 1.4305e-5,0 H 960.00001 V 540 H 1.4305e-5 Z"
         transform="matrix(1,0,0,-1,-499.94001,232.08001)"
         clip-rule="evenodd"
         id="path257" />
    </clipPath>
    <clipPath
       clipPathUnits="userSpaceOnUse"
       id="clipPath259">
      <path
         d="M 1.4305e-5,0 H 960.00001 V 540 H 1.4305e-5 Z"
         transform="matrix(1,0,0,-1,-512.78002,232.08001)"
         clip-rule="evenodd"
         id="path259" />
    </clipPath>
    <clipPath
       clipPathUnits="userSpaceOnUse"
       id="clipPath261">
      <path
         d="M 1.4305e-5,0 H 960.00001 V 540 H 1.4305e-5 Z"
         transform="matrix(1,0,0,-1,-519.62002,232.08001)"
         clip-rule="evenodd"
         id="path261" />
    </clipPath>
    <clipPath
       clipPathUnits="userSpaceOnUse"
       id="clipPath263">
      <path
         d="M 1.4305e-5,0 H 960.00001 V 540 H 1.4305e-5 Z"
         transform="matrix(1,0,0,-1,-535.70002,232.08001)"
         clip-rule="evenodd"
         id="path263" />
    </clipPath>
    <clipPath
       clipPathUnits="userSpaceOnUse"
       id="clipPath265">
      <path
         d="M 1.4305e-5,0 H 960.00001 V 540 H 1.4305e-5 Z"
         transform="matrix(1,0,0,-1,-553.46002,232.08001)"
         clip-rule="evenodd"
         id="path265" />
    </clipPath>
  </defs>
  <sodipodi:namedview
     id="namedview1"
     pagecolor="#ffffff"
     bordercolor="#000000"
     borderopacity="0.25"
     inkscape:showpageshadow="2"
     inkscape:pageopacity="0.0"
     inkscape:pagecheckerboard="0"
     inkscape:deskcolor="#d1d1d1">
    <inkscape:page
       x="0"
       y="0"
       width="379.375"
       height="157.26172"
       id="page2"
       margin="0"
       bleed="0" />
  </sodipodi:namedview>
  <g
     id="g1"
     inkscape:groupmode="layer"
     inkscape:label="18"
     transform="translate(-375.21875,-261.13672)">
    <g
       id="g173">
      <path
         id="path174"
         d="M 0.8540625,7.421875e-4 2.9517187,-9.8312891 H 1.065 L 1.393125,-11.41332 H 3.2798437 L 3.40875,-12.081289 c 0.1318359,-0.632813 0.2871094,-1.177734 0.46875,-1.640625 0.1787109,-0.46875 0.4130859,-0.849609 0.703125,-1.148438 0.2958984,-0.304687 0.6796875,-0.530273 1.1484375,-0.679687 0.4746094,-0.146484 1.0722656,-0.222656 1.7929687,-0.222656 h 1.3007813 l -0.3398438,1.535156 H 7.4165625 c -0.6884766,0 -1.1689453,0.196289 -1.4414063,0.585937 -0.2753906,0.383789 -0.4863281,0.931641 -0.6328125,1.640625 l -0.1289062,0.597657 h 2.6601562 l -0.328125,1.5820309 H 4.90875 L 2.8228125,7.421875e-4 Z m 0,0"
         style="fill:#000000;fill-opacity:1;fill-rule:nonzero;stroke:none"
         aria-label="f"
         transform="matrix(1.3333333,0,0,1.3333333,374.08,284.34667)"
         clip-path="url(#clipPath175)" />
      <path
         id="path176"
         d="m 5.6262891,-4.3469141 c -0.6796875,0 -1.2978516,-0.1640625 -1.8515625,-0.4921875 -0.5566407,-0.3339843 -1.0019532,-0.7851562 -1.3359375,-1.3476562 -0.328125,-0.5625 -0.4921875,-1.1835938 -0.4921875,-1.8632813 0,-0.6796875 0.1640625,-1.2949218 0.4921875,-1.8515625 0.3339843,-0.5537114 0.7792968,-0.9960934 1.3359375,-1.3242184 0.5537109,-0.328125 1.171875,-0.492188 1.8515625,-0.492188 0.6855468,0 1.3066406,0.164063 1.8632812,0.492188 0.5625,0.328125 1.0078125,0.770507 1.3359375,1.3242184 0.3339844,0.5566407 0.5039063,1.171875 0.5039063,1.8515625 0,0.6796875 -0.1699219,1.3007813 -0.5039063,1.8632813 -0.328125,0.5625 -0.7734375,1.0136719 -1.3359375,1.3476562 -0.5566406,0.328125 -1.1777344,0.4921875 -1.8632812,0.4921875 z m 0,-1.2304687 c 0.4599609,0 0.8789062,-0.1083985 1.2539062,-0.328125 0.375,-0.225586 0.6708985,-0.5273438 0.890625,-0.9023438 0.225586,-0.375 0.3398438,-0.7880859 0.3398438,-1.2421875 0,-0.4599609 -0.1142578,-0.8730468 -0.3398438,-1.2421875 -0.2197265,-0.3662109 -0.515625,-0.6591797 -0.890625,-0.8789064 -0.375,-0.216797 -0.7939453,-0.328125 -1.2539062,-0.328125 -0.4453125,0 -0.8554688,0.111328 -1.2304688,0.328125 -0.3691406,0.2197267 -0.6621094,0.5126955 -0.8789062,0.8789064 -0.2197266,0.3691407 -0.328125,0.7822266 -0.328125,1.2421875 0,0.4541016 0.1083984,0.8671875 0.328125,1.2421875 0.2167968,0.375 0.5097656,0.6767578 0.8789062,0.9023438 0.375,0.2197265 0.7851563,0.328125 1.2304688,0.328125 z m 0,0"
         style="fill:#000000;fill-opacity:1;fill-rule:nonzero;stroke:none"
         aria-label=" ◦"
         transform="matrix(1.3333333,0,0,1.3333333,389.76,284.34667)"
         clip-path="url(#clipPath177)" />
      <path
         id="path178"
         d="M 0.85488281,7.421875e-4 2.9525391,-9.8312891 H 1.0658203 l 0.328125,-1.5820309 h 1.8867188 l 0.1289062,-0.667969 c 0.131836,-0.632813 0.2871094,-1.177734 0.46875,-1.640625 0.178711,-0.46875 0.413086,-0.849609 0.703125,-1.148438 0.2958985,-0.304687 0.6796875,-0.530273 1.1484375,-0.679687 0.4746094,-0.146484 1.0722656,-0.222656 1.7929688,-0.222656 h 1.3007812 l -0.3398437,1.535156 H 7.4173828 c -0.6884765,0 -1.1689453,0.196289 -1.4414062,0.585937 -0.2753907,0.383789 -0.4863282,0.931641 -0.6328125,1.640625 l -0.1289063,0.597657 h 2.6601563 l -0.328125,1.5820309 H 4.9095703 L 2.8236328,7.421875e-4 Z m 0,0"
         style="fill:#000000;fill-opacity:1;fill-rule:nonzero;stroke:none"
         aria-label=" f"
         transform="matrix(1.3333333,0,0,1.3333333,411.2,284.34667)"
         clip-path="url(#clipPath179)" />
      <path
         id="path180"
         d="m 0.87925781,-4.6527734 v -1.125 H 7.6292578 v 1.125 z M 12.715195,-4.296875e-4 V -8.5433984 c -0.140625,0.196289 -0.339843,0.383789 -0.597656,0.5625 -0.257812,0.1816406 -0.5625,0.3398437 -0.914062,0.4804687 -0.351563,0.140625 -0.747071,0.2431641 -1.183594,0.3046875 v -1.2421875 c 0.427734,-0.070312 0.826172,-0.1992187 1.195312,-0.3867187 0.375,-0.1933594 0.703125,-0.4160157 0.984375,-0.6679688 0.28125,-0.2490234 0.503907,-0.4863281 0.667969,-0.7148438 H 14.07457 V -4.296875e-4 Z m 0,0"
         style="fill:#000000;fill-opacity:1;fill-rule:nonzero;stroke:none"
         aria-label="−1 "
         transform="matrix(1.3333333,0,0,1.3333333,420.48,274.74667)"
         clip-path="url(#clipPath181)" />
      <path
         id="path182"
         d="M 1.7109766,-5.0383203 V -6.7609766 H 11.847695 v 1.7226563 z m 0,-3.9257813 V -10.66332 H 11.847695 v 1.6992184 z M 18.55375,7.421875e-4 21.893594,-15.772695 h 2.109375 L 20.639688,7.421875e-4 Z m 0,0"
         style="fill:#000000;fill-opacity:1;fill-rule:nonzero;stroke:none"
         aria-label="= I"
         transform="matrix(1.3333333,0,0,1.3333333,447.38667,284.34667)"
         clip-path="url(#clipPath183)" />
      <path
         id="path184"
         d="M -0.73824219,6.25e-4 5.4258203,-10.487656 H 6.9023828 L 8.5547266,6.25e-4 H 7.1367578 L 6.7851953,-2.9407812 H 2.4258203 L 0.76175781,6.25e-4 Z M 3.0586328,-4.1126562 h 3.5625 L 5.8945703,-9.093125 Z m 0,0"
         style="fill:#000000;fill-opacity:1;fill-rule:nonzero;stroke:none"
         aria-label="A"
         transform="matrix(1.3333333,0,0,1.3333333,479.38667,292.18667)"
         clip-path="url(#clipPath185)" />
    </g>
    <g
       id="g185">
      <path
         id="path186"
         d="M 0.85511719,8.59375e-4 2.9527734,-9.8311719 H 1.0660547 l 0.328125,-1.5820311 h 1.8867187 l 0.1289063,-0.667969 c 0.1318359,-0.632812 0.2871094,-1.177734 0.46875,-1.640625 0.1787109,-0.46875 0.4130859,-0.849609 0.703125,-1.148437 0.2958984,-0.304688 0.6796875,-0.530274 1.1484375,-0.679688 0.4746094,-0.146484 1.0722656,-0.222656 1.7929687,-0.222656 h 1.3007813 l -0.3398438,1.535156 H 7.4176172 c -0.6884766,0 -1.1689453,0.196289 -1.4414063,0.585938 -0.2753906,0.383789 -0.4863281,0.93164 -0.6328125,1.640625 l -0.1289062,0.597656 h 2.6601562 l -0.328125,1.5820311 H 4.9098047 L 2.8238672,8.59375e-4 Z m 0,0"
         style="fill:#000000;fill-opacity:1;fill-rule:nonzero;stroke:none"
         aria-label="f"
         transform="matrix(1.3333333,0,0,1.3333333,383.52,368.50667)"
         clip-path="url(#clipPath187)" />
      <path
         id="path188"
         d="m 5.6244141,-4.3467969 c -0.6796875,0 -1.2978516,-0.1640625 -1.8515625,-0.4921875 -0.5566407,-0.3339843 -1.0019532,-0.7851562 -1.3359375,-1.3476562 -0.328125,-0.5625 -0.4921875,-1.1835938 -0.4921875,-1.8632813 0,-0.6796875 0.1640625,-1.2949218 0.4921875,-1.8515625 0.3339843,-0.5537106 0.7792968,-0.9960936 1.3359375,-1.3242186 0.5537109,-0.328125 1.171875,-0.492188 1.8515625,-0.492188 0.6855468,0 1.3066406,0.164063 1.8632812,0.492188 0.5625,0.328125 1.0078125,0.770508 1.3359375,1.3242186 0.3339844,0.5566407 0.5039063,1.171875 0.5039063,1.8515625 0,0.6796875 -0.1699219,1.3007813 -0.5039063,1.8632813 -0.328125,0.5625 -0.7734375,1.0136719 -1.3359375,1.3476562 -0.5566406,0.328125 -1.1777344,0.4921875 -1.8632812,0.4921875 z m 0,-1.2304687 c 0.4599609,0 0.8789062,-0.1083985 1.2539062,-0.328125 0.375,-0.225586 0.6708985,-0.5273438 0.890625,-0.9023438 0.225586,-0.375 0.3398438,-0.7880859 0.3398438,-1.2421875 0,-0.4599609 -0.1142578,-0.8730468 -0.3398438,-1.2421875 -0.2197265,-0.3662109 -0.515625,-0.6591797 -0.890625,-0.8789066 -0.375,-0.216796 -0.7939453,-0.328125 -1.2539062,-0.328125 -0.4453125,0 -0.8554688,0.111329 -1.2304688,0.328125 -0.3691406,0.2197269 -0.6621094,0.5126957 -0.8789062,0.8789066 -0.2197266,0.3691407 -0.328125,0.7822266 -0.328125,1.2421875 0,0.4541016 0.1083984,0.8671875 0.328125,1.2421875 0.2167968,0.375 0.5097656,0.6767578 0.8789062,0.9023438 0.375,0.2197265 0.7851563,0.328125 1.2304688,0.328125 z m 0,0"
         style="fill:#000000;fill-opacity:1;fill-rule:nonzero;stroke:none"
         aria-label=" ◦"
         transform="matrix(1.3333333,0,0,1.3333333,399.2,368.50667)"
         clip-path="url(#clipPath189)" />
      <path
         id="path190"
         d="M 0.86765625,8.59375e-4 4.2075,-15.772578 H 6.316875 L 2.9535938,8.59375e-4 Z m 0,0"
         style="fill:#000000;fill-opacity:1;fill-rule:nonzero;stroke:none"
         aria-label=" I"
         transform="matrix(1.3333333,0,0,1.3333333,420.64,368.50667)"
         clip-path="url(#clipPath191)" />
      <path
         id="path192"
         d="M -0.73757812,7.421875e-4 5.4264844,-10.487539 H 6.9030469 L 8.5553906,7.421875e-4 H 7.1374219 L 6.7858594,-2.9406641 H 2.4264844 L 0.76242188,7.421875e-4 Z M 3.0592969,-4.1125391 h 3.5625 L 5.8952344,-9.0930078 Z m 0,0"
         style="fill:#000000;fill-opacity:1;fill-rule:nonzero;stroke:none"
         aria-label="A"
         transform="matrix(1.3333333,0,0,1.3333333,428.96,376.34667)"
         clip-path="url(#clipPath193)" />
      <path
         id="path194"
         d="M 1.7123438,-5.0382031 V -6.7608594 H 11.849063 v 1.7226563 z m 0,-3.9257813 V -10.663203 H 11.849063 v 1.6992186 z M 18.543398,8.59375e-4 20.641055,-9.8311719 h -1.886719 l 0.328125,-1.5820311 h 1.886719 l 0.128906,-0.667969 c 0.131836,-0.632812 0.287109,-1.177734 0.46875,-1.640625 0.178711,-0.46875 0.413086,-0.849609 0.703125,-1.148437 0.295898,-0.304688 0.679687,-0.530274 1.148437,-0.679688 0.47461,-0.146484 1.072266,-0.222656 1.792969,-0.222656 h 1.300781 l -0.339843,1.535156 h -1.066407 c -0.688476,0 -1.168945,0.196289 -1.441406,0.585938 -0.27539,0.383789 -0.486328,0.93164 -0.632812,1.640625 l -0.128907,0.597656 h 2.660157 l -0.328125,1.5820311 H 22.598086 L 20.512148,8.59375e-4 Z m 0,0"
         style="fill:#000000;fill-opacity:1;fill-rule:nonzero;stroke:none"
         aria-label=" = f"
         transform="matrix(1.3333333,0,0,1.3333333,445.92,368.50667)"
         clip-path="url(#clipPath195)" />
    </g>
    <g
       id="g195">
      <path
         id="path196"
         d="M 0.86683594,-0.00105469 4.2066797,-15.774492 h 2.109375 L 2.9527734,-0.00105469 Z m 0,0"
         style="fill:#000000;fill-opacity:1;fill-rule:nonzero;stroke:none"
         aria-label="I"
         transform="matrix(1.3333333,0,0,1.3333333,383.52,410.56)"
         clip-path="url(#clipPath197)" />
      <path
         id="path198"
         d="M -0.73839844,-0.00117188 5.4256641,-10.489453 H 6.9022266 L 8.5545703,-0.00117188 H 7.1366016 L 6.7850391,-2.9425781 H 2.4256641 L 0.76160156,-0.00117188 Z M 3.0584766,-4.1144531 h 3.5625 L 5.8944141,-9.0949219 Z m 0,0"
         style="fill:#000000;fill-opacity:1;fill-rule:nonzero;stroke:none"
         aria-label="A "
         transform="matrix(1.3333333,0,0,1.3333333,391.84,418.4)"
         clip-path="url(#clipPath199)" />
      <path
         id="path200"
         d="m 5.6254688,-4.3487109 c -0.6796875,0 -1.2978516,-0.1640625 -1.8515625,-0.4921875 -0.5566407,-0.3339844 -1.0019532,-0.7851563 -1.3359375,-1.3476563 -0.328125,-0.5625 -0.4921875,-1.1835937 -0.4921875,-1.8632812 0,-0.6796875 0.1640625,-1.2949219 0.4921875,-1.8515625 0.3339843,-0.5537106 0.7792968,-0.9960936 1.3359375,-1.3242186 0.5537109,-0.328125 1.171875,-0.492188 1.8515625,-0.492188 0.6855468,0 1.3066406,0.164063 1.8632812,0.492188 0.5625,0.328125 1.0078125,0.770508 1.3359375,1.3242186 0.3339844,0.5566406 0.5039063,1.171875 0.5039063,1.8515625 0,0.6796875 -0.1699219,1.3007812 -0.5039063,1.8632812 -0.328125,0.5625 -0.7734375,1.0136719 -1.3359375,1.3476563 -0.5566406,0.328125 -1.1777344,0.4921875 -1.8632812,0.4921875 z m 0,-1.2304688 c 0.4599609,0 0.8789062,-0.1083984 1.2539062,-0.328125 0.375,-0.2255859 0.6708984,-0.5273437 0.890625,-0.9023437 0.2255859,-0.375 0.3398438,-0.788086 0.3398438,-1.2421875 0,-0.459961 -0.1142579,-0.8730469 -0.3398438,-1.2421875 -0.2197266,-0.366211 -0.515625,-0.6591797 -0.890625,-0.8789066 -0.375,-0.216797 -0.7939453,-0.328125 -1.2539062,-0.328125 -0.4453125,0 -0.8554688,0.111328 -1.2304688,0.328125 -0.3691406,0.2197269 -0.6621094,0.5126956 -0.8789062,0.8789066 -0.2197266,0.3691406 -0.328125,0.7822265 -0.328125,1.2421875 0,0.4541015 0.1083984,0.8671875 0.328125,1.2421875 0.2167968,0.375 0.5097656,0.6767578 0.8789062,0.9023437 0.375,0.2197266 0.7851563,0.328125 1.2304688,0.328125 z m 0,0"
         style="fill:#000000;fill-opacity:1;fill-rule:nonzero;stroke:none"
         aria-label="◦"
         transform="matrix(1.3333333,0,0,1.3333333,408.64,410.56)"
         clip-path="url(#clipPath201)" />
      <path
         id="path202"
         d="M 0.85417969,-0.00105469 2.9518359,-9.8330859 H 1.0651172 l 0.328125,-1.5820311 h 1.8867187 l 0.1289063,-0.667969 c 0.1318359,-0.632812 0.2871094,-1.177734 0.46875,-1.640625 0.1787109,-0.46875 0.4130859,-0.849609 0.703125,-1.148437 0.2958984,-0.304688 0.6796875,-0.530274 1.1484375,-0.679688 0.4746094,-0.146484 1.0722656,-0.222656 1.7929687,-0.222656 h 1.3007813 l -0.3398438,1.535156 H 7.4166797 c -0.6884766,0 -1.1689453,0.196289 -1.4414063,0.585938 -0.2753906,0.383789 -0.4863281,0.93164 -0.6328125,1.640625 l -0.1289062,0.597656 h 2.6601562 l -0.328125,1.5820311 H 4.9088672 l -2.0859375,9.83203121 z m 0,0"
         style="fill:#000000;fill-opacity:1;fill-rule:nonzero;stroke:none"
         aria-label=" f"
         transform="matrix(1.3333333,0,0,1.3333333,430.24,410.56)"
         clip-path="url(#clipPath203)" />
      <path
         id="path204"
         d="M 1.7109375,-5.0401172 V -6.7627734 H 11.847656 v 1.7226562 z m 0,-3.9257812 V -10.665117 H 11.847656 v 1.6992186 z m 16.8339845,8.96484371 2.097656,-9.83203121 h -1.886719 l 0.328125,-1.5820311 h 1.886719 l 0.128906,-0.667969 c 0.131836,-0.632812 0.28711,-1.177734 0.46875,-1.640625 0.178711,-0.46875 0.413086,-0.849609 0.703125,-1.148437 0.295899,-0.304688 0.679688,-0.530274 1.148438,-0.679688 0.474609,-0.146484 1.072265,-0.222656 1.792969,-0.222656 h 1.300781 l -0.339844,1.535156 h -1.066406 c -0.688477,0 -1.168945,0.196289 -1.441406,0.585938 -0.275391,0.383789 -0.486329,0.93164 -0.632813,1.640625 l -0.128906,0.597656 h 2.660156 l -0.328125,1.5820311 h -2.636719 l -2.085937,9.83203121 z m 0,0"
         style="fill:#000000;fill-opacity:1;fill-rule:nonzero;stroke:none"
         aria-label="  = f"
         transform="matrix(1.3333333,0,0,1.3333333,448,410.56)"
         clip-path="url(#clipPath205)" />
    </g>
    <g
       id="g205">
      <path
         id="path206"
         d="M 0.8540625,3.90625e-4 2.9517187,-9.8433594 H 1.065 L 1.393125,-11.425391 H 3.2798437 L 3.40875,-12.093359 c 0.1318359,-0.632813 0.2871094,-1.177735 0.46875,-1.640625 0.1787109,-0.46875 0.4130859,-0.84961 0.703125,-1.148438 0.2958984,-0.304687 0.6826172,-0.530273 1.1601562,-0.679687 0.4746094,-0.146485 1.0722657,-0.222657 1.7929688,-0.222657 h 1.3007812 l -0.3398437,1.535157 H 7.4282812 c -0.6884765,0 -1.171875,0.196289 -1.453125,0.585937 -0.2753906,0.383789 -0.4863281,0.931641 -0.6328125,1.640625 l -0.1289062,0.597656 h 2.671875 l -0.328125,1.5820316 H 4.90875 L 2.8228125,3.90625e-4 Z m 0,0"
         style="fill:#000000;fill-opacity:1;fill-rule:nonzero;stroke:none"
         aria-label="f"
         transform="matrix(1.3333333,0,0,1.3333333,374.08,327.86667)"
         clip-path="url(#clipPath207)" />
      <path
         id="path208"
         d="m 0.8784375,-4.6648437 v -1.125 h 6.7617188 v 1.125 z M 12.714375,-7.8125e-4 V -8.5554687 c -0.140625,0.196289 -0.339844,0.383789 -0.597656,0.5625 -0.257813,0.1816406 -0.5625,0.3398437 -0.914063,0.4804687 -0.351562,0.140625 -0.74707,0.2431641 -1.183593,0.3046875 V -8.45 c 0.427734,-0.070312 0.826171,-0.1992187 1.195312,-0.3867187 0.375,-0.1933594 0.703125,-0.4160157 0.984375,-0.6679688 0.287109,-0.2490234 0.515625,-0.4863281 0.679688,-0.7148435 h 1.207031 V -7.8125e-4 Z m 0,0"
         style="fill:#000000;fill-opacity:1;fill-rule:nonzero;stroke:none"
         aria-label="−1"
         transform="matrix(1.3333333,0,0,1.3333333,383.36,318.26667)"
         clip-path="url(#clipPath209)" />
      <path
         id="path210"
         d="m 5.6253516,-4.3472656 c -0.6796875,0 -1.2978516,-0.1640625 -1.8515625,-0.4921875 -0.5566407,-0.3339844 -1.0019532,-0.7851563 -1.3359375,-1.3476563 -0.328125,-0.5683594 -0.4921875,-1.1953125 -0.4921875,-1.875 0,-0.6796875 0.1640625,-1.2949219 0.4921875,-1.8515625 0.3339843,-0.5537111 0.7792968,-0.9960941 1.3359375,-1.3242191 0.5537109,-0.328125 1.171875,-0.492187 1.8515625,-0.492187 0.6943359,0 1.3183593,0.164062 1.875,0.492187 0.5625,0.328125 1.0078125,0.770508 1.3359375,1.3242191 0.3339843,0.5566406 0.5039062,1.171875 0.5039062,1.8515625 0,0.6796875 -0.1699219,1.3066406 -0.5039062,1.875 -0.328125,0.5625 -0.7734375,1.0136719 -1.3359375,1.3476563 -0.5566407,0.328125 -1.1806641,0.4921875 -1.875,0.4921875 z m 0,-1.2304688 c 0.46875,0 0.890625,-0.1113281 1.265625,-0.3398437 0.375,-0.225586 0.6708984,-0.5273438 0.890625,-0.9023438 0.2255859,-0.375 0.3398437,-0.7880859 0.3398437,-1.2421875 0,-0.4599609 -0.1142578,-0.8730469 -0.3398437,-1.2421875 -0.2197266,-0.3662109 -0.515625,-0.6591797 -0.890625,-0.8789061 -0.375,-0.216797 -0.796875,-0.328125 -1.265625,-0.328125 -0.4453125,0 -0.8554688,0.111328 -1.2304688,0.328125 -0.3691406,0.2197264 -0.6621094,0.5126952 -0.8789062,0.8789061 -0.2197266,0.3691406 -0.328125,0.7822266 -0.328125,1.2421875 0,0.4541016 0.1083984,0.8671875 0.328125,1.2421875 0.2167968,0.375 0.5097656,0.6767578 0.8789062,0.9023438 0.375,0.2285156 0.7851563,0.3398437 1.2304688,0.3398437 z m 0,0"
         style="fill:#000000;fill-opacity:1;fill-rule:nonzero;stroke:none"
         aria-label=" ◦"
         transform="matrix(1.3333333,0,0,1.3333333,412.48,327.86667)"
         clip-path="url(#clipPath211)" />
      <path
         id="path212"
         d="M 0.856875,3.90625e-4 2.9545313,-9.8433594 H 1.0678125 l 0.328125,-1.5820316 h 1.8867188 l 0.1289062,-0.667968 c 0.1318359,-0.632813 0.2871094,-1.177735 0.46875,-1.640625 0.1787109,-0.46875 0.4130859,-0.84961 0.703125,-1.148438 0.2958984,-0.304687 0.6826172,-0.530273 1.1601563,-0.679687 0.4746093,-0.146485 1.0722656,-0.222657 1.7929687,-0.222657 H 8.8373438 L 8.4975,-14.249609 H 7.4310938 c -0.6884766,0 -1.171875,0.196289 -1.453125,0.585937 -0.2753907,0.383789 -0.4863282,0.931641 -0.6328125,1.640625 L 5.21625,-11.425391 H 7.888125 L 7.56,-9.8433594 H 4.9115625 L 2.825625,3.90625e-4 Z m 0,0"
         style="fill:#000000;fill-opacity:1;fill-rule:nonzero;stroke:none"
         aria-label=" f"
         transform="matrix(1.3333333,0,0,1.3333333,433.92,327.86667)"
         clip-path="url(#clipPath213)" />
      <path
         id="path214"
         d="m 1.7109766,-5.0386719 v -1.734375 H 11.859414 v 1.734375 z m 0,-3.9375 V -10.675391 H 11.859414 v 1.6992191 z M 18.574258,3.90625e-4 21.914102,-15.784766 h 2.121093 l -3.375,15.785156625 z m 0,0"
         style="fill:#000000;fill-opacity:1;fill-rule:nonzero;stroke:none"
         aria-label=" = I"
         transform="matrix(1.3333333,0,0,1.3333333,447.38667,327.86667)"
         clip-path="url(#clipPath215)" />
      <path
         id="path216"
         d="M -0.73824219,-4.296875e-4 5.4258203,-10.488711 H 6.9023828 L 8.5547266,-4.296875e-4 H 7.1367578 L 6.7851953,-2.9418359 H 2.4258203 L 0.76175781,-4.296875e-4 Z M 3.0586328,-4.1137109 h 3.5625 L 5.8945703,-9.0941797 Z m 0,0"
         style="fill:#000000;fill-opacity:1;fill-rule:nonzero;stroke:none"
         aria-label="A"
         transform="matrix(1.3333333,0,0,1.3333333,479.38667,335.74667)"
         clip-path="url(#clipPath217)" />
    </g>
    <g
       id="g217">
      <path
         id="path218"
         d="m 4.0078125,0.21167969 c -0.7734375,0 -1.4296875,-0.15234375 -1.96875,-0.45703125 C 1.5058594,-0.55003906 1.1279297,-0.98363281 0.90234375,-1.5461328 0.68261719,-2.1086328 0.64746094,-2.7707422 0.796875,-3.5383203 0.9375,-4.2414453 1.2333984,-4.8039453 1.6875,-5.2258203 2.1386719,-5.6535547 2.7304688,-5.97875 3.4570313,-6.1984766 4.1894531,-6.4152734 5.0449219,-6.5646875 6.0234375,-6.6437891 7.0078125,-6.7199609 8.0917969,-6.7639063 9.28125,-6.7726953 L 9.421875,-7.4875391 C 9.5625,-8.1496484 9.5507813,-8.6740625 9.3867188,-9.0578516 9.2285156,-9.4475 8.9677734,-9.7199609 8.6015625,-9.8781641 8.2324219,-10.042227 7.7988281,-10.124258 7.3007812,-10.124258 c -0.8378906,0 -1.546875,0.1962892 -2.1328125,0.5859377 -0.5800781,0.383789 -0.9492187,1.0048828 -1.1132812,1.8632812 H 2.15625 c 0.2636719,-1.3828125 0.8496094,-2.3818359 1.7578125,-2.9999999 0.9140625,-0.615234 2.0771484,-0.925781 3.4921875,-0.925781 0.6328125,0 1.21875,0.08203 1.7578125,0.246093 0.5449219,0.164063 1.0078125,0.421875 1.3828125,0.773438 0.375,0.351562 0.632813,0.8144531 0.773438,1.3828124 0.146484,0.5625 0.134765,1.2509766 -0.03516,2.0625 L 9.7851563,7.421875e-4 H 7.9570312 L 8.2382813,-1.6633203 c -0.5478516,0.524414 -1.1572266,0.96972655 -1.8281251,1.33593749 -0.665039,0.35742187 -1.4648437,0.5390625 -2.4023437,0.5390625 z M 4.4882812,-1.2883203 c 0.5390625,0 1.0458985,-0.084961 1.5234375,-0.2578125 0.4833985,-0.178711 0.9375,-0.4160156 1.359375,-0.7148438 C 7.7929687,-2.556875 8.1738281,-2.885 8.5195313,-3.2453516 l 0.4921875,-2.3085937 c -2.1035157,0.023437 -3.6503907,0.1875 -4.6406251,0.4921875 -0.993164,0.3046875 -1.5703124,0.8671875 -1.7343749,1.6875 -0.1171875,0.5947265 -0.020508,1.0898437 0.2929687,1.4882812 0.3105469,0.3984375 0.8320313,0.5976563 1.5585937,0.5976563 z m 0,0"
         style="fill:#000000;fill-opacity:1;fill-rule:nonzero;stroke:none"
         aria-label="a"
         transform="matrix(1.3333333,0,0,1.3333333,648,284.34667)"
         clip-path="url(#clipPath219)" />
      <path
         id="path220"
         d="m 3.4460156,-4.6398828 c -0.4394531,0 -0.8027343,-0.140625 -1.0898437,-0.421875 -0.2900391,-0.2871094 -0.4335938,-0.6386719 -0.4335938,-1.0546875 0,-0.4277344 0.1435547,-0.7792969 0.4335938,-1.0546875 0.2871094,-0.28125 0.6503906,-0.421875 1.0898437,-0.421875 0.4277344,0 0.7851563,0.140625 1.0664063,0.421875 0.28125,0.2753906 0.421875,0.6269531 0.421875,1.0546875 0,0.4160156 -0.140625,0.7675781 -0.421875,1.0546875 -0.28125,0.28125 -0.6386719,0.421875 -1.0664063,0.421875 z m 0,0"
         style="fill:#000000;fill-opacity:1;fill-rule:nonzero;stroke:none"
         aria-label="·"
         transform="matrix(1.3333333,0,0,1.3333333,664.96,284.34667)"
         clip-path="url(#clipPath221)" />
      <path
         id="path222"
         d="m 4.0064063,0.21167969 c -0.7734375,0 -1.4296875,-0.15234375 -1.96875,-0.45703125 -0.5332032,-0.3046875 -0.9111329,-0.73828125 -1.1367188,-1.30078124 -0.21972656,-0.5625 -0.25488281,-1.2246094 -0.10546875,-1.9921875 0.140625,-0.703125 0.43652345,-1.265625 0.89062505,-1.6875 0.4511718,-0.4277344 1.0429687,-0.7529297 1.7695312,-0.9726563 0.7324219,-0.2167968 1.5878906,-0.3662109 2.5664063,-0.4453125 0.984375,-0.076172 2.0683593,-0.1201172 3.2578125,-0.1289062 l 0.140625,-0.7148438 C 9.5610938,-8.1496484 9.549375,-8.6740625 9.3853125,-9.0578516 9.2271094,-9.4475 8.9663672,-9.7199609 8.6001563,-9.8781641 8.2310156,-10.042227 7.7974219,-10.124258 7.299375,-10.124258 c -0.8378906,0 -1.546875,0.1962892 -2.1328125,0.5859377 -0.5800781,0.383789 -0.9492187,1.0048828 -1.1132812,1.8632812 H 2.1548438 c 0.2636718,-1.3828125 0.8496093,-2.3818359 1.7578125,-2.9999999 0.9140625,-0.615234 2.0771484,-0.925781 3.4921875,-0.925781 0.6328125,0 1.21875,0.08203 1.7578125,0.246093 0.5449218,0.164063 1.0078127,0.421875 1.3828127,0.773438 0.375,0.351562 0.632812,0.8144531 0.773437,1.3828124 0.146485,0.5625 0.134766,1.2509766 -0.03516,2.0625 l -1.5,7.1367187875 H 7.955625 L 8.236875,-1.6633203 C 7.6890234,-1.1389063 7.0796484,-0.69359375 6.40875,-0.32738281 5.7437109,0.03003906 4.9439063,0.21167969 4.0064063,0.21167969 Z M 4.486875,-1.2883203 c 0.5390625,0 1.0458984,-0.084961 1.5234375,-0.2578125 0.4833984,-0.178711 0.9375,-0.4160156 1.359375,-0.7148438 C 7.7915625,-2.556875 8.1724219,-2.885 8.518125,-3.2453516 l 0.4921875,-2.3085937 c -2.1035156,0.023437 -3.6503906,0.1875 -4.640625,0.4921875 -0.9931641,0.3046875 -1.5703125,0.8671875 -1.734375,1.6875 -0.1171875,0.5947265 -0.020508,1.0898437 0.2929688,1.4882812 0.3105468,0.3984375 0.8320312,0.5976563 1.5585937,0.5976563 z m 0,0"
         style="fill:#000000;fill-opacity:1;fill-rule:nonzero;stroke:none"
         aria-label="a"
         transform="matrix(1.3333333,0,0,1.3333333,674.08,284.34667)"
         clip-path="url(#clipPath223)" />
      <path
         id="path224"
         d="m 0.87820312,-4.6527734 v -1.125 H 7.6282031 v 1.125 z m 0,0"
         style="fill:#000000;fill-opacity:1;fill-rule:nonzero;stroke:none"
         aria-label="−"
         transform="matrix(1.3333333,0,0,1.3333333,691.04,274.74667)"
         clip-path="url(#clipPath225)" />
      <path
         id="path226"
         d="M 4.1941406,-4.296875e-4 V -8.5433984 c -0.140625,0.196289 -0.3398437,0.383789 -0.5976562,0.5625 -0.2578125,0.1816406 -0.5625,0.3398437 -0.9140625,0.4804687 -0.3515625,0.140625 -0.7470703,0.2431641 -1.1835938,0.3046875 V -8.4379297 C 1.9265625,-8.5082422 2.325,-8.6371484 2.6941406,-8.8246484 c 0.375,-0.1933594 0.703125,-0.4160157 0.984375,-0.6679688 0.28125,-0.2490234 0.5039063,-0.4863281 0.6679688,-0.7148438 H 5.5535156 V -4.296875e-4 Z m 0,0"
         style="fill:#000000;fill-opacity:1;fill-rule:nonzero;stroke:none"
         aria-label="1 "
         transform="matrix(1.3333333,0,0,1.3333333,702.4,274.74667)"
         clip-path="url(#clipPath227)" />
      <path
         id="path228"
         d="M 1.7096484,-5.0383203 V -6.7609766 H 11.846367 v 1.7226563 z m 0,-3.9257813 V -10.66332 H 11.846367 v 1.6992184 z m 0,0"
         style="fill:#000000;fill-opacity:1;fill-rule:nonzero;stroke:none"
         aria-label="= "
         transform="matrix(1.3333333,0,0,1.3333333,718.24,284.34667)"
         clip-path="url(#clipPath229)" />
      <path
         id="path230"
         d="M 6.3059766,7.421875e-4 V -12.843008 c -0.2109375,0.290039 -0.5126953,0.571289 -0.9023438,0.84375 -0.383789,0.266602 -0.8408203,0.503906 -1.3710937,0.714844 -0.5332032,0.210937 -1.125,0.363281 -1.78125,0.457031 v -1.851562 c 0.6474609,-0.108399 1.2480468,-0.307618 1.8046875,-0.597657 0.5625,-0.287109 1.0546875,-0.621093 1.4765625,-0.996093 0.4277343,-0.375 0.7646484,-0.732422 1.0078125,-1.078125 H 8.3567578 V 7.421875e-4 Z m 0,0"
         style="fill:#000000;fill-opacity:1;fill-rule:nonzero;stroke:none"
         aria-label="1"
         transform="matrix(1.3333333,0,0,1.3333333,741.76,284.34667)"
         clip-path="url(#clipPath231)" />
    </g>
    <g
       id="g231">
      <path
         id="path232"
         d="m 4.0063672,0.2115625 c -0.7734375,0 -1.4296875,-0.15234375 -1.96875,-0.45703125 C 1.5044141,-0.55015625 1.1264844,-0.98375 0.90089844,-1.54625 0.68117188,-2.10875 0.64601563,-2.7708594 0.79542969,-3.5384375 c 0.140625,-0.703125 0.43652341,-1.265625 0.89062501,-1.6875 0.4511719,-0.4277344 1.0429687,-0.7529297 1.7695312,-0.9726562 0.7324219,-0.2167969 1.5878907,-0.366211 2.5664063,-0.4453125 0.984375,-0.076172 2.0683594,-0.1201172 3.2578125,-0.1289063 l 0.140625,-0.7148437 C 9.5610547,-8.1497656 9.5493359,-8.6741797 9.3852734,-9.0579687 9.2270703,-9.4476172 8.9663281,-9.7200781 8.6001172,-9.8782812 8.2309766,-10.042344 7.7973828,-10.124375 7.2993359,-10.124375 c -0.8378906,0 -1.546875,0.1962891 -2.1328125,0.5859375 -0.5800781,0.3837891 -0.9492187,1.0048828 -1.1132812,1.8632813 H 2.1548047 c 0.2636719,-1.3828125 0.8496094,-2.3818358 1.7578125,-2.9999998 0.9140625,-0.615235 2.0771484,-0.925781 3.4921875,-0.925781 0.6328125,0 1.21875,0.08203 1.7578125,0.246093 0.5449219,0.164063 1.0078128,0.421875 1.3828128,0.773438 0.375,0.351562 0.632812,0.8144529 0.773437,1.3828123 0.146485,0.5625 0.134766,1.2509765 -0.03516,2.0625 L 9.7837109,6.25e-4 h -1.828125 l 0.28125,-1.6640625 C 7.6889844,-1.1390234 7.0796094,-0.69371094 6.4087109,-0.3275 5.7436719,0.02992188 4.9438672,0.2115625 4.0063672,0.2115625 Z m 0.4804687,-1.5 c 0.5390625,0 1.0458985,-0.084961 1.5234375,-0.2578125 0.4833985,-0.1787109 0.9375,-0.4160156 1.359375,-0.7148437 0.421875,-0.2958985 0.8027344,-0.6240235 1.1484375,-0.984375 l 0.4921875,-2.3085938 c -2.1035156,0.023437 -3.6503906,0.1875 -4.640625,0.4921875 -0.993164,0.3046875 -1.5703125,0.8671875 -1.734375,1.6875 -0.1171875,0.5947266 -0.020508,1.0898438 0.2929688,1.4882813 0.3105469,0.3984375 0.8320312,0.5976562 1.5585937,0.5976562 z m 0,0"
         style="fill:#000000;fill-opacity:1;fill-rule:nonzero;stroke:none"
         aria-label="a"
         transform="matrix(1.3333333,0,0,1.3333333,649.69333,329.18667)"
         clip-path="url(#clipPath233)" />
      <path
         id="path234"
         d="m 0.87816406,-4.6528906 v -1.125 H 7.6281641 v 1.125 z m 0,0"
         style="fill:#000000;fill-opacity:1;fill-rule:nonzero;stroke:none"
         aria-label="−"
         transform="matrix(1.3333333,0,0,1.3333333,666.65333,319.58667)"
         clip-path="url(#clipPath235)" />
      <path
         id="path236"
         d="M 4.1941016,-5.46875e-4 V -8.5435156 c -0.140625,0.196289 -0.3398438,0.383789 -0.5976563,0.5625 -0.2578125,0.1816406 -0.5625,0.3398437 -0.9140625,0.4804687 -0.3515625,0.140625 -0.7470703,0.2431641 -1.1835937,0.3046875 v -1.2421875 c 0.4277343,-0.070312 0.8261718,-0.1992187 1.1953125,-0.3867187 0.375,-0.1933594 0.703125,-0.4160157 0.984375,-0.6679688 0.28125,-0.2490234 0.5039062,-0.4863281 0.6679687,-0.7148436 H 5.5534766 V -5.46875e-4 Z m 0,0"
         style="fill:#000000;fill-opacity:1;fill-rule:nonzero;stroke:none"
         aria-label="1"
         transform="matrix(1.3333333,0,0,1.3333333,678.01333,319.58667)"
         clip-path="url(#clipPath237)" />
      <path
         id="path238"
         d="M 3.4465625,-4.64 C 3.0071094,-4.64 2.6438281,-4.780625 2.3567188,-5.061875 2.0666797,-5.3489844 1.923125,-5.7005469 1.923125,-6.1165625 c 0,-0.4277344 0.1435547,-0.7792969 0.4335938,-1.0546875 0.2871093,-0.28125 0.6503906,-0.421875 1.0898437,-0.421875 0.4277344,0 0.7851563,0.140625 1.0664063,0.421875 0.28125,0.2753906 0.421875,0.6269531 0.421875,1.0546875 0,0.4160156 -0.140625,0.7675781 -0.421875,1.0546875 C 4.2317188,-4.780625 3.8742969,-4.64 3.4465625,-4.64 Z m 0,0"
         style="fill:#000000;fill-opacity:1;fill-rule:nonzero;stroke:none"
         aria-label="·"
         transform="matrix(1.3333333,0,0,1.3333333,689.37333,329.18667)"
         clip-path="url(#clipPath239)" />
      <path
         id="path240"
         d="m 4.0069531,0.2115625 c -0.7734375,0 -1.4296875,-0.15234375 -1.96875,-0.45703125 C 1.505,-0.55015625 1.1270703,-0.98375 0.90148437,-1.54625 0.68175781,-2.10875 0.64660156,-2.7708594 0.79601562,-3.5384375 c 0.140625,-0.703125 0.43652348,-1.265625 0.89062498,-1.6875 0.4511719,-0.4277344 1.0429688,-0.7529297 1.7695313,-0.9726562 0.7324218,-0.2167969 1.5878906,-0.366211 2.5664062,-0.4453125 0.984375,-0.076172 2.0683594,-0.1201172 3.2578125,-0.1289063 l 0.140625,-0.7148437 C 9.5616406,-8.1497656 9.5499219,-8.6741797 9.3858594,-9.0579687 9.2276562,-9.4476172 8.9669141,-9.7200781 8.6007031,-9.8782812 8.2315625,-10.042344 7.7979687,-10.124375 7.2999219,-10.124375 c -0.8378907,0 -1.546875,0.1962891 -2.1328125,0.5859375 -0.5800782,0.3837891 -0.9492188,1.0048828 -1.1132813,1.8632813 H 2.1553906 C 2.4190625,-9.0579687 3.005,-10.056992 3.9132031,-10.675156 c 0.9140625,-0.615235 2.0771485,-0.925781 3.4921875,-0.925781 0.6328125,0 1.21875,0.08203 1.7578125,0.246093 0.5449219,0.164063 1.0078129,0.421875 1.3828129,0.773438 0.375,0.351562 0.632812,0.8144529 0.773437,1.3828123 0.146484,0.5625 0.134766,1.2509765 -0.03516,2.0625 L 9.7842969,6.25e-4 h -1.828125 l 0.28125,-1.6640625 C 7.6895703,-1.1390234 7.0801953,-0.69371094 6.4092969,-0.3275 5.7442578,0.02992188 4.9444531,0.2115625 4.0069531,0.2115625 Z m 0.4804688,-1.5 c 0.5390625,0 1.0458984,-0.084961 1.5234375,-0.2578125 0.4833984,-0.1787109 0.9375,-0.4160156 1.359375,-0.7148437 0.421875,-0.2958985 0.8027343,-0.6240235 1.1484375,-0.984375 l 0.4921875,-2.3085938 c -2.1035157,0.023437 -3.6503907,0.1875 -4.640625,0.4921875 -0.9931641,0.3046875 -1.5703125,0.8671875 -1.734375,1.6875 -0.1171875,0.5947266 -0.020508,1.0898438 0.2929687,1.4882813 0.3105469,0.3984375 0.8320313,0.5976562 1.5585938,0.5976562 z m 0,0"
         style="fill:#000000;fill-opacity:1;fill-rule:nonzero;stroke:none"
         aria-label="a"
         transform="matrix(1.3333333,0,0,1.3333333,698.49333,329.18667)"
         clip-path="url(#clipPath241)" />
      <path
         id="path242"
         d="M 1.7111328,-5.0384375 V -6.7610937 H 11.847852 v 1.7226562 z m 0,-3.9257812 V -10.663437 H 11.847852 v 1.6992183 z m 0,0"
         style="fill:#000000;fill-opacity:1;fill-rule:nonzero;stroke:none"
         aria-label=" = "
         transform="matrix(1.3333333,0,0,1.3333333,719.93333,329.18667)"
         clip-path="url(#clipPath243)" />
      <path
         id="path244"
         d="m 6.3045312,6.25e-4 v -12.84375 c -0.2109375,0.290039 -0.5126953,0.571289 -0.9023437,0.84375 -0.3837891,0.266602 -0.8408203,0.503906 -1.3710938,0.714844 -0.5332031,0.210937 -1.125,0.363281 -1.78125,0.457031 v -1.851562 c 0.647461,-0.108399 1.2480469,-0.307618 1.8046875,-0.597657 0.5625,-0.287109 1.0546875,-0.621093 1.4765625,-0.996093 0.4277344,-0.375 0.7646485,-0.732422 1.0078125,-1.078125 H 8.3553125 V 6.25e-4 Z m 0,0"
         style="fill:#000000;fill-opacity:1;fill-rule:nonzero;stroke:none"
         aria-label="1"
         transform="matrix(1.3333333,0,0,1.3333333,743.45333,329.18667)"
         clip-path="url(#clipPath245)" />
    </g>
    <g
       id="g245">
      <path
         id="path246"
         d="m 4.0072656,0.21179688 c -0.7734375,0 -1.4296875,-0.15234375 -1.96875,-0.45703125 -0.5332031,-0.3046875 -0.9111328,-0.73828125 -1.13671872,-1.30078123 -0.21972657,-0.5625 -0.25488282,-1.2246094 -0.10546875,-1.9921875 0.140625,-0.703125 0.43652347,-1.265625 0.89062497,-1.6875 0.4511719,-0.4277344 1.0429688,-0.7529297 1.7695313,-0.9726563 0.7324219,-0.2167968 1.5878906,-0.3662109 2.5664062,-0.4453125 0.984375,-0.076172 2.0683594,-0.1201172 3.2578125,-0.1289062 l 0.140625,-0.7148438 C 9.5619531,-8.1495312 9.5502344,-8.6739453 9.3861719,-9.0577344 9.2279688,-9.4473828 8.9672266,-9.7198437 8.6010156,-9.8780469 8.231875,-10.042109 7.7982813,-10.124141 7.3002344,-10.124141 c -0.8378906,0 -1.546875,0.1962894 -2.1328125,0.5859379 -0.5800781,0.383789 -0.9492188,1.0048828 -1.1132813,1.8632812 H 2.1557031 c 0.2636719,-1.3828125 0.8496094,-2.3818361 1.7578125,-3.0000001 0.9140625,-0.615234 2.0771485,-0.925781 3.4921875,-0.925781 0.6328125,0 1.21875,0.08203 1.7578125,0.246094 0.5449219,0.164062 1.0078124,0.421875 1.3828124,0.773437 0.375,0.351563 0.632813,0.8144533 0.773438,1.3828126 0.146484,0.5625 0.134765,1.2509766 -0.03516,2.0625 L 9.7846094,8.59375e-4 h -1.828125 l 0.28125,-1.664062475 c -0.5478516,0.524414 -1.1572266,0.96972654 -1.828125,1.33593748 -0.6650391,0.35742187 -1.4648438,0.5390625 -2.4023438,0.5390625 z M 4.4877344,-1.2882031 c 0.5390625,0 1.0458984,-0.084961 1.5234375,-0.2578125 0.4833984,-0.178711 0.9375,-0.4160156 1.359375,-0.7148438 0.421875,-0.2958984 0.8027344,-0.6240234 1.1484375,-0.984375 l 0.4921875,-2.3085937 c -2.1035156,0.023437 -3.6503906,0.1875 -4.640625,0.4921875 -0.9931641,0.3046875 -1.5703125,0.8671875 -1.734375,1.6875 -0.1171875,0.5947265 -0.020508,1.0898437 0.2929687,1.4882812 0.3105469,0.3984375 0.8320313,0.5976563 1.5585938,0.5976563 z m 0,0"
         style="fill:#000000;fill-opacity:1;fill-rule:nonzero;stroke:none"
         aria-label="a"
         transform="matrix(1.3333333,0,0,1.3333333,666.58667,368.50667)"
         clip-path="url(#clipPath247)" />
      <path
         id="path248"
         d="m 3.4454688,-4.6397656 c -0.4394532,0 -0.8027344,-0.140625 -1.0898438,-0.421875 C 2.0655859,-5.34875 1.9220313,-5.7003125 1.9220313,-6.1163281 c 0,-0.4277344 0.1435546,-0.7792969 0.4335937,-1.0546875 0.2871094,-0.28125 0.6503906,-0.421875 1.0898438,-0.421875 0.4277343,0 0.7851562,0.140625 1.0664062,0.421875 0.28125,0.2753906 0.421875,0.6269531 0.421875,1.0546875 0,0.4160156 -0.140625,0.7675781 -0.421875,1.0546875 -0.28125,0.28125 -0.6386719,0.421875 -1.0664062,0.421875 z m 0,0"
         style="fill:#000000;fill-opacity:1;fill-rule:nonzero;stroke:none"
         aria-label="·"
         transform="matrix(1.3333333,0,0,1.3333333,683.54667,368.50667)"
         clip-path="url(#clipPath249)" />
      <path
         id="path250"
         d="M 6.3056641,8.59375e-4 V -12.842891 c -0.2109375,0.290039 -0.5126954,0.571289 -0.9023438,0.84375 -0.3837891,0.266602 -0.8408203,0.503907 -1.3710937,0.714844 -0.5332032,0.210938 -1.125,0.363281 -1.78125,0.457031 v -1.851562 c 0.6474609,-0.108399 1.2480468,-0.307617 1.8046875,-0.597656 0.5625,-0.28711 1.0546875,-0.621094 1.4765625,-0.996094 0.4277343,-0.375 0.7646484,-0.732422 1.0078125,-1.078125 H 8.3564453 V 8.59375e-4 Z m 0,0"
         style="fill:#000000;fill-opacity:1;fill-rule:nonzero;stroke:none"
         aria-label="1"
         transform="matrix(1.3333333,0,0,1.3333333,692.66667,368.50667)"
         clip-path="url(#clipPath251)" />
      <path
         id="path252"
         d="M 1.7101562,-5.0382031 V -6.7608594 H 11.846875 v 1.7226563 z m 0,-3.9257813 V -10.663203 H 11.846875 v 1.6992186 z m 0,0"
         style="fill:#000000;fill-opacity:1;fill-rule:nonzero;stroke:none"
         aria-label=" = "
         transform="matrix(1.3333333,0,0,1.3333333,714.26667,368.50667)"
         clip-path="url(#clipPath253)" />
    </g>
    <g
       id="g253">
      <path
         id="path254"
         d="m 4.0067969,0.21179688 c -0.7734375,0 -1.4296875,-0.15234375 -1.96875,-0.45703125 -0.5332031,-0.3046875 -0.9111328,-0.73828125 -1.13671877,-1.30078123 -0.21972657,-0.5625 -0.25488282,-1.2246094 -0.10546875,-1.9921875 0.140625,-0.703125 0.43652342,-1.265625 0.89062502,-1.6875 0.4511719,-0.4277344 1.0429687,-0.7529297 1.7695312,-0.9726563 0.7324219,-0.2167968 1.5878907,-0.3662109 2.5664063,-0.4453125 0.984375,-0.076172 2.0683594,-0.1201172 3.2578125,-0.1289062 l 0.140625,-0.7148438 C 9.5614844,-8.1495312 9.5497656,-8.6739453 9.3857031,-9.0577344 9.2275,-9.4473828 8.9667578,-9.7198437 8.6005469,-9.8780469 8.2314063,-10.042109 7.7978125,-10.124141 7.2997656,-10.124141 c -0.8378906,0 -1.546875,0.1962894 -2.1328125,0.5859379 -0.5800781,0.383789 -0.9492187,1.0048828 -1.1132812,1.8632812 H 2.1552344 c 0.2636719,-1.3828125 0.8496094,-2.3818361 1.7578125,-3.0000001 0.9140625,-0.615234 2.0771484,-0.925781 3.4921875,-0.925781 0.6328125,0 1.21875,0.08203 1.7578125,0.246094 0.5449219,0.164062 1.0078121,0.421875 1.3828121,0.773437 0.375,0.351563 0.632813,0.8144533 0.773438,1.3828126 0.146484,0.5625 0.134766,1.2509766 -0.03516,2.0625 L 9.7841406,8.59375e-4 h -1.828125 l 0.28125,-1.664062475 c -0.5478515,0.524414 -1.1572265,0.96972654 -1.828125,1.33593748 -0.665039,0.35742187 -1.4648437,0.5390625 -2.4023437,0.5390625 z M 4.4872656,-1.2882031 c 0.5390625,0 1.0458985,-0.084961 1.5234375,-0.2578125 0.4833985,-0.178711 0.9375,-0.4160156 1.359375,-0.7148438 0.421875,-0.2958984 0.8027344,-0.6240234 1.1484375,-0.984375 l 0.4921875,-2.3085937 c -2.1035156,0.023437 -3.6503906,0.1875 -4.640625,0.4921875 -0.993164,0.3046875 -1.5703125,0.8671875 -1.734375,1.6875 -0.1171875,0.5947265 -0.020508,1.0898437 0.2929688,1.4882812 0.3105469,0.3984375 0.8320312,0.5976563 1.5585937,0.5976563 z m 0,0"
         style="fill:#000000;fill-opacity:1;fill-rule:nonzero;stroke:none"
         aria-label="a"
         transform="matrix(1.3333333,0,0,1.3333333,737.94667,368.50667)"
         clip-path="url(#clipPath255)" />
    </g>
    <g
       id="g255">
      <path
         id="path256"
         d="M 6.3041406,-0.00105469 V -12.844805 c -0.2109375,0.290039 -0.5126953,0.571289 -0.9023437,0.84375 -0.3837891,0.266602 -0.8408203,0.503907 -1.3710938,0.714844 -0.5332031,0.210938 -1.125,0.363281 -1.78125,0.457031 v -1.851562 c 0.647461,-0.108399 1.2480469,-0.307617 1.8046875,-0.597656 0.5625,-0.28711 1.0546875,-0.621094 1.4765625,-0.996094 0.4277344,-0.375 0.7646485,-0.732422 1.0078125,-1.078125 h 1.8164063 v 15.35156231 z m 0,0"
         style="fill:#000000;fill-opacity:1;fill-rule:nonzero;stroke:none"
         aria-label="1"
         transform="matrix(1.3333333,0,0,1.3333333,666.58667,410.56)"
         clip-path="url(#clipPath257)" />
      <path
         id="path258"
         d="m 3.4455859,-4.6416797 c -0.4394531,0 -0.8027343,-0.140625 -1.0898437,-0.421875 -0.2900391,-0.2871094 -0.4335938,-0.6386719 -0.4335938,-1.0546875 0,-0.4277344 0.1435547,-0.7792969 0.4335938,-1.0546875 0.2871094,-0.28125 0.6503906,-0.421875 1.0898437,-0.421875 0.4277344,0 0.7851563,0.140625 1.0664063,0.421875 0.28125,0.2753906 0.421875,0.6269531 0.421875,1.0546875 0,0.4160156 -0.140625,0.7675781 -0.421875,1.0546875 -0.28125,0.28125 -0.6386719,0.421875 -1.0664063,0.421875 z m 0,0"
         style="fill:#000000;fill-opacity:1;fill-rule:nonzero;stroke:none"
         aria-label="·"
         transform="matrix(1.3333333,0,0,1.3333333,683.70667,410.56)"
         clip-path="url(#clipPath259)" />
    </g>
    <g
       id="g259">
      <path
         id="path260"
         d="m 4.0089063,0.20988281 c -0.7734375,0 -1.4296875,-0.15234375 -1.96875,-0.45703125 -0.5332032,-0.3046875 -0.9111329,-0.73828125 -1.1367188,-1.30078126 -0.21972656,-0.5625 -0.25488281,-1.2246094 -0.10546875,-1.9921875 0.140625,-0.703125 0.43652345,-1.265625 0.89062505,-1.6875 0.4511718,-0.4277344 1.0429687,-0.7529297 1.7695312,-0.9726562 0.7324219,-0.2167969 1.5878906,-0.366211 2.5664063,-0.4453125 0.984375,-0.076172 2.0683593,-0.1201172 3.2578125,-0.1289063 l 0.140625,-0.7148437 C 9.5635938,-8.1514453 9.551875,-8.6758594 9.3878125,-9.0596484 9.2296094,-9.4492969 8.9688672,-9.7217578 8.6026563,-9.8799609 8.2335156,-10.044023 7.7999219,-10.126055 7.301875,-10.126055 c -0.8378906,0 -1.546875,0.1962894 -2.1328125,0.5859378 -0.5800781,0.3837891 -0.9492187,1.0048828 -1.1132812,1.8632813 H 2.1573438 c 0.2636718,-1.3828125 0.8496093,-2.3818361 1.7578125,-3.0000001 0.9140625,-0.615234 2.0771484,-0.925781 3.4921875,-0.925781 0.6328125,0 1.21875,0.08203 1.7578125,0.246094 0.5449218,0.164062 1.0078127,0.421875 1.3828127,0.773437 0.375,0.351563 0.632812,0.8144532 0.773437,1.3828126 0.146485,0.5625 0.134766,1.2509765 -0.03516,2.0625 l -1.5,7.13671871 H 7.958125 L 8.239375,-1.6651172 C 7.6915234,-1.1407031 7.0821484,-0.69539063 6.41125,-0.32917969 5.7462109,0.02824219 4.9464063,0.20988281 4.0089063,0.20988281 Z M 4.489375,-1.2901172 c 0.5390625,0 1.0458984,-0.084961 1.5234375,-0.2578125 0.4833984,-0.1787109 0.9375,-0.4160156 1.359375,-0.7148437 0.421875,-0.2958985 0.8027344,-0.6240235 1.1484375,-0.984375 l 0.4921875,-2.3085938 c -2.1035156,0.023437 -3.6503906,0.1875 -4.640625,0.4921875 -0.9931641,0.3046875 -1.5703125,0.8671875 -1.734375,1.6875 -0.1171875,0.5947266 -0.020508,1.0898438 0.2929688,1.4882813 0.3105468,0.3984375 0.8320312,0.5976562 1.5585937,0.5976562 z m 0,0"
         style="fill:#000000;fill-opacity:1;fill-rule:nonzero;stroke:none"
         aria-label="a"
         transform="matrix(1.3333333,0,0,1.3333333,692.82667,410.56)"
         clip-path="url(#clipPath261)" />
    </g>
    <g
       id="g261">
      <path
         id="path262"
         d="M 1.7101562,-5.0401172 V -6.7627734 H 11.846875 v 1.7226562 z m 0,-3.9257812 V -10.665117 H 11.846875 v 1.6992186 z m 0,0"
         style="fill:#000000;fill-opacity:1;fill-rule:nonzero;stroke:none"
         aria-label=" = "
         transform="matrix(1.3333333,0,0,1.3333333,714.26667,410.56)"
         clip-path="url(#clipPath263)" />
    </g>
    <g
       id="g263">
      <path
         id="path264"
         d="m 4.0067969,0.20988281 c -0.7734375,0 -1.4296875,-0.15234375 -1.96875,-0.45703125 -0.5332031,-0.3046875 -0.9111328,-0.73828125 -1.13671877,-1.30078126 -0.21972657,-0.5625 -0.25488282,-1.2246094 -0.10546875,-1.9921875 0.140625,-0.703125 0.43652342,-1.265625 0.89062502,-1.6875 0.4511719,-0.4277344 1.0429687,-0.7529297 1.7695312,-0.9726562 0.7324219,-0.2167969 1.5878907,-0.366211 2.5664063,-0.4453125 0.984375,-0.076172 2.0683594,-0.1201172 3.2578125,-0.1289063 l 0.140625,-0.7148437 C 9.5614844,-8.1514453 9.5497656,-8.6758594 9.3857031,-9.0596484 9.2275,-9.4492969 8.9667578,-9.7217578 8.6005469,-9.8799609 8.2314063,-10.044023 7.7978125,-10.126055 7.2997656,-10.126055 c -0.8378906,0 -1.546875,0.1962894 -2.1328125,0.5859378 -0.5800781,0.3837891 -0.9492187,1.0048828 -1.1132812,1.8632813 H 2.1552344 c 0.2636719,-1.3828125 0.8496094,-2.3818361 1.7578125,-3.0000001 0.9140625,-0.615234 2.0771484,-0.925781 3.4921875,-0.925781 0.6328125,0 1.21875,0.08203 1.7578125,0.246094 0.5449219,0.164062 1.0078121,0.421875 1.3828121,0.773437 0.375,0.351563 0.632813,0.8144532 0.773438,1.3828126 0.146484,0.5625 0.134766,1.2509765 -0.03516,2.0625 l -1.5000004,7.13671871 h -1.828125 l 0.28125,-1.66406251 c -0.5478515,0.5244141 -1.1572265,0.96972657 -1.828125,1.33593751 -0.665039,0.35742188 -1.4648437,0.5390625 -2.4023437,0.5390625 z M 4.4872656,-1.2901172 c 0.5390625,0 1.0458985,-0.084961 1.5234375,-0.2578125 0.4833985,-0.1787109 0.9375,-0.4160156 1.359375,-0.7148437 0.421875,-0.2958985 0.8027344,-0.6240235 1.1484375,-0.984375 l 0.4921875,-2.3085938 c -2.1035156,0.023437 -3.6503906,0.1875 -4.640625,0.4921875 -0.993164,0.3046875 -1.5703125,0.8671875 -1.734375,1.6875 -0.1171875,0.5947266 -0.020508,1.0898438 0.2929688,1.4882813 0.3105469,0.3984375 0.8320312,0.5976562 1.5585937,0.5976562 z m 0,0"
         style="fill:#000000;fill-opacity:1;fill-rule:nonzero;stroke:none"
         aria-label="a"
         transform="matrix(1.3333333,0,0,1.3333333,737.94667,410.56)"
         clip-path="url(#clipPath265)" />
    </g>
  </g>
</svg>
