<?xml version="1.0" encoding="UTF-8" standalone="no"?>
<!-- Created with Inkscape (http://www.inkscape.org/) -->

<svg
   width="225.68828mm"
   height="58.618633mm"
   viewBox="0 0 225.68828 58.618635"
   version="1.1"
   id="svg1"
   xml:space="preserve"
   xmlns="http://www.w3.org/2000/svg"
   xmlns:svg="http://www.w3.org/2000/svg"><defs
     id="defs1"><clipPath
       clipPathUnits="userSpaceOnUse"
       id="clipPath387"><path
         d="M 0,1.2207e-4 H 960 V 540.00012 H 0 Z"
         clip-rule="evenodd"
         id="path387" /></clipPath><clipPath
       clipPathUnits="userSpaceOnUse"
       id="clipPath499"><path
         d="M 1.4305e-5,0 H 960.00001 V 540 H 1.4305e-5 Z"
         transform="matrix(1,0,0,-1,-145.98998,168.67)"
         clip-rule="evenodd"
         id="path499" /></clipPath><clipPath
       clipPathUnits="userSpaceOnUse"
       id="clipPath501"><path
         d="M 1.4305e-5,0 H 960.00001 V 540 H 1.4305e-5 Z"
         transform="matrix(1,0,0,-1,-233.13998,168.67)"
         clip-rule="evenodd"
         id="path501" /></clipPath><clipPath
       clipPathUnits="userSpaceOnUse"
       id="clipPath518"><path
         d="M 1.4305e-5,0 H 960.00001 V 540 H 1.4305e-5 Z"
         transform="matrix(1,0,0,-1,-422.69004,168.67)"
         clip-rule="evenodd"
         id="path518" /></clipPath><clipPath
       clipPathUnits="userSpaceOnUse"
       id="clipPath520"><path
         d="M 1.4305e-5,0 H 960.00001 V 540 H 1.4305e-5 Z"
         transform="matrix(1,0,0,-1,-509.82999,168.67)"
         clip-rule="evenodd"
         id="path520" /></clipPath><clipPath
       clipPathUnits="userSpaceOnUse"
       id="clipPath536"><path
         d="M 1.4305e-5,0 H 960.00001 V 540 H 1.4305e-5 Z"
         transform="matrix(1,0,0,-1,-687.50004,168.67)"
         clip-rule="evenodd"
         id="path536" /></clipPath><clipPath
       clipPathUnits="userSpaceOnUse"
       id="clipPath538"><path
         d="M 1.4305e-5,0 H 960.00001 V 540 H 1.4305e-5 Z"
         transform="matrix(1,0,0,-1,-774.65004,168.67)"
         clip-rule="evenodd"
         id="path538" /></clipPath><clipPath
       clipPathUnits="userSpaceOnUse"
       id="clipPath546"><path
         d="M 1.4305e-5,0 H 960.00001 V 540 H 1.4305e-5 Z"
         transform="matrix(1,0,0,-1,-161.30003,17.496)"
         clip-rule="evenodd"
         id="path546" /></clipPath><clipPath
       clipPathUnits="userSpaceOnUse"
       id="clipPath548"><path
         d="M 1.4305e-5,0 H 960.00001 V 540 H 1.4305e-5 Z"
         transform="matrix(1,0,0,-1,-434.16001,17.856)"
         clip-rule="evenodd"
         id="path548" /></clipPath><clipPath
       clipPathUnits="userSpaceOnUse"
       id="clipPath550"><path
         d="M 1.4305e-5,0 H 960.00001 V 540 H 1.4305e-5 Z"
         transform="matrix(1,0,0,-1,-700.37004,17.856)"
         clip-rule="evenodd"
         id="path550" /></clipPath></defs><g
     id="g385"
     transform="matrix(0.26458333,0,0,0.26458334,-2114.9584,-126.82121)"><g
       id="g386"><path
         id="path386"
         d="M 0,6.1035e-5 H 960 V 540.00006 H 0 Z"
         style="fill:#ffffff;fill-opacity:1;fill-rule:evenodd;stroke:none"
         transform="matrix(1.3333333,0,0,-1.3333333,7800,720)"
         clip-path="url(#clipPath387)" /></g><g
       id="g20"><g
         id="g487"><path
           id="path488"
           d="m 148.17,155.84 c 0,1.92 1.56,3.48 3.48,3.48 1.92,0 3.48,-1.56 3.48,-3.48 0,-1.92 -1.56,-3.48 -3.48,-3.48 -1.92,0 -3.48,1.56 -3.48,3.48 z"
           style="fill:#47d45a;fill-opacity:1;fill-rule:evenodd;stroke:#042433;stroke-width:1.5;stroke-linecap:butt;stroke-linejoin:miter;stroke-miterlimit:10;stroke-dasharray:none;stroke-opacity:1"
           transform="matrix(1.3333333,0,0,-1.3333333,7800,720)" /></g><g
         id="g488"><path
           id="path489"
           d="m 148.17,127.85 c 0,1.92 1.56,3.48 3.48,3.48 1.92,0 3.48,-1.56 3.48,-3.48 0,-1.92 -1.56,-3.48 -3.48,-3.48 -1.92,0 -3.48,1.56 -3.48,3.48 z"
           style="fill:#47d45a;fill-opacity:1;fill-rule:evenodd;stroke:#042433;stroke-width:1.5;stroke-linecap:butt;stroke-linejoin:miter;stroke-miterlimit:10;stroke-dasharray:none;stroke-opacity:1"
           transform="matrix(1.3333333,0,0,-1.3333333,7800,720)" /></g><g
         id="g489"><path
           id="path490"
           d="m 148.17,100.22 c 0,1.93 1.56,3.48 3.48,3.48 1.92,0 3.48,-1.55 3.48,-3.48 0,-1.916 -1.56,-3.473 -3.48,-3.473 -1.92,0 -3.48,1.557 -3.48,3.473 z"
           style="fill:#47d45a;fill-opacity:1;fill-rule:evenodd;stroke:#042433;stroke-width:1.5;stroke-linecap:butt;stroke-linejoin:miter;stroke-miterlimit:10;stroke-dasharray:none;stroke-opacity:1"
           transform="matrix(1.3333333,0,0,-1.3333333,7800,720)" /></g><g
         id="g490"><path
           id="path491"
           d="m 148.17,72.14 c 0,1.921 1.56,3.478 3.48,3.478 1.92,0 3.48,-1.557 3.48,-3.478 0,-1.921 -1.56,-3.478 -3.48,-3.478 -1.92,0 -3.48,1.557 -3.48,3.478 z"
           style="fill:#47d45a;fill-opacity:1;fill-rule:evenodd;stroke:#042433;stroke-width:1.5;stroke-linecap:butt;stroke-linejoin:miter;stroke-miterlimit:10;stroke-dasharray:none;stroke-opacity:1"
           transform="matrix(1.3333333,0,0,-1.3333333,7800,720)" /></g><g
         id="g491"><path
           id="path492"
           d="m 148.17,44.055 c 0,1.921 1.56,3.478 3.48,3.478 1.92,0 3.48,-1.557 3.48,-3.478 0,-1.921 -1.56,-3.479 -3.48,-3.479 -1.92,0 -3.48,1.558 -3.48,3.479 z"
           style="fill:#47d45a;fill-opacity:1;fill-rule:evenodd;stroke:#042433;stroke-width:1.5;stroke-linecap:butt;stroke-linejoin:miter;stroke-miterlimit:10;stroke-dasharray:none;stroke-opacity:1"
           transform="matrix(1.3333333,0,0,-1.3333333,7800,720)" /></g><g
         id="g492"><path
           id="path493"
           d="m 235.3,155.84 c 0,1.92 1.56,3.48 3.48,3.48 1.92,0 3.48,-1.56 3.48,-3.48 0,-1.92 -1.56,-3.48 -3.48,-3.48 -1.92,0 -3.48,1.56 -3.48,3.48 z"
           style="fill:#46b1e1;fill-opacity:1;fill-rule:evenodd;stroke:#042433;stroke-width:1.5;stroke-linecap:butt;stroke-linejoin:miter;stroke-miterlimit:10;stroke-dasharray:none;stroke-opacity:1"
           transform="matrix(1.3333333,0,0,-1.3333333,7800,720)" /></g><g
         id="g493"><path
           id="path494"
           d="m 235.3,127.85 c 0,1.92 1.56,3.48 3.48,3.48 1.92,0 3.48,-1.56 3.48,-3.48 0,-1.92 -1.56,-3.48 -3.48,-3.48 -1.92,0 -3.48,1.56 -3.48,3.48 z"
           style="fill:#46b1e1;fill-opacity:1;fill-rule:evenodd;stroke:#042433;stroke-width:1.5;stroke-linecap:butt;stroke-linejoin:miter;stroke-miterlimit:10;stroke-dasharray:none;stroke-opacity:1"
           transform="matrix(1.3333333,0,0,-1.3333333,7800,720)" /></g><g
         id="g494"><path
           id="path495"
           d="m 235.3,100.22 c 0,1.93 1.56,3.48 3.48,3.48 1.92,0 3.48,-1.55 3.48,-3.48 0,-1.916 -1.56,-3.473 -3.48,-3.473 -1.92,0 -3.48,1.557 -3.48,3.473 z"
           style="fill:#46b1e1;fill-opacity:1;fill-rule:evenodd;stroke:#042433;stroke-width:1.5;stroke-linecap:butt;stroke-linejoin:miter;stroke-miterlimit:10;stroke-dasharray:none;stroke-opacity:1"
           transform="matrix(1.3333333,0,0,-1.3333333,7800,720)" /></g><g
         id="g495"><path
           id="path496"
           d="m 235.3,72.14 c 0,1.921 1.56,3.478 3.48,3.478 1.92,0 3.48,-1.557 3.48,-3.478 0,-1.921 -1.56,-3.478 -3.48,-3.478 -1.92,0 -3.48,1.557 -3.48,3.478 z"
           style="fill:#46b1e1;fill-opacity:1;fill-rule:evenodd;stroke:#042433;stroke-width:1.5;stroke-linecap:butt;stroke-linejoin:miter;stroke-miterlimit:10;stroke-dasharray:none;stroke-opacity:1"
           transform="matrix(1.3333333,0,0,-1.3333333,7800,720)" /></g><g
         id="g496"><path
           id="path497"
           d="m 235.3,44.055 c 0,1.921 1.56,3.478 3.48,3.478 1.92,0 3.48,-1.557 3.48,-3.478 0,-1.921 -1.56,-3.479 -3.48,-3.479 -1.92,0 -3.48,1.558 -3.48,3.479 z"
           style="fill:#46b1e1;fill-opacity:1;fill-rule:evenodd;stroke:#042433;stroke-width:1.5;stroke-linecap:butt;stroke-linejoin:miter;stroke-miterlimit:10;stroke-dasharray:none;stroke-opacity:1"
           transform="matrix(1.3333333,0,0,-1.3333333,7800,720)" /></g><g
         id="g497"><path
           id="path498"
           d="M -0.83277344,-8.984375e-4 6.1164453,-11.836836 H 7.7805078 L 9.6437891,-8.984375e-4 h -1.59375 L 7.6516016,-3.3173047 H 2.7297266 L 0.85472656,-8.984375e-4 Z M 3.4445703,-4.6415234 h 4.03125 L 6.6555078,-10.254805 Z m 0,0"
           style="fill:#00b050;fill-opacity:1;fill-rule:nonzero;stroke:none"
           aria-label="A"
           transform="matrix(1.3333333,0,0,1.3333333,7994.6533,495.10667)"
           clip-path="url(#clipPath499)" /></g><g
         id="g499"><path
           id="path500"
           d="M 0.65492188,-8.984375e-4 3.1510156,-11.836836 h 3.65625 c 0.8203125,0 1.5029297,0.140625 2.0507813,0.421875 0.5537109,0.28125 0.9492187,0.679688 1.1835941,1.195313 0.234375,0.5156246 0.272461,1.1191402 0.117187,1.8046871 -0.117187,0.5332031 -0.3955077,0.993164 -0.8320311,1.3828125 -0.4394531,0.383789 -0.9580078,0.6328125 -1.5585938,0.75 0.46875,0.1259765 0.8789063,0.3339843 1.2304688,0.6210937 0.3515625,0.2900391 0.6005859,0.65625 0.75,1.1015625 0.1552734,0.4453125 0.1699219,0.9726563 0.046875,1.5820313 -0.1259766,0.6035156 -0.3925781,1.125 -0.796875,1.5703125 -0.4072266,0.44531246 -0.9550781,0.79394527 -1.640625,1.04296871 -0.6796875,0.24316406 -1.5087891,0.3632812525 -2.484375,0.3632812525 z M 2.4830469,-1.3251172 h 2.5664062 c 0.84375,0 1.546875,-0.1552734 2.109375,-0.46875 0.5683594,-0.3105469 0.9257813,-0.7880859 1.0664063,-1.4296875 0.1552734,-0.7558594 0.017578,-1.3271484 -0.4101563,-1.7109375 -0.421875,-0.3896484 -1.0488281,-0.5859375 -1.875,-0.5859375 H 3.3736719 Z m 1.1835937,-5.484375 h 2.2148438 c 0.796875,0 1.4238281,-0.1523437 1.8867187,-0.4570312 0.459961,-0.3105469 0.75,-0.741211 0.8671875,-1.2890625 0.1230469,-0.6152344 0.011719,-1.1015625 -0.3398437,-1.4531251 -0.3515625,-0.351562 -0.9228516,-0.527344 -1.7109375,-0.527344 H 4.4517969 Z m 0,0"
           style="fill:#46b1e1;fill-opacity:1;fill-rule:nonzero;stroke:none"
           aria-label="B"
           transform="matrix(1.3333333,0,0,1.3333333,8110.8533,495.10667)"
           clip-path="url(#clipPath501)" /></g><g
         id="g501"><path
           id="path502"
           d="m 159.3,156.59 h 67.35 v -1.5 H 159.3 Z m 66.35,2.25 6,-3 -6,-3 z"
           style="fill:#000000;fill-opacity:1;fill-rule:nonzero;stroke:none"
           transform="matrix(1.3333333,0,0,-1.3333333,7800,720)" /></g><g
         id="g502"><path
           id="path503"
           d="m 159.54,128.9 67.62,-22.88 -0.48,-1.42 -67.62,22.88 z m 67.39,-20.43 4.72,-4.77 -6.64,-0.91 z"
           style="fill:#000000;fill-opacity:1;fill-rule:nonzero;stroke:none"
           transform="matrix(1.3333333,0,0,-1.3333333,7800,720)" /></g><g
         id="g503"><path
           id="path504"
           d="m 159.57,43.662 67.66,25.36 -0.52,1.404 -67.67,-25.359 z m 67.52,22.902 4.56,4.915 -6.67,0.703 z"
           style="fill:#000000;fill-opacity:1;fill-rule:nonzero;stroke:none"
           transform="matrix(1.3333333,0,0,-1.3333333,7800,720)" /></g><g
         id="g504"><path
           id="path505"
           d="m 159.53,100.15 67.6,-21.847 -0.47,-1.428 -67.59,21.85 z m 67.34,-19.399 4.78,-4.7 -6.63,-1.009 z"
           style="fill:#000000;fill-opacity:1;fill-rule:nonzero;stroke:none"
           transform="matrix(1.3333333,0,0,-1.3333333,7800,720)" /></g><g
         id="g505"><path
           id="path506"
           d="m 159.23,72.512 68.89,52.068 -0.91,1.19 -68.88,-52.061 z m 69.44,49.668 2.98,6.01 -6.59,-1.22 z"
           style="fill:#000000;fill-opacity:1;fill-rule:nonzero;stroke:none"
           transform="matrix(1.3333333,0,0,-1.3333333,7800,720)" /></g><g
         id="g506"><path
           id="path507"
           d="m 424.83,155.84 c 0,1.92 1.55,3.48 3.47,3.48 1.93,0 3.48,-1.56 3.48,-3.48 0,-1.92 -1.55,-3.48 -3.48,-3.48 -1.92,0 -3.47,1.56 -3.47,3.48 z"
           style="fill:#47d45a;fill-opacity:1;fill-rule:evenodd;stroke:#042433;stroke-width:1.5;stroke-linecap:butt;stroke-linejoin:miter;stroke-miterlimit:10;stroke-dasharray:none;stroke-opacity:1"
           transform="matrix(1.3333333,0,0,-1.3333333,7800,720)" /></g><g
         id="g507"><path
           id="path508"
           d="m 424.83,127.85 c 0,1.92 1.55,3.48 3.47,3.48 1.93,0 3.48,-1.56 3.48,-3.48 0,-1.92 -1.55,-3.48 -3.48,-3.48 -1.92,0 -3.47,1.56 -3.47,3.48 z"
           style="fill:#47d45a;fill-opacity:1;fill-rule:evenodd;stroke:#042433;stroke-width:1.5;stroke-linecap:butt;stroke-linejoin:miter;stroke-miterlimit:10;stroke-dasharray:none;stroke-opacity:1"
           transform="matrix(1.3333333,0,0,-1.3333333,7800,720)" /></g><g
         id="g508"><path
           id="path509"
           d="m 424.83,100.22 c 0,1.93 1.55,3.48 3.47,3.48 1.93,0 3.48,-1.55 3.48,-3.48 0,-1.916 -1.55,-3.473 -3.48,-3.473 -1.92,0 -3.47,1.557 -3.47,3.473 z"
           style="fill:#47d45a;fill-opacity:1;fill-rule:evenodd;stroke:#042433;stroke-width:1.5;stroke-linecap:butt;stroke-linejoin:miter;stroke-miterlimit:10;stroke-dasharray:none;stroke-opacity:1"
           transform="matrix(1.3333333,0,0,-1.3333333,7800,720)" /></g><g
         id="g509"><path
           id="path510"
           d="m 424.83,72.14 c 0,1.921 1.55,3.478 3.47,3.478 1.93,0 3.48,-1.557 3.48,-3.478 0,-1.921 -1.55,-3.478 -3.48,-3.478 -1.92,0 -3.47,1.557 -3.47,3.478 z"
           style="fill:#47d45a;fill-opacity:1;fill-rule:evenodd;stroke:#042433;stroke-width:1.5;stroke-linecap:butt;stroke-linejoin:miter;stroke-miterlimit:10;stroke-dasharray:none;stroke-opacity:1"
           transform="matrix(1.3333333,0,0,-1.3333333,7800,720)" /></g><g
         id="g510"><path
           id="path511"
           d="m 424.83,44.055 c 0,1.921 1.55,3.478 3.47,3.478 1.93,0 3.48,-1.557 3.48,-3.478 0,-1.921 -1.55,-3.479 -3.48,-3.479 -1.92,0 -3.47,1.558 -3.47,3.479 z"
           style="fill:#47d45a;fill-opacity:1;fill-rule:evenodd;stroke:#042433;stroke-width:1.5;stroke-linecap:butt;stroke-linejoin:miter;stroke-miterlimit:10;stroke-dasharray:none;stroke-opacity:1"
           transform="matrix(1.3333333,0,0,-1.3333333,7800,720)" /></g><g
         id="g511"><path
           id="path512"
           d="m 511.96,155.84 c 0,1.92 1.55,3.48 3.48,3.48 1.92,0 3.47,-1.56 3.47,-3.48 0,-1.92 -1.55,-3.48 -3.47,-3.48 -1.93,0 -3.48,1.56 -3.48,3.48 z"
           style="fill:#46b1e1;fill-opacity:1;fill-rule:evenodd;stroke:#042433;stroke-width:1.5;stroke-linecap:butt;stroke-linejoin:miter;stroke-miterlimit:10;stroke-dasharray:none;stroke-opacity:1"
           transform="matrix(1.3333333,0,0,-1.3333333,7800,720)" /></g><g
         id="g512"><path
           id="path513"
           d="m 511.96,127.85 c 0,1.92 1.55,3.48 3.48,3.48 1.92,0 3.47,-1.56 3.47,-3.48 0,-1.92 -1.55,-3.48 -3.47,-3.48 -1.93,0 -3.48,1.56 -3.48,3.48 z"
           style="fill:#46b1e1;fill-opacity:1;fill-rule:evenodd;stroke:#042433;stroke-width:1.5;stroke-linecap:butt;stroke-linejoin:miter;stroke-miterlimit:10;stroke-dasharray:none;stroke-opacity:1"
           transform="matrix(1.3333333,0,0,-1.3333333,7800,720)" /></g><g
         id="g513"><path
           id="path514"
           d="m 511.96,100.22 c 0,1.93 1.55,3.48 3.48,3.48 1.92,0 3.47,-1.55 3.47,-3.48 0,-1.916 -1.55,-3.473 -3.47,-3.473 -1.93,0 -3.48,1.557 -3.48,3.473 z"
           style="fill:#46b1e1;fill-opacity:1;fill-rule:evenodd;stroke:#042433;stroke-width:1.5;stroke-linecap:butt;stroke-linejoin:miter;stroke-miterlimit:10;stroke-dasharray:none;stroke-opacity:1"
           transform="matrix(1.3333333,0,0,-1.3333333,7800,720)" /></g><g
         id="g514"><path
           id="path515"
           d="m 511.96,72.14 c 0,1.921 1.55,3.478 3.48,3.478 1.92,0 3.47,-1.557 3.47,-3.478 0,-1.921 -1.55,-3.478 -3.47,-3.478 -1.93,0 -3.48,1.557 -3.48,3.478 z"
           style="fill:#46b1e1;fill-opacity:1;fill-rule:evenodd;stroke:#042433;stroke-width:1.5;stroke-linecap:butt;stroke-linejoin:miter;stroke-miterlimit:10;stroke-dasharray:none;stroke-opacity:1"
           transform="matrix(1.3333333,0,0,-1.3333333,7800,720)" /></g><g
         id="g515"><path
           id="path516"
           d="m 511.96,44.055 c 0,1.921 1.55,3.478 3.48,3.478 1.92,0 3.47,-1.557 3.47,-3.478 0,-1.921 -1.55,-3.479 -3.47,-3.479 -1.93,0 -3.48,1.558 -3.48,3.479 z"
           style="fill:#46b1e1;fill-opacity:1;fill-rule:evenodd;stroke:#042433;stroke-width:1.5;stroke-linecap:butt;stroke-linejoin:miter;stroke-miterlimit:10;stroke-dasharray:none;stroke-opacity:1"
           transform="matrix(1.3333333,0,0,-1.3333333,7800,720)" /></g><g
         id="g516"><path
           id="path517"
           d="M -0.83257812,-8.984375e-4 6.1166406,-11.836836 H 7.7807031 L 9.6439844,-8.984375e-4 h -1.59375 L 7.6517969,-3.3173047 H 2.7299219 L 0.85492188,-8.984375e-4 Z M 3.4447656,-4.6415234 h 4.03125 L 6.6557031,-10.254805 Z m 0,0"
           style="fill:#00b050;fill-opacity:1;fill-rule:nonzero;stroke:none"
           aria-label="A"
           transform="matrix(1.3333333,0,0,1.3333333,8363.5867,495.10667)"
           clip-path="url(#clipPath518)" /></g><g
         id="g518"><path
           id="path519"
           d="M 0.65632813,-8.984375e-4 3.1524219,-11.836836 h 3.65625 c 0.8203125,0 1.5029297,0.140625 2.0507812,0.421875 0.553711,0.28125 0.9492188,0.679688 1.1835939,1.195313 0.234375,0.5156246 0.272461,1.1191402 0.117187,1.8046871 -0.117187,0.5332031 -0.3955074,0.993164 -0.8320309,1.3828125 -0.4394531,0.383789 -0.9580078,0.6328125 -1.5585937,0.75 0.46875,0.1259765 0.8789062,0.3339843 1.2304687,0.6210937 0.3515625,0.2900391 0.600586,0.65625 0.75,1.1015625 0.1552735,0.4453125 0.1699219,0.9726563 0.046875,1.5820313 -0.1259765,0.6035156 -0.3925781,1.125 -0.796875,1.5703125 C 8.5928516,-0.96183594 8.045,-0.61320313 7.3594531,-0.36417969 6.6797656,-0.12101563 5.8506641,-8.984375e-4 4.8750781,-8.984375e-4 Z M 2.4844531,-1.3251172 h 2.5664063 c 0.84375,0 1.546875,-0.1552734 2.109375,-0.46875 0.5683594,-0.3105469 0.9257812,-0.7880859 1.0664062,-1.4296875 0.1552735,-0.7558594 0.017578,-1.3271484 -0.4101562,-1.7109375 -0.421875,-0.3896484 -1.0488281,-0.5859375 -1.875,-0.5859375 H 3.3750781 Z m 1.1835938,-5.484375 h 2.2148437 c 0.796875,0 1.4238282,-0.1523437 1.8867188,-0.4570312 0.4599609,-0.3105469 0.75,-0.741211 0.8671875,-1.2890625 0.1230469,-0.6152344 0.011719,-1.1015625 -0.3398438,-1.4531251 -0.3515625,-0.351562 -0.9228515,-0.527344 -1.7109375,-0.527344 H 4.4532031 Z m 0,0"
           style="fill:#46b1e1;fill-opacity:1;fill-rule:nonzero;stroke:none"
           aria-label="B"
           transform="matrix(1.3333333,0,0,1.3333333,8479.7733,495.10667)"
           clip-path="url(#clipPath520)" /></g><g
         id="g520"><path
           id="path521"
           d="m 435.96,156.59 h 67.34 v -1.5 h -67.34 z m 66.34,2.25 6,-3 -6,-3 z"
           style="fill:#000000;fill-opacity:1;fill-rule:nonzero;stroke:none"
           transform="matrix(1.3333333,0,0,-1.3333333,7800,720)" /></g><g
         id="g521"><path
           id="path522"
           d="m 436.2,128.9 67.61,-22.88 -0.48,-1.42 -67.61,22.88 z m 67.38,-20.43 4.72,-4.77 -6.64,-0.91 z"
           style="fill:#000000;fill-opacity:1;fill-rule:nonzero;stroke:none"
           transform="matrix(1.3333333,0,0,-1.3333333,7800,720)" /></g><g
         id="g522"><path
           id="path523"
           d="m 436.19,100.15 67.59,-21.847 -0.46,-1.428 -67.59,21.85 z m 67.33,-19.399 4.78,-4.7 -6.63,-1.009 z"
           style="fill:#000000;fill-opacity:1;fill-rule:nonzero;stroke:none"
           transform="matrix(1.3333333,0,0,-1.3333333,7800,720)" /></g><g
         id="g523"><path
           id="path524"
           d="m 435.89,72.512 68.88,52.068 -0.91,1.19 -68.88,-52.061 z m 69.44,49.668 2.97,6.01 -6.59,-1.22 z"
           style="fill:#000000;fill-opacity:1;fill-rule:nonzero;stroke:none"
           transform="matrix(1.3333333,0,0,-1.3333333,7800,720)" /></g><g
         id="g524"><path
           id="path525"
           d="m 689.61,155.84 c 0,1.92 1.56,3.48 3.48,3.48 1.92,0 3.48,-1.56 3.48,-3.48 0,-1.92 -1.56,-3.48 -3.48,-3.48 -1.92,0 -3.48,1.56 -3.48,3.48 z"
           style="fill:#47d45a;fill-opacity:1;fill-rule:evenodd;stroke:#042433;stroke-width:1.5;stroke-linecap:butt;stroke-linejoin:miter;stroke-miterlimit:10;stroke-dasharray:none;stroke-opacity:1"
           transform="matrix(1.3333333,0,0,-1.3333333,7800,720)" /></g><g
         id="g525"><path
           id="path526"
           d="m 689.61,127.85 c 0,1.92 1.56,3.48 3.48,3.48 1.92,0 3.48,-1.56 3.48,-3.48 0,-1.92 -1.56,-3.48 -3.48,-3.48 -1.92,0 -3.48,1.56 -3.48,3.48 z"
           style="fill:#47d45a;fill-opacity:1;fill-rule:evenodd;stroke:#042433;stroke-width:1.5;stroke-linecap:butt;stroke-linejoin:miter;stroke-miterlimit:10;stroke-dasharray:none;stroke-opacity:1"
           transform="matrix(1.3333333,0,0,-1.3333333,7800,720)" /></g><g
         id="g526"><path
           id="path527"
           d="m 689.61,100.22 c 0,1.93 1.56,3.48 3.48,3.48 1.92,0 3.48,-1.55 3.48,-3.48 0,-1.916 -1.56,-3.473 -3.48,-3.473 -1.92,0 -3.48,1.557 -3.48,3.473 z"
           style="fill:#47d45a;fill-opacity:1;fill-rule:evenodd;stroke:#042433;stroke-width:1.5;stroke-linecap:butt;stroke-linejoin:miter;stroke-miterlimit:10;stroke-dasharray:none;stroke-opacity:1"
           transform="matrix(1.3333333,0,0,-1.3333333,7800,720)" /></g><g
         id="g527"><path
           id="path528"
           d="m 689.61,72.14 c 0,1.921 1.56,3.478 3.48,3.478 1.92,0 3.48,-1.557 3.48,-3.478 0,-1.921 -1.56,-3.478 -3.48,-3.478 -1.92,0 -3.48,1.557 -3.48,3.478 z"
           style="fill:#47d45a;fill-opacity:1;fill-rule:evenodd;stroke:#042433;stroke-width:1.5;stroke-linecap:butt;stroke-linejoin:miter;stroke-miterlimit:10;stroke-dasharray:none;stroke-opacity:1"
           transform="matrix(1.3333333,0,0,-1.3333333,7800,720)" /></g><g
         id="g528"><path
           id="path529"
           d="m 689.61,44.055 c 0,1.921 1.56,3.478 3.48,3.478 1.92,0 3.48,-1.557 3.48,-3.478 0,-1.921 -1.56,-3.479 -3.48,-3.479 -1.92,0 -3.48,1.558 -3.48,3.479 z"
           style="fill:#47d45a;fill-opacity:1;fill-rule:evenodd;stroke:#042433;stroke-width:1.5;stroke-linecap:butt;stroke-linejoin:miter;stroke-miterlimit:10;stroke-dasharray:none;stroke-opacity:1"
           transform="matrix(1.3333333,0,0,-1.3333333,7800,720)" /></g><g
         id="g529"><path
           id="path530"
           d="m 776.74,155.84 c 0,1.92 1.56,3.48 3.48,3.48 1.92,0 3.48,-1.56 3.48,-3.48 0,-1.92 -1.56,-3.48 -3.48,-3.48 -1.92,0 -3.48,1.56 -3.48,3.48 z"
           style="fill:#46b1e1;fill-opacity:1;fill-rule:evenodd;stroke:#042433;stroke-width:1.5;stroke-linecap:butt;stroke-linejoin:miter;stroke-miterlimit:10;stroke-dasharray:none;stroke-opacity:1"
           transform="matrix(1.3333333,0,0,-1.3333333,7800,720)" /></g><g
         id="g530"><path
           id="path531"
           d="m 776.74,127.85 c 0,1.92 1.56,3.48 3.48,3.48 1.92,0 3.48,-1.56 3.48,-3.48 0,-1.92 -1.56,-3.48 -3.48,-3.48 -1.92,0 -3.48,1.56 -3.48,3.48 z"
           style="fill:#46b1e1;fill-opacity:1;fill-rule:evenodd;stroke:#042433;stroke-width:1.5;stroke-linecap:butt;stroke-linejoin:miter;stroke-miterlimit:10;stroke-dasharray:none;stroke-opacity:1"
           transform="matrix(1.3333333,0,0,-1.3333333,7800,720)" /></g><g
         id="g531"><path
           id="path532"
           d="m 776.74,100.22 c 0,1.93 1.56,3.48 3.48,3.48 1.92,0 3.48,-1.55 3.48,-3.48 0,-1.916 -1.56,-3.473 -3.48,-3.473 -1.92,0 -3.48,1.557 -3.48,3.473 z"
           style="fill:#46b1e1;fill-opacity:1;fill-rule:evenodd;stroke:#042433;stroke-width:1.5;stroke-linecap:butt;stroke-linejoin:miter;stroke-miterlimit:10;stroke-dasharray:none;stroke-opacity:1"
           transform="matrix(1.3333333,0,0,-1.3333333,7800,720)" /></g><g
         id="g532"><path
           id="path533"
           d="m 776.74,72.14 c 0,1.921 1.56,3.478 3.48,3.478 1.92,0 3.48,-1.557 3.48,-3.478 0,-1.921 -1.56,-3.478 -3.48,-3.478 -1.92,0 -3.48,1.557 -3.48,3.478 z"
           style="fill:#46b1e1;fill-opacity:1;fill-rule:evenodd;stroke:#042433;stroke-width:1.5;stroke-linecap:butt;stroke-linejoin:miter;stroke-miterlimit:10;stroke-dasharray:none;stroke-opacity:1"
           transform="matrix(1.3333333,0,0,-1.3333333,7800,720)" /></g><g
         id="g533"><path
           id="path534"
           d="m 776.74,44.055 c 0,1.921 1.56,3.478 3.48,3.478 1.92,0 3.48,-1.557 3.48,-3.478 0,-1.921 -1.56,-3.479 -3.48,-3.479 -1.92,0 -3.48,1.558 -3.48,3.479 z"
           style="fill:#46b1e1;fill-opacity:1;fill-rule:evenodd;stroke:#042433;stroke-width:1.5;stroke-linecap:butt;stroke-linejoin:miter;stroke-miterlimit:10;stroke-dasharray:none;stroke-opacity:1"
           transform="matrix(1.3333333,0,0,-1.3333333,7800,720)" /></g><g
         id="g534"><path
           id="path535"
           d="M -0.83105469,-8.984375e-4 6.1181641,-11.836836 H 7.7822266 L 9.6455078,-8.984375e-4 h -1.59375 L 7.6533203,-3.3173047 H 2.7314453 L 0.85644531,-8.984375e-4 Z M 3.4462891,-4.6415234 h 4.03125 L 6.6572266,-10.254805 Z m 0,0"
           style="fill:#00b050;fill-opacity:1;fill-rule:nonzero;stroke:none"
           aria-label="A"
           transform="matrix(1.3333333,0,0,1.3333333,8716.6667,495.10667)"
           clip-path="url(#clipPath536)" /></g><g
         id="g536"><path
           id="path537"
           d="M 0.65664063,-8.984375e-4 3.1527344,-11.836836 h 3.65625 c 0.8203125,0 1.5029297,0.140625 2.0507812,0.421875 0.553711,0.28125 0.9492188,0.679688 1.1835934,1.195313 0.234375,0.5156246 0.272461,1.1191402 0.117188,1.8046871 -0.117188,0.5332031 -0.3955079,0.993164 -0.8320314,1.3828125 -0.4394531,0.383789 -0.9580078,0.6328125 -1.5585937,0.75 0.46875,0.1259765 0.8789062,0.3339843 1.2304687,0.6210937 0.3515625,0.2900391 0.600586,0.65625 0.75,1.1015625 0.1552735,0.4453125 0.1699219,0.9726563 0.046875,1.5820313 -0.1259765,0.6035156 -0.3925781,1.125 -0.796875,1.5703125 -0.4072265,0.44531246 -0.9550781,0.79394527 -1.640625,1.04296871 -0.6796875,0.24316406 -1.508789,0.3632812525 -2.484375,0.3632812525 z M 2.4847656,-1.3251172 h 2.5664063 c 0.84375,0 1.546875,-0.1552734 2.109375,-0.46875 0.5683594,-0.3105469 0.9257812,-0.7880859 1.0664062,-1.4296875 0.1552735,-0.7558594 0.017578,-1.3271484 -0.4101562,-1.7109375 -0.421875,-0.3896484 -1.0488281,-0.5859375 -1.875,-0.5859375 H 3.3753906 Z m 1.1835938,-5.484375 h 2.2148437 c 0.796875,0 1.4238282,-0.1523437 1.8867188,-0.4570312 0.4599609,-0.3105469 0.75,-0.741211 0.8671875,-1.2890625 0.1230469,-0.6152344 0.011719,-1.1015625 -0.3398438,-1.4531251 -0.3515625,-0.351562 -0.9228515,-0.527344 -1.7109375,-0.527344 H 4.4535156 Z m 0,0"
           style="fill:#46b1e1;fill-opacity:1;fill-rule:nonzero;stroke:none"
           aria-label="B"
           transform="matrix(1.3333333,0,0,1.3333333,8832.8667,495.10667)"
           clip-path="url(#clipPath538)" /></g><g
         id="g538"><path
           id="path539"
           d="m 700.74,156.59 h 67.35 v -1.5 h -67.35 z m 66.35,2.25 6,-3 -6,-3 z"
           style="fill:#000000;fill-opacity:1;fill-rule:nonzero;stroke:none"
           transform="matrix(1.3333333,0,0,-1.3333333,7800,720)" /></g><g
         id="g539"><path
           id="path540"
           d="m 700.98,128.9 67.61,-22.88 -0.48,-1.42 -67.61,22.88 z m 67.39,-20.43 4.72,-4.77 -6.65,-0.91 z"
           style="fill:#000000;fill-opacity:1;fill-rule:nonzero;stroke:none"
           transform="matrix(1.3333333,0,0,-1.3333333,7800,720)" /></g><g
         id="g540"><path
           id="path541"
           d="m 701,43.662 67.67,25.36 -0.53,1.404 -67.66,-25.359 z m 67.52,22.902 4.57,4.915 -6.67,0.703 z"
           style="fill:#000000;fill-opacity:1;fill-rule:nonzero;stroke:none"
           transform="matrix(1.3333333,0,0,-1.3333333,7800,720)" /></g><g
         id="g541"><path
           id="path542"
           d="m 700.97,100.15 67.59,-21.847 -0.46,-1.428 -67.59,21.85 z m 67.33,-19.399 4.79,-4.7 -6.63,-1.009 z"
           style="fill:#000000;fill-opacity:1;fill-rule:nonzero;stroke:none"
           transform="matrix(1.3333333,0,0,-1.3333333,7800,720)" /></g><g
         id="g542"><path
           id="path543"
           d="m 700.67,72.512 68.88,52.068 -0.9,1.19 -68.88,-52.061 z m 69.44,49.668 2.98,6.01 -6.6,-1.22 z"
           style="fill:#000000;fill-opacity:1;fill-rule:nonzero;stroke:none"
           transform="matrix(1.3333333,0,0,-1.3333333,7800,720)" /></g><g
         id="g543"><path
           id="path544"
           d="M 701.35,156.28 774.27,52.06 773.04,51.2 700.12,155.42 Z m 74.19,-102.111 0.98,-6.636 -5.9,3.196 z"
           style="fill:#000000;fill-opacity:1;fill-rule:nonzero;stroke:none"
           transform="matrix(1.3333333,0,0,-1.3333333,7800,720)" /></g><g
         id="g544"><path
           id="path545"
           d="M 1.4177734,-9.375e-5 V -8.5665 H 2.8826172 V -9.375e-5 Z M 2.1443359,-10.171969 c -0.2753906,0 -0.4980468,-0.07617 -0.6679687,-0.234375 -0.1640625,-0.164062 -0.2460938,-0.36914 -0.2460938,-0.621094 0,-0.240234 0.082031,-0.439453 0.2460938,-0.597656 0.1699219,-0.164062 0.3925781,-0.246094 0.6679687,-0.246094 0.272461,0 0.4951172,0.08203 0.6679688,0.246094 0.1699219,0.158203 0.2578125,0.357422 0.2578125,0.597656 0,0.251954 -0.087891,0.457032 -0.2578125,0.621094 -0.1728516,0.158203 -0.3955078,0.234375 -0.6679688,0.234375 z m 6.609375,10.33593775 c -0.4863281,0 -0.9433593,-0.0556641 -1.3710937,-0.1640625 C 6.9519531,-0.10849219 6.5740234,-0.27548438 6.2458984,-0.504 5.9177734,-0.72958594 5.6599609,-1.0254844 5.4724609,-1.394625 5.2908203,-1.769625 5.2029297,-2.2207969 5.2029297,-2.754 h 1.40625 c 0,0.6738281 0.2050781,1.1455078 0.6210937,1.4179687 0.413086,0.2666016 0.9316407,0.39843755 1.5585938,0.39843755 0.5537109,0 1.0107422,-0.10546875 1.3710938,-0.31640625 0.357422,-0.2109375 0.539062,-0.5625 0.539062,-1.0546875 0,-0.421875 -0.164062,-0.7324219 -0.492187,-0.9375 C 9.8845703,-3.457125 9.3162109,-3.6592734 8.4958984,-3.8555625 7.8220703,-4.0108359 7.2566406,-4.1895469 6.7966797,-4.394625 6.3425781,-4.6055625 6.0027344,-4.8692344 5.7771484,-5.1915 5.5486328,-5.5108359 5.4373047,-5.9122031 5.4373047,-6.3985313 c 0,-0.3808593 0.076172,-0.7177734 0.234375,-1.0078125 C 5.8357422,-7.6934531 6.0613281,-7.9366172 6.3513672,-8.1329063 6.6384766,-8.3262656 6.9783203,-8.47275 7.3708984,-8.5665 c 0.3984375,-0.09375 0.8232422,-0.140625 1.2773438,-0.140625 0.4511719,0 0.8730469,0.055664 1.265625,0.1640625 0.3984378,0.1025391 0.7499998,0.2666016 1.0546878,0.4921875 0.304687,0.2197266 0.541992,0.5039062 0.714843,0.8554687 0.178711,0.3515625 0.269532,0.7734375 0.269532,1.265625 h -1.429688 c 0,-0.609375 -0.18457,-1.0371093 -0.5507811,-1.2890625 -0.3603515,-0.2578125 -0.8027343,-0.3867187 -1.3242187,-0.3867187 -0.5244141,0 -0.9492188,0.09375 -1.2773438,0.28125 -0.328125,0.1875 -0.4921875,0.4804687 -0.4921875,0.8789062 0,0.2285157 0.070312,0.421875 0.2109375,0.5859375 0.1464844,0.1582032 0.3925782,0.2988282 0.7382813,0.421875 0.3515625,0.1259766 0.8203125,0.2578125 1.40625,0.3984375 0.6386719,0.1582032 1.1748043,0.3398438 1.6054683,0.5507813 0.436524,0.2109375 0.764649,0.4804687 0.984375,0.8085937 0.216797,0.328125 0.328125,0.75 0.328125,1.265625 0,0.4453125 -0.08789,0.8320313 -0.257812,1.1601563 -0.172852,0.328125 -0.416016,0.59765625 -0.726563,0.80859375 C 10.863086,-0.24032813 10.502734,-0.08798438 10.089648,0.011625 9.6736328,0.11123437 9.2283203,0.16396875 8.7537109,0.16396875 Z m 11.5722661,0 c -0.492188,0 -0.94336,-0.09375 -1.347657,-0.28125 -0.407226,-0.19335938 -0.732422,-0.47167969 -0.972656,-0.83203125 -0.243164,-0.3662109 -0.363281,-0.8203125 -0.363281,-1.359375 0,-0.7734375 0.237304,-1.359375 0.714844,-1.7578125 0.483398,-0.3984375 1.163085,-0.6679688 2.039062,-0.8085938 0.881836,-0.140625 1.910156,-0.2167968 3.082031,-0.234375 V -5.707125 c 0,-0.7324219 -0.18457,-1.2333984 -0.550781,-1.5 -0.360352,-0.2724609 -0.817383,-0.4101563 -1.371094,-0.4101563 -0.594726,0 -1.095703,0.1494141 -1.5,0.4453125 -0.398437,0.2988282 -0.597656,0.7705079 -0.597656,1.4179688 h -1.429687 c 0,-0.703125 0.152343,-1.2685547 0.457031,-1.6992188 0.304687,-0.4365234 0.717773,-0.7529296 1.242187,-0.9492187 0.530274,-0.2021484 1.139649,-0.3046875 1.828125,-0.3046875 0.436524,0 0.855469,0.043945 1.253907,0.1289062 0.404296,0.079102 0.767578,0.2285157 1.089843,0.4453125 0.319336,0.2109375 0.574219,0.5126954 0.761719,0.9023438 0.1875,0.3925781 0.28125,0.8964844 0.28125,1.5117187 V -9.375e-5 H 23.57207 L 23.513477,-1.300875 c -0.398438,0.43945312 -0.855469,0.79394531 -1.371094,1.06640625 -0.515625,0.26367187 -1.122071,0.3984375 -1.816406,0.3984375 z M 20.712695,-0.97275 c 0.585938,0 1.113282,-0.1347656 1.582032,-0.4101563 0.46875,-0.2724609 0.861328,-0.6210937 1.183593,-1.0429687 v -1.7460938 c -1.564453,0.023437 -2.683593,0.1728516 -3.363281,0.4453125 -0.673828,0.2753907 -1.007812,0.7236329 -1.007812,1.3476563 0,0.4306641 0.134765,0.7734375 0.410156,1.03125 0.272461,0.2519531 0.670898,0.375 1.195312,0.375 z M 31.332812,-9.375e-5 V -8.5665 h 1.40625 l 0.04687,1.3242187 c 0.257813,-0.3427734 0.626954,-0.6679687 1.113282,-0.9726562 0.483398,-0.3105469 1.089843,-0.46875 1.816406,-0.46875 0.952148,0 1.634766,0.2783203 2.050781,0.8320312 0.413086,0.5566407 0.621094,1.3330079 0.621094,2.3320313 V -9.375e-5 H 36.910937 V -5.3086875 c 0,-0.4130859 -0.04394,-0.7792969 -0.128906,-1.1015625 -0.08789,-0.328125 -0.243164,-0.5800781 -0.46875,-0.7617188 -0.228515,-0.1875 -0.55664,-0.28125 -0.984375,-0.28125 -0.603515,0 -1.113281,0.1464844 -1.535156,0.4335938 -0.416016,0.2900391 -0.74707,0.6064453 -0.996094,0.9492187 V -9.375e-5 Z m 11.144532,0 V -5.3086875 c 0,-0.4130859 -0.04395,-0.7792969 -0.128907,-1.1015625 -0.08789,-0.328125 -0.243164,-0.5800781 -0.46875,-0.7617188 -0.228515,-0.1875 -0.550781,-0.28125 -0.972656,-0.28125 -0.609375,0 -1.125,0.1464844 -1.546875,0.4335938 -0.416015,0.28125 -0.755859,0.5947266 -1.019531,0.9375 L 38.117969,-7.16025 c 0.333984,-0.375 0.761718,-0.7207031 1.277343,-1.0429688 0.521485,-0.3193359 1.148438,-0.4804687 1.875,-0.4804687 0.952149,0 1.634766,0.2783203 2.050782,0.8320312 0.413086,0.5566407 0.621093,1.3330079 0.621093,2.3320313 V -9.375e-5 Z m 6.413086,0.1640625 c -0.492188,0 -0.94336,-0.09375 -1.347657,-0.28125 -0.407226,-0.19335938 -0.732421,-0.47167969 -0.972656,-0.83203125 -0.243164,-0.3662109 -0.363281,-0.8203125 -0.363281,-1.359375 0,-0.7734375 0.237305,-1.359375 0.714844,-1.7578125 0.483398,-0.3984375 1.163086,-0.6679688 2.039062,-0.8085938 0.881836,-0.140625 1.910156,-0.2167968 3.082031,-0.234375 V -5.707125 c 0,-0.7324219 -0.18457,-1.2333984 -0.550781,-1.5 -0.360351,-0.2724609 -0.817383,-0.4101563 -1.371094,-0.4101563 -0.594726,0 -1.095703,0.1494141 -1.5,0.4453125 -0.398437,0.2988282 -0.597656,0.7705079 -0.597656,1.4179688 h -1.429687 c 0,-0.703125 0.152343,-1.2685547 0.457031,-1.6992188 0.304687,-0.4365234 0.717773,-0.7529296 1.242187,-0.9492187 0.530274,-0.2021484 1.139649,-0.3046875 1.828125,-0.3046875 0.436524,0 0.855469,0.043945 1.253907,0.1289062 0.404297,0.079102 0.767578,0.2285157 1.089843,0.4453125 0.319336,0.2109375 0.574219,0.5126954 0.761719,0.9023438 0.1875,0.3925781 0.28125,0.8964844 0.28125,1.5117187 V -9.375e-5 H 52.136523 L 52.07793,-1.300875 c -0.398438,0.43945312 -0.855469,0.79394531 -1.371094,1.06640625 -0.515625,0.26367187 -1.12207,0.3984375 -1.816406,0.3984375 z M 49.277148,-0.97275 c 0.585938,0 1.113282,-0.1347656 1.582032,-0.4101563 0.46875,-0.2724609 0.861328,-0.6210937 1.183593,-1.0429687 v -1.7460938 c -1.564453,0.023437 -2.683593,0.1728516 -3.363281,0.4453125 -0.673828,0.2753907 -1.007812,0.7236329 -1.007812,1.3476563 0,0.4306641 0.134765,0.7734375 0.410156,1.03125 0.272461,0.2519531 0.670898,0.375 1.195312,0.375 z m 6.969727,4.125 V -8.5665 h 1.417969 l 0.04687,1.40625 c 0.304687,-0.4599609 0.697265,-0.8320313 1.183593,-1.1132813 0.483399,-0.2871093 1.045899,-0.4335937 1.6875,-0.4335937 0.703125,0 1.306641,0.1640625 1.816407,0.4921875 0.506836,0.328125 0.896484,0.8203125 1.171875,1.4765625 0.28125,0.65625 0.421875,1.4765625 0.421875,2.4609375 0,0.9609375 -0.149414,1.7753906 -0.445313,2.4375 -0.290039,0.65625 -0.703125,1.15722656 -1.242187,1.5 -0.539063,0.33691406 -1.171875,0.50390625 -1.898438,0.50390625 -0.609375,0 -1.145508,-0.12304688 -1.605469,-0.36328125 C 58.347461,-0.44833594 57.98125,-0.78525 57.7,-1.207125 V 3.15225 Z m 3.878906,-4.1953125 c 0.779297,0 1.365235,-0.28125 1.757813,-0.84375 0.398437,-0.5625 0.597656,-1.359375 0.597656,-2.390625 0,-1.0546875 -0.18457,-1.8574219 -0.550781,-2.4140625 -0.369141,-0.5537109 -0.911133,-0.8320313 -1.628907,-0.8320313 -0.626953,0 -1.154296,0.1699219 -1.582031,0.5039063 -0.430664,0.328125 -0.767578,0.7148437 -1.007812,1.1601562 v 3.3046875 c 0.234375,0.4453125 0.550781,0.8085938 0.949218,1.0898438 0.398438,0.28125 0.884766,0.421875 1.464844,0.421875 z m 0,0"
           style="fill:#000000;fill-opacity:1;fill-rule:nonzero;stroke:none"
           aria-label="is a map"
           transform="matrix(1.3333333,0,0,1.3333333,8015.0667,696.672)"
           clip-path="url(#clipPath546)" /></g><g
         id="g546"><path
           id="path547"
           d="M 1.4171484,-4.453125e-4 V -8.5668516 h 1.40625 l 0.046875,1.3242188 c 0.2636719,-0.3427735 0.6445313,-0.6679688 1.1367188,-0.9726563 0.4921875,-0.3105468 1.1191406,-0.46875 1.8867187,-0.46875 0.9375,0 1.6201172,0.2783203 2.0507813,0.8320313 0.4277344,0.5566406 0.6445312,1.3330078 0.6445312,2.3320312 V -4.453125e-4 H 7.1241797 V -5.3090391 c 0,-0.4130859 -0.046875,-0.7792968 -0.140625,-1.1015625 -0.087891,-0.328125 -0.2431641,-0.5800781 -0.46875,-0.7617187 -0.2285156,-0.1875 -0.5507813,-0.28125 -0.9726563,-0.28125 -0.6416015,0 -1.180664,0.1464844 -1.6171875,0.4335937 -0.430664,0.2900391 -0.7792968,0.6064453 -1.0429687,0.9492188 V -4.453125e-4 Z M 14.840977,0.14017969 c -0.837891,0 -1.555664,-0.17578125 -2.15625,-0.52734375 C 12.09,-0.74458594 11.635898,-1.2543516 11.325352,-1.9106016 c -0.313477,-0.6621093 -0.46875,-1.4472656 -0.46875,-2.3554687 0,-0.928711 0.155273,-1.725586 0.46875,-2.390625 0.310546,-0.6621094 0.764648,-1.1748047 1.359375,-1.5351563 0.600586,-0.3574218 1.318359,-0.5390625 2.15625,-0.5390625 0.858398,0 1.58789,0.1816407 2.191406,0.5390625 0.609375,0.3603516 1.072265,0.8730469 1.394531,1.5351563 0.328125,0.665039 0.492188,1.461914 0.492188,2.390625 0,0.9082031 -0.164063,1.6933594 -0.492188,2.3554687 -0.322266,0.65625 -0.785156,1.16601566 -1.394531,1.52343754 -0.603516,0.3515625 -1.333008,0.52734375 -2.191406,0.52734375 z m 0,-1.17187499 c 0.632812,0 1.136718,-0.1347656 1.511718,-0.4101563 0.375,-0.28125 0.644532,-0.6621093 0.808594,-1.1484375 0.164063,-0.4921875 0.246094,-1.0488281 0.246094,-1.6757812 0,-0.6328125 -0.08203,-1.1953125 -0.246094,-1.6875 -0.164062,-0.4980469 -0.433594,-0.890625 -0.808594,-1.171875 -0.375,-0.2871094 -0.878906,-0.4335938 -1.511718,-0.4335938 -0.618164,0 -1.107422,0.1464844 -1.464844,0.4335938 -0.360352,0.28125 -0.618164,0.6738281 -0.773438,1.171875 -0.158203,0.4921875 -0.234375,1.0546875 -0.234375,1.6875 0,0.6269531 0.07617,1.1835937 0.234375,1.6757812 0.155274,0.4863282 0.413086,0.8671875 0.773438,1.1484375 0.357422,0.2753907 0.84668,0.4101563 1.464844,0.4101563 z m 9.345703,1.0312499875 c -0.697266,0 -1.227539,-0.1083984375 -1.59375,-0.3281249975 -0.369141,-0.21679688 -0.621094,-0.53320313 -0.761719,-0.94921879 -0.140625,-0.4130859 -0.210938,-0.9082031 -0.210938,-1.4882812 v -4.6054688 h -1.429687 v -1.1953125 h 1.429687 v -1.9570314 h 1.464844 v 1.9570314 h 2.109375 v 1.1953125 h -2.109375 v 4.5351563 c 0,0.5332031 0.06445,0.9433594 0.199219,1.2304687 0.140625,0.28125 0.47168,0.421875 0.996094,0.421875 h 0.925781 V -4.453125e-4 Z M 32.943516,0.16361719 c -0.492188,0 -0.94336,-0.09375 -1.347657,-0.28125 C 31.188633,-0.31099219 30.863438,-0.5893125 30.623203,-0.94966406 30.380039,-1.315875 30.259922,-1.7699766 30.259922,-2.3090391 c 0,-0.7734375 0.237305,-1.359375 0.714844,-1.7578125 0.483398,-0.3984375 1.163086,-0.6679687 2.039062,-0.8085937 0.881836,-0.140625 1.910156,-0.2167969 3.082031,-0.234375 v -0.5976563 c 0,-0.7324218 -0.18457,-1.2333984 -0.550781,-1.5 -0.360351,-0.2724609 -0.817383,-0.4101562 -1.371094,-0.4101562 -0.594726,0 -1.095703,0.149414 -1.5,0.4453125 -0.398437,0.2988281 -0.597656,0.7705078 -0.597656,1.4179687 h -1.429687 c 0,-0.703125 0.152343,-1.2685547 0.457031,-1.6992187 0.304687,-0.4365235 0.717773,-0.7529297 1.242187,-0.9492188 0.530274,-0.2021484 1.139649,-0.3046875 1.828125,-0.3046875 0.436524,0 0.855469,0.043945 1.253907,0.1289063 0.404297,0.079102 0.767578,0.2285156 1.089843,0.4453125 0.319336,0.2109375 0.574219,0.5126953 0.761719,0.9023437 0.1875,0.3925782 0.28125,0.8964844 0.28125,1.5117188 V -4.453125e-4 H 36.189609 L 36.131016,-1.3012266 c -0.398438,0.43945316 -0.855469,0.79394535 -1.371094,1.06640629 -0.515625,0.26367187 -1.12207,0.3984375 -1.816406,0.3984375 z m 0.386718,-1.13671875 c 0.585938,0 1.113282,-0.13476564 1.582032,-0.41015624 0.46875,-0.272461 0.861328,-0.6210938 1.183593,-1.0429688 v -1.7460937 c -1.564453,0.023437 -2.683593,0.1728515 -3.363281,0.4453125 -0.673828,0.2753906 -1.007812,0.7236328 -1.007812,1.3476562 0,0.4306641 0.134765,0.7734375 0.410156,1.03125 0.272461,0.2519532 0.670898,0.37500004 1.195312,0.37500004 z M 43.880039,-4.453125e-4 V -8.5668516 h 1.40625 l 0.04687,1.3242188 c 0.257813,-0.3427735 0.626953,-0.6679688 1.113281,-0.9726563 0.483399,-0.3105468 1.089844,-0.46875 1.816407,-0.46875 0.952148,0 1.634765,0.2783203 2.050781,0.8320313 0.413086,0.5566406 0.621094,1.3330078 0.621094,2.3320312 V -4.453125e-4 H 49.458164 V -5.3090391 c 0,-0.4130859 -0.04394,-0.7792968 -0.128906,-1.1015625 -0.08789,-0.328125 -0.243164,-0.5800781 -0.46875,-0.7617187 -0.228516,-0.1875 -0.556641,-0.28125 -0.984375,-0.28125 -0.603516,0 -1.113281,0.1464844 -1.535156,0.4335937 -0.416016,0.2900391 -0.747071,0.6064453 -0.996094,0.9492188 v 6.0703124875 z m 11.144531,0 V -5.3090391 c 0,-0.4130859 -0.04394,-0.7792968 -0.128906,-1.1015625 -0.08789,-0.328125 -0.243164,-0.5800781 -0.46875,-0.7617187 -0.228516,-0.1875 -0.550781,-0.28125 -0.972656,-0.28125 -0.609375,0 -1.125,0.1464844 -1.546875,0.4335937 -0.416016,0.28125 -0.75586,0.5947266 -1.019531,0.9375 l -0.222657,-1.078125 c 0.333985,-0.375 0.761719,-0.7207031 1.277344,-1.0429687 0.521484,-0.319336 1.148438,-0.4804688 1.875,-0.4804688 0.952149,0 1.634766,0.2783203 2.050781,0.8320313 0.413086,0.5566406 0.621094,1.3330078 0.621094,2.3320312 V -4.453125e-4 Z M 61.437656,0.16361719 c -0.492187,0 -0.943359,-0.09375 -1.347656,-0.28125 C 59.682773,-0.31099219 59.357578,-0.5893125 59.117344,-0.94966406 58.87418,-1.315875 58.754063,-1.7699766 58.754063,-2.3090391 c 0,-0.7734375 0.237304,-1.359375 0.714843,-1.7578125 0.483399,-0.3984375 1.163086,-0.6679687 2.039063,-0.8085937 0.881836,-0.140625 1.910156,-0.2167969 3.082031,-0.234375 v -0.5976563 c 0,-0.7324218 -0.18457,-1.2333984 -0.550781,-1.5 -0.360352,-0.2724609 -0.817383,-0.4101562 -1.371094,-0.4101562 -0.594727,0 -1.095703,0.149414 -1.5,0.4453125 -0.398437,0.2988281 -0.597656,0.7705078 -0.597656,1.4179687 h -1.429688 c 0,-0.703125 0.152344,-1.2685547 0.457032,-1.6992187 C 59.9025,-7.8900938 60.315586,-8.2065 60.84,-8.4027891 c 0.530273,-0.2021484 1.139648,-0.3046875 1.828125,-0.3046875 0.436523,0 0.855469,0.043945 1.253906,0.1289063 0.404297,0.079102 0.767578,0.2285156 1.089844,0.4453125 0.319336,0.2109375 0.574219,0.5126953 0.761719,0.9023437 0.1875,0.3925782 0.28125,0.8964844 0.28125,1.5117188 V -4.453125e-4 H 64.68375 L 64.625156,-1.3012266 c -0.398437,0.43945316 -0.855468,0.79394535 -1.371093,1.06640629 -0.515625,0.26367187 -1.122071,0.3984375 -1.816407,0.3984375 z m 0.386719,-1.13671875 c 0.585938,0 1.113281,-0.13476564 1.582031,-0.41015624 0.46875,-0.272461 0.861328,-0.6210938 1.183594,-1.0429688 v -1.7460937 c -1.564453,0.023437 -2.683594,0.1728515 -3.363281,0.4453125 -0.673828,0.2753906 -1.007813,0.7236328 -1.007813,1.3476562 0,0.4306641 0.134766,0.7734375 0.410157,1.03125 0.27246,0.2519532 0.670898,0.37500004 1.195312,0.37500004 z m 6.966797,4.12499996 v -11.71875 h 1.417969 l 0.04687,1.40625 c 0.304687,-0.4599609 0.697265,-0.8320312 1.183593,-1.1132812 0.483399,-0.2871094 1.045899,-0.4335938 1.6875,-0.4335938 0.703125,0 1.306641,0.1640625 1.816407,0.4921875 0.506836,0.328125 0.896484,0.8203125 1.171875,1.4765625 0.28125,0.65625 0.421875,1.4765625 0.421875,2.4609375 0,0.9609375 -0.149414,1.7753907 -0.445313,2.4375 -0.290039,0.65625 -0.703125,1.1572266 -1.242187,1.50000004 -0.539063,0.33691406 -1.171875,0.50390625 -1.898438,0.50390625 -0.609375,0 -1.145508,-0.12304688 -1.605469,-0.36328125 -0.454101,-0.24902344 -0.820312,-0.5859375 -1.101562,-1.00781254 v 4.359375 z m 3.878906,-4.1953125 c 0.779297,0 1.365235,-0.28125 1.757813,-0.84375 0.398437,-0.5625 0.597656,-1.359375 0.597656,-2.390625 0,-1.0546875 -0.18457,-1.8574218 -0.550781,-2.4140625 -0.369141,-0.5537109 -0.911133,-0.8320312 -1.628907,-0.8320312 -0.626953,0 -1.154296,0.1699219 -1.582031,0.5039062 -0.430664,0.328125 -0.767578,0.7148438 -1.007812,1.1601563 v 3.3046875 c 0.234375,0.4453125 0.550781,0.8085937 0.949218,1.0898437 0.398438,0.28125 0.884766,0.421875 1.464844,0.421875 z m 0,0"
           style="fill:#000000;fill-opacity:1;fill-rule:nonzero;stroke:none"
           aria-label="not a map"
           transform="matrix(1.3333333,0,0,1.3333333,8378.88,696.192)"
           clip-path="url(#clipPath548)" /></g><g
         id="g548"><path
           id="path549"
           d="M 1.4190625,-4.453125e-4 V -8.5668516 h 1.40625 l 0.046875,1.3242188 c 0.2636719,-0.3427735 0.6445313,-0.6679688 1.1367188,-0.9726563 0.4921875,-0.3105468 1.1191406,-0.46875 1.8867187,-0.46875 0.9375,0 1.6201172,0.2783203 2.0507813,0.8320313 0.4277343,0.5566406 0.6445312,1.3330078 0.6445312,2.3320312 V -4.453125e-4 H 7.1260938 V -5.3090391 c 0,-0.4130859 -0.046875,-0.7792968 -0.140625,-1.1015625 -0.087891,-0.328125 -0.2431641,-0.5800781 -0.46875,-0.7617187 -0.2285157,-0.1875 -0.5507813,-0.28125 -0.9726563,-0.28125 -0.6416016,0 -1.1806641,0.1464844 -1.6171875,0.4335937 -0.4306641,0.2900391 -0.7792969,0.6064453 -1.0429687,0.9492188 V -4.453125e-4 Z M 14.839961,0.14017969 c -0.837891,0 -1.555664,-0.17578125 -2.15625,-0.52734375 -0.594727,-0.35742188 -1.048828,-0.86718754 -1.359375,-1.52343754 -0.313477,-0.6621093 -0.46875,-1.4472656 -0.46875,-2.3554687 0,-0.928711 0.155273,-1.725586 0.46875,-2.390625 0.310547,-0.6621094 0.764648,-1.1748047 1.359375,-1.5351563 0.600586,-0.3574218 1.318359,-0.5390625 2.15625,-0.5390625 0.858398,0 1.587891,0.1816407 2.191406,0.5390625 0.609375,0.3603516 1.072266,0.8730469 1.394531,1.5351563 0.328125,0.665039 0.492188,1.461914 0.492188,2.390625 0,0.9082031 -0.164063,1.6933594 -0.492188,2.3554687 -0.322265,0.65625 -0.785156,1.16601566 -1.394531,1.52343754 -0.603515,0.3515625 -1.333008,0.52734375 -2.191406,0.52734375 z m 0,-1.17187499 c 0.632812,0 1.136719,-0.1347656 1.511719,-0.4101563 0.375,-0.28125 0.644531,-0.6621093 0.808593,-1.1484375 0.164063,-0.4921875 0.246094,-1.0488281 0.246094,-1.6757812 0,-0.6328125 -0.08203,-1.1953125 -0.246094,-1.6875 -0.164062,-0.4980469 -0.433593,-0.890625 -0.808593,-1.171875 -0.375,-0.2871094 -0.878907,-0.4335938 -1.511719,-0.4335938 -0.618164,0 -1.107422,0.1464844 -1.464844,0.4335938 -0.360351,0.28125 -0.618164,0.6738281 -0.773437,1.171875 -0.158203,0.4921875 -0.234375,1.0546875 -0.234375,1.6875 0,0.6269531 0.07617,1.1835937 0.234375,1.6757812 0.155273,0.4863282 0.413086,0.8671875 0.773437,1.1484375 0.357422,0.2753907 0.84668,0.4101563 1.464844,0.4101563 z m 9.345703,1.0312499875 c -0.697266,0 -1.227539,-0.1083984375 -1.59375,-0.3281249975 C 22.222773,-0.54536719 21.97082,-0.86177344 21.830195,-1.2777891 21.68957,-1.690875 21.619258,-2.1859922 21.619258,-2.7660703 V -7.3715391 H 20.18957 v -1.1953125 h 1.429688 v -1.9570314 h 1.464844 v 1.9570314 h 2.109375 v 1.1953125 h -2.109375 v 4.5351563 c 0,0.5332031 0.06445,0.9433594 0.199218,1.2304687 0.140625,0.28125 0.47168,0.421875 0.996094,0.421875 h 0.925781 V -4.453125e-4 Z M 32.9425,0.16361719 c -0.492187,0 -0.943359,-0.09375 -1.347656,-0.28125 C 31.187617,-0.31099219 30.862422,-0.5893125 30.622188,-0.94966406 30.379023,-1.315875 30.258906,-1.7699766 30.258906,-2.3090391 c 0,-0.7734375 0.237305,-1.359375 0.714844,-1.7578125 0.483398,-0.3984375 1.163086,-0.6679687 2.039063,-0.8085937 0.881835,-0.140625 1.910156,-0.2167969 3.082031,-0.234375 v -0.5976563 c 0,-0.7324218 -0.184571,-1.2333984 -0.550781,-1.5 -0.360352,-0.2724609 -0.817383,-0.4101562 -1.371094,-0.4101562 -0.594727,0 -1.095703,0.149414 -1.5,0.4453125 -0.398438,0.2988281 -0.597656,0.7705078 -0.597656,1.4179687 h -1.429688 c 0,-0.703125 0.152344,-1.2685547 0.457031,-1.6992187 0.304688,-0.4365235 0.717774,-0.7529297 1.242188,-0.9492188 0.530273,-0.2021484 1.139648,-0.3046875 1.828125,-0.3046875 0.436523,0 0.855469,0.043945 1.253906,0.1289063 0.404297,0.079102 0.767578,0.2285156 1.089844,0.4453125 0.319336,0.2109375 0.574219,0.5126953 0.761719,0.9023437 0.1875,0.3925782 0.28125,0.8964844 0.28125,1.5117188 V -4.453125e-4 H 36.188594 L 36.13,-1.3012266 c -0.398437,0.43945316 -0.855469,0.79394535 -1.371094,1.06640629 -0.515625,0.26367187 -1.12207,0.3984375 -1.816406,0.3984375 z m 0.386719,-1.13671875 c 0.585937,0 1.113281,-0.13476564 1.582031,-0.41015624 0.46875,-0.272461 0.861328,-0.6210938 1.183594,-1.0429688 v -1.7460937 c -1.564453,0.023437 -2.683594,0.1728515 -3.363281,0.4453125 -0.673829,0.2753906 -1.007813,0.7236328 -1.007813,1.3476562 0,0.4306641 0.134766,0.7734375 0.410156,1.03125 0.272461,0.2519532 0.670899,0.37500004 1.195313,0.37500004 z M 43.879023,-4.453125e-4 V -8.5668516 h 1.40625 l 0.04687,1.3242188 c 0.257813,-0.3427735 0.626954,-0.6679688 1.113282,-0.9726563 0.483398,-0.3105468 1.089843,-0.46875 1.816406,-0.46875 0.952148,0 1.634766,0.2783203 2.050781,0.8320313 0.413086,0.5566406 0.621094,1.3330078 0.621094,2.3320312 V -4.453125e-4 H 49.457148 V -5.3090391 c 0,-0.4130859 -0.04394,-0.7792968 -0.128906,-1.1015625 -0.08789,-0.328125 -0.243164,-0.5800781 -0.46875,-0.7617187 -0.228515,-0.1875 -0.55664,-0.28125 -0.984375,-0.28125 -0.603515,0 -1.113281,0.1464844 -1.535156,0.4335937 -0.416016,0.2900391 -0.74707,0.6064453 -0.996094,0.9492188 v 6.0703124875 z m 11.144532,0 V -5.3090391 c 0,-0.4130859 -0.04395,-0.7792968 -0.128907,-1.1015625 -0.08789,-0.328125 -0.243164,-0.5800781 -0.46875,-0.7617187 -0.228515,-0.1875 -0.550781,-0.28125 -0.972656,-0.28125 -0.609375,0 -1.125,0.1464844 -1.546875,0.4335937 -0.416015,0.28125 -0.755859,0.5947266 -1.019531,0.9375 l -0.222656,-1.078125 c 0.333984,-0.375 0.761718,-0.7207031 1.277343,-1.0429687 0.521485,-0.319336 1.148438,-0.4804688 1.875,-0.4804688 0.952149,0 1.634766,0.2783203 2.050782,0.8320313 0.413086,0.5566406 0.621093,1.3330078 0.621093,2.3320312 V -4.453125e-4 Z M 61.436641,0.16361719 c -0.492188,0 -0.94336,-0.09375 -1.347657,-0.28125 C 59.681758,-0.31099219 59.356563,-0.5893125 59.116328,-0.94966406 58.873164,-1.315875 58.753047,-1.7699766 58.753047,-2.3090391 c 0,-0.7734375 0.237305,-1.359375 0.714844,-1.7578125 0.483398,-0.3984375 1.163086,-0.6679687 2.039062,-0.8085937 0.881836,-0.140625 1.910156,-0.2167969 3.082031,-0.234375 v -0.5976563 c 0,-0.7324218 -0.18457,-1.2333984 -0.550781,-1.5 -0.360351,-0.2724609 -0.817383,-0.4101562 -1.371094,-0.4101562 -0.594726,0 -1.095703,0.149414 -1.5,0.4453125 -0.398437,0.2988281 -0.597656,0.7705078 -0.597656,1.4179687 h -1.429687 c 0,-0.703125 0.152343,-1.2685547 0.457031,-1.6992187 0.304687,-0.4365235 0.717773,-0.7529297 1.242187,-0.9492188 0.530274,-0.2021484 1.139649,-0.3046875 1.828125,-0.3046875 0.436524,0 0.855469,0.043945 1.253907,0.1289063 0.404297,0.079102 0.767578,0.2285156 1.089843,0.4453125 0.319336,0.2109375 0.574219,0.5126953 0.761719,0.9023437 0.1875,0.3925782 0.28125,0.8964844 0.28125,1.5117188 V -4.453125e-4 H 64.682734 L 64.624141,-1.3012266 c -0.398438,0.43945316 -0.855469,0.79394535 -1.371094,1.06640629 -0.515625,0.26367187 -1.12207,0.3984375 -1.816406,0.3984375 z m 0.386718,-1.13671875 c 0.585938,0 1.113282,-0.13476564 1.582032,-0.41015624 0.46875,-0.272461 0.861328,-0.6210938 1.183593,-1.0429688 v -1.7460937 c -1.564453,0.023437 -2.683593,0.1728515 -3.363281,0.4453125 -0.673828,0.2753906 -1.007812,0.7236328 -1.007812,1.3476562 0,0.4306641 0.134765,0.7734375 0.410156,1.03125 0.272461,0.2519532 0.670898,0.37500004 1.195312,0.37500004 z m 6.969727,4.12499996 v -11.71875 h 1.417969 l 0.04687,1.40625 c 0.304687,-0.4599609 0.697265,-0.8320312 1.183593,-1.1132812 0.483399,-0.2871094 1.045899,-0.4335938 1.6875,-0.4335938 0.703125,0 1.306641,0.1640625 1.816407,0.4921875 0.506836,0.328125 0.896484,0.8203125 1.171875,1.4765625 0.28125,0.65625 0.421875,1.4765625 0.421875,2.4609375 0,0.9609375 -0.149414,1.7753907 -0.445313,2.4375 -0.290039,0.65625 -0.703125,1.1572266 -1.242187,1.50000004 -0.539063,0.33691406 -1.171875,0.50390625 -1.898438,0.50390625 -0.609375,0 -1.145508,-0.12304688 -1.605469,-0.36328125 -0.454101,-0.24902344 -0.820312,-0.5859375 -1.101562,-1.00781254 v 4.359375 z m 3.878906,-4.1953125 c 0.779297,0 1.365235,-0.28125 1.757813,-0.84375 0.398437,-0.5625 0.597656,-1.359375 0.597656,-2.390625 0,-1.0546875 -0.18457,-1.8574218 -0.550781,-2.4140625 -0.369141,-0.5537109 -0.911133,-0.8320312 -1.628907,-0.8320312 -0.626953,0 -1.154296,0.1699219 -1.582031,0.5039062 -0.430664,0.328125 -0.767578,0.7148438 -1.007812,1.1601563 v 3.3046875 c 0.234375,0.4453125 0.550781,0.8085937 0.949218,1.0898437 0.398438,0.28125 0.884766,0.421875 1.464844,0.421875 z m 0,0"
           style="fill:#000000;fill-opacity:1;fill-rule:nonzero;stroke:none"
           aria-label="not a map"
           transform="matrix(1.3333333,0,0,1.3333333,8733.8267,696.192)"
           clip-path="url(#clipPath550)" /></g><g
         id="g550"><path
           id="path551"
           d="m 420.83,36.831 h 14.957 V 51.897 H 420.83 Z"
           style="fill:none;stroke:#ff0000;stroke-width:1.5;stroke-linecap:butt;stroke-linejoin:miter;stroke-miterlimit:10;stroke-dasharray:none;stroke-opacity:1"
           transform="matrix(1.3333333,0,0,-1.3333333,7800,720)" /></g><g
         id="g551"><path
           id="path552"
           d="m 685.78,148.31 h 14.957 v 15.066 H 685.78 Z"
           style="fill:none;stroke:#ff0000;stroke-width:1.5;stroke-linecap:butt;stroke-linejoin:miter;stroke-miterlimit:10;stroke-dasharray:none;stroke-opacity:1"
           transform="matrix(1.3333333,0,0,-1.3333333,7800,720)" /></g></g></g></svg>
