<?xml version="1.0" encoding="UTF-8" standalone="no"?>
<!-- Created with Inkscape (http://www.inkscape.org/) -->

<svg
   version="1.1"
   id="svg1"
   width="294.81482"
   height="162.40021"
   viewBox="0 0 294.81482 162.40021"
   xmlns="http://www.w3.org/2000/svg"
   xmlns:svg="http://www.w3.org/2000/svg">
  <defs
     id="defs1">
    <clipPath
       clipPathUnits="userSpaceOnUse"
       id="clipPath7">
      <path
         d="M 0,1.2207e-4 H 960 V 540.00012 H 0 Z"
         clip-rule="evenodd"
         id="path7" />
    </clipPath>
    <clipPath
       clipPathUnits="userSpaceOnUse"
       id="clipPath218">
      <path
         d="M 1.4305e-5,0 H 960.00001 V 540 H 1.4305e-5 Z"
         transform="matrix(1,0,0,-1,-699.38002,423.43001)"
         clip-rule="evenodd"
         id="path218" />
    </clipPath>
    <clipPath
       clipPathUnits="userSpaceOnUse"
       id="clipPath220">
      <path
         d="M 1.4305e-5,0 H 960.00001 V 540 H 1.4305e-5 Z"
         transform="matrix(1,0,0,-1,-786.53004,423.43001)"
         clip-rule="evenodd"
         id="path220" />
    </clipPath>
    <clipPath
       clipPathUnits="userSpaceOnUse"
       id="clipPath226">
      <path
         d="M 1.4305e-5,0 H 960.00001 V 540 H 1.4305e-5 Z"
         transform="matrix(1,0,0,-1,-744.17002,429.89001)"
         clip-rule="evenodd"
         id="path226" />
    </clipPath>
    <clipPath
       clipPathUnits="userSpaceOnUse"
       id="clipPath236">
      <path
         d="M 1.4305e-5,0 H 960.00001 V 540 H 1.4305e-5 Z"
         transform="matrix(1,0,0,-1,-909.89005,423.43001)"
         clip-rule="evenodd"
         id="path236" />
    </clipPath>
    <clipPath
       clipPathUnits="userSpaceOnUse"
       id="clipPath238">
      <path
         d="M 1.4305e-5,0 H 960.00001 V 540 H 1.4305e-5 Z"
         transform="matrix(1,0,0,-1,-822.86005,423.43001)"
         clip-rule="evenodd"
         id="path238" />
    </clipPath>
    <clipPath
       clipPathUnits="userSpaceOnUse"
       id="clipPath244">
      <path
         d="M 1.4305e-5,0 H 960.00001 V 540 H 1.4305e-5 Z"
         transform="matrix(1,0,0,-1,-864.41005,429.89001)"
         clip-rule="evenodd"
         id="path244" />
    </clipPath>
    <clipPath
       clipPathUnits="userSpaceOnUse"
       id="clipPath246">
      <path
         d="M 1.4305e-5,0 H 960.00001 V 540 H 1.4305e-5 Z"
         transform="matrix(1,0,0,-1,-870.17005,435.89001)"
         clip-rule="evenodd"
         id="path246" />
    </clipPath>
  </defs>
  <g
     id="g1"
     transform="translate(-931.39844,-127.45312)">
    <g
       id="g5">
      <path
         id="path6"
         d="m 57.6,6.1035e-5 h 837 V 396.36006 h -837 z"
         style="fill:none;stroke:#000000;stroke-width:0.14;stroke-linecap:butt;stroke-linejoin:miter;stroke-miterlimit:10;stroke-dasharray:none;stroke-opacity:0"
         transform="matrix(1.3333333,0,0,-1.3333333,0,720)"
         clip-path="url(#clipPath7)" />
    </g>
    <g
       id="g208">
      <path
         id="path209"
         d="m 701.49,410.54 c 0,1.92 1.56,3.48 3.48,3.48 1.92,0 3.48,-1.56 3.48,-3.48 0,-1.92 -1.56,-3.48 -3.48,-3.48 -1.92,0 -3.48,1.56 -3.48,3.48 z"
         style="fill:#47d45a;fill-opacity:1;fill-rule:evenodd;stroke:#042433;stroke-width:1.5;stroke-linecap:butt;stroke-linejoin:miter;stroke-miterlimit:10;stroke-dasharray:none;stroke-opacity:1"
         transform="matrix(1.3333333,0,0,-1.3333333,0,720)" />
    </g>
    <g
       id="g209">
      <path
         id="path210"
         d="m 701.49,382.55 c 0,1.92 1.56,3.48 3.48,3.48 1.92,0 3.48,-1.56 3.48,-3.48 0,-1.92 -1.56,-3.48 -3.48,-3.48 -1.92,0 -3.48,1.56 -3.48,3.48 z"
         style="fill:#47d45a;fill-opacity:1;fill-rule:evenodd;stroke:#042433;stroke-width:1.5;stroke-linecap:butt;stroke-linejoin:miter;stroke-miterlimit:10;stroke-dasharray:none;stroke-opacity:1"
         transform="matrix(1.3333333,0,0,-1.3333333,0,720)" />
    </g>
    <g
       id="g210">
      <path
         id="path211"
         d="m 701.49,354.92 c 0,1.92 1.56,3.48 3.48,3.48 1.92,0 3.48,-1.56 3.48,-3.48 0,-1.92 -1.56,-3.47 -3.48,-3.47 -1.92,0 -3.48,1.55 -3.48,3.47 z"
         style="fill:#47d45a;fill-opacity:1;fill-rule:evenodd;stroke:#042433;stroke-width:1.5;stroke-linecap:butt;stroke-linejoin:miter;stroke-miterlimit:10;stroke-dasharray:none;stroke-opacity:1"
         transform="matrix(1.3333333,0,0,-1.3333333,0,720)" />
    </g>
    <g
       id="g211">
      <path
         id="path212"
         d="m 701.49,326.84 c 0,1.92 1.56,3.48 3.48,3.48 1.92,0 3.48,-1.56 3.48,-3.48 0,-1.92 -1.56,-3.48 -3.48,-3.48 -1.92,0 -3.48,1.56 -3.48,3.48 z"
         style="fill:#47d45a;fill-opacity:1;fill-rule:evenodd;stroke:#042433;stroke-width:1.5;stroke-linecap:butt;stroke-linejoin:miter;stroke-miterlimit:10;stroke-dasharray:none;stroke-opacity:1"
         transform="matrix(1.3333333,0,0,-1.3333333,0,720)" />
    </g>
    <g
       id="g212">
      <path
         id="path213"
         d="m 788.62,410.54 c 0,1.92 1.56,3.48 3.48,3.48 1.92,0 3.48,-1.56 3.48,-3.48 0,-1.92 -1.56,-3.48 -3.48,-3.48 -1.92,0 -3.48,1.56 -3.48,3.48 z"
         style="fill:#46b1e1;fill-opacity:1;fill-rule:evenodd;stroke:#042433;stroke-width:1.5;stroke-linecap:butt;stroke-linejoin:miter;stroke-miterlimit:10;stroke-dasharray:none;stroke-opacity:1"
         transform="matrix(1.3333333,0,0,-1.3333333,0,720)" />
    </g>
    <g
       id="g213">
      <path
         id="path214"
         d="m 788.62,382.55 c 0,1.92 1.56,3.48 3.48,3.48 1.92,0 3.48,-1.56 3.48,-3.48 0,-1.92 -1.56,-3.48 -3.48,-3.48 -1.92,0 -3.48,1.56 -3.48,3.48 z"
         style="fill:#46b1e1;fill-opacity:1;fill-rule:evenodd;stroke:#042433;stroke-width:1.5;stroke-linecap:butt;stroke-linejoin:miter;stroke-miterlimit:10;stroke-dasharray:none;stroke-opacity:1"
         transform="matrix(1.3333333,0,0,-1.3333333,0,720)" />
    </g>
    <g
       id="g214">
      <path
         id="path215"
         d="m 788.62,354.92 c 0,1.92 1.56,3.48 3.48,3.48 1.92,0 3.48,-1.56 3.48,-3.48 0,-1.92 -1.56,-3.47 -3.48,-3.47 -1.92,0 -3.48,1.55 -3.48,3.47 z"
         style="fill:#46b1e1;fill-opacity:1;fill-rule:evenodd;stroke:#042433;stroke-width:1.5;stroke-linecap:butt;stroke-linejoin:miter;stroke-miterlimit:10;stroke-dasharray:none;stroke-opacity:1"
         transform="matrix(1.3333333,0,0,-1.3333333,0,720)" />
    </g>
    <g
       id="g215">
      <path
         id="path216"
         d="m 788.62,326.84 c 0,1.92 1.56,3.48 3.48,3.48 1.92,0 3.48,-1.56 3.48,-3.48 0,-1.92 -1.56,-3.48 -3.48,-3.48 -1.92,0 -3.48,1.56 -3.48,3.48 z"
         style="fill:#46b1e1;fill-opacity:1;fill-rule:evenodd;stroke:#042433;stroke-width:1.5;stroke-linecap:butt;stroke-linejoin:miter;stroke-miterlimit:10;stroke-dasharray:none;stroke-opacity:1"
         transform="matrix(1.3333333,0,0,-1.3333333,0,720)" />
    </g>
    <g
       id="g216">
      <path
         id="path217"
         d="M -0.83117187,-6.640625e-4 6.1180469,-11.836602 H 7.7821094 L 9.6453906,-6.640625e-4 h -1.59375 L 7.6532031,-3.3170703 H 2.7313281 L 0.85632813,-6.640625e-4 Z M 3.4461719,-4.6412891 h 4.03125 L 6.6571094,-10.25457 Z m 0,0"
         style="fill:#00b050;fill-opacity:1;fill-rule:nonzero;stroke:none"
         aria-label="A"
         transform="matrix(1.3333333,0,0,1.3333333,932.50667,155.42667)"
         clip-path="url(#clipPath218)" />
    </g>
    <g
       id="g218">
      <path
         id="path219"
         d="M 0.65652344,-6.640625e-4 3.1526172,-11.836602 h 3.65625 c 0.8203125,0 1.5029297,0.140625 2.0507812,0.421875 0.553711,0.28125 0.9492188,0.679688 1.1835936,1.195313 0.234375,0.5156249 0.272461,1.1191406 0.117188,1.8046874 -0.117188,0.5332032 -0.3955081,0.9931641 -0.8320316,1.3828125 -0.4394531,0.3837891 -0.9580078,0.6328125 -1.5585937,0.75 0.46875,0.1259766 0.8789062,0.3339844 1.2304687,0.6210938 0.3515625,0.290039 0.600586,0.65625 0.75,1.1015625 0.1552735,0.4453125 0.1699219,0.9726562 0.046875,1.5820312 -0.1259765,0.6035157 -0.3925781,1.125 -0.796875,1.5703125 -0.4072265,0.44531254 -0.9550781,0.79394535 -1.640625,1.04296879 -0.6796875,0.24316406 -1.508789,0.3632812475 -2.484375,0.3632812475 z M 2.4846484,-1.3248828 h 2.5664063 c 0.84375,0 1.546875,-0.1552735 2.109375,-0.46875 0.5683594,-0.3105469 0.9257812,-0.788086 1.0664062,-1.4296875 0.1552735,-0.7558594 0.017578,-1.3271485 -0.4101562,-1.7109375 -0.421875,-0.3896485 -1.0488281,-0.5859375 -1.875,-0.5859375 H 3.3752734 Z m 1.1835938,-5.484375 h 2.2148437 c 0.796875,0 1.4238282,-0.1523438 1.8867188,-0.4570313 0.4599609,-0.3105468 0.75,-0.7412109 0.8671875,-1.2890625 C 8.7600391,-9.1705859 8.6487109,-9.6569141 8.2971484,-10.008477 7.9455859,-10.360039 7.3742969,-10.53582 6.5862109,-10.53582 H 4.4533984 Z m 0,0"
         style="fill:#46b1e1;fill-opacity:1;fill-rule:nonzero;stroke:none"
         aria-label="B"
         transform="matrix(1.3333333,0,0,1.3333333,1048.7067,155.42667)"
         clip-path="url(#clipPath220)" />
    </g>
    <g
       id="g220">
      <path
         id="path221"
         d="m 712.62,411.29 h 67.35 v -1.5 h -67.35 z m 66.35,2.25 6,-3 -6,-3 z"
         style="fill:#000000;fill-opacity:1;fill-rule:nonzero;stroke:none"
         transform="matrix(1.3333333,0,0,-1.3333333,0,720)" />
    </g>
    <g
       id="g221">
      <path
         id="path222"
         d="m 712.86,383.6 67.62,-22.88 -0.49,-1.43 -67.61,22.89 z m 67.39,-20.43 4.72,-4.77 -6.64,-0.92 z"
         style="fill:#000000;fill-opacity:1;fill-rule:nonzero;stroke:none"
         transform="matrix(1.3333333,0,0,-1.3333333,0,720)" />
    </g>
    <g
       id="g222">
      <path
         id="path223"
         d="m 712.85,354.85 67.59,-21.85 -0.46,-1.43 -67.59,21.85 z m 67.33,-19.4 4.79,-4.7 -6.63,-1.01 z"
         style="fill:#000000;fill-opacity:1;fill-rule:nonzero;stroke:none"
         transform="matrix(1.3333333,0,0,-1.3333333,0,720)" />
    </g>
    <g
       id="g223">
      <path
         id="path224"
         d="m 712.55,327.21 68.88,52.07 -0.9,1.19 -68.88,-52.06 z m 69.44,49.67 2.98,6.01 -6.59,-1.23 z"
         style="fill:#000000;fill-opacity:1;fill-rule:nonzero;stroke:none"
         transform="matrix(1.3333333,0,0,-1.3333333,0,720)" />
    </g>
    <g
       id="g224">
      <path
         id="path225"
         d="M 0.71476562,-6.25e-4 2.4608594,-8.2154688 H 0.89054687 l 0.26953123,-1.3125 h 1.5820313 l 0.1054687,-0.5625002 c 0.1083985,-0.521484 0.2373047,-0.978515 0.3867188,-1.371094 0.1552734,-0.389648 0.3544922,-0.708984 0.5976562,-0.960937 0.2402344,-0.249023 0.5566406,-0.436523 0.9492188,-0.5625 0.3984375,-0.123047 0.8964843,-0.1875 1.5,-0.1875 h 1.0898437 l -0.28125,1.289062 h -0.890625 c -0.5800781,0 -0.9814453,0.161133 -1.2070312,0.480469 -0.2285157,0.322266 -0.4042969,0.779297 -0.5273438,1.371094 l -0.1054687,0.5039062 h 2.2148437 l -0.2695312,1.3125 H 4.1014844 L 2.3553906,-6.25e-4 Z m 0,0"
         style="fill:#000000;fill-opacity:1;fill-rule:nonzero;stroke:none"
         aria-label="f"
         transform="matrix(1.3333333,0,0,1.3333333,992.22667,146.81333)"
         clip-path="url(#clipPath226)" />
    </g>
    <g
       id="g226">
      <path
         id="path227"
         d="m 911.96,410.54 c 0,1.92 1.55,3.48 3.47,3.48 1.92,0 3.48,-1.56 3.48,-3.48 0,-1.92 -1.56,-3.48 -3.48,-3.48 -1.92,0 -3.47,1.56 -3.47,3.48 z"
         style="fill:#47d45a;fill-opacity:1;fill-rule:evenodd;stroke:#042433;stroke-width:1.5;stroke-linecap:butt;stroke-linejoin:miter;stroke-miterlimit:10;stroke-dasharray:none;stroke-opacity:1"
         transform="matrix(1.3333333,0,0,-1.3333333,0,720)" />
    </g>
    <g
       id="g227">
      <path
         id="path228"
         d="m 911.96,382.55 c 0,1.92 1.55,3.48 3.47,3.48 1.92,0 3.48,-1.56 3.48,-3.48 0,-1.92 -1.56,-3.48 -3.48,-3.48 -1.92,0 -3.47,1.56 -3.47,3.48 z"
         style="fill:#47d45a;fill-opacity:1;fill-rule:evenodd;stroke:#042433;stroke-width:1.5;stroke-linecap:butt;stroke-linejoin:miter;stroke-miterlimit:10;stroke-dasharray:none;stroke-opacity:1"
         transform="matrix(1.3333333,0,0,-1.3333333,0,720)" />
    </g>
    <g
       id="g228">
      <path
         id="path229"
         d="m 911.96,354.92 c 0,1.92 1.55,3.48 3.47,3.48 1.92,0 3.48,-1.56 3.48,-3.48 0,-1.92 -1.56,-3.47 -3.48,-3.47 -1.92,0 -3.47,1.55 -3.47,3.47 z"
         style="fill:#47d45a;fill-opacity:1;fill-rule:evenodd;stroke:#042433;stroke-width:1.5;stroke-linecap:butt;stroke-linejoin:miter;stroke-miterlimit:10;stroke-dasharray:none;stroke-opacity:1"
         transform="matrix(1.3333333,0,0,-1.3333333,0,720)" />
    </g>
    <g
       id="g229">
      <path
         id="path230"
         d="m 911.96,326.84 c 0,1.92 1.55,3.48 3.47,3.48 1.92,0 3.48,-1.56 3.48,-3.48 0,-1.92 -1.56,-3.48 -3.48,-3.48 -1.92,0 -3.47,1.56 -3.47,3.48 z"
         style="fill:#47d45a;fill-opacity:1;fill-rule:evenodd;stroke:#042433;stroke-width:1.5;stroke-linecap:butt;stroke-linejoin:miter;stroke-miterlimit:10;stroke-dasharray:none;stroke-opacity:1"
         transform="matrix(1.3333333,0,0,-1.3333333,0,720)" />
    </g>
    <g
       id="g230">
      <path
         id="path231"
         d="m 824.95,410.54 c 0,1.92 1.56,3.48 3.48,3.48 1.92,0 3.48,-1.56 3.48,-3.48 0,-1.92 -1.56,-3.48 -3.48,-3.48 -1.92,0 -3.48,1.56 -3.48,3.48 z"
         style="fill:#46b1e1;fill-opacity:1;fill-rule:evenodd;stroke:#042433;stroke-width:1.5;stroke-linecap:butt;stroke-linejoin:miter;stroke-miterlimit:10;stroke-dasharray:none;stroke-opacity:1"
         transform="matrix(1.3333333,0,0,-1.3333333,0,720)" />
    </g>
    <g
       id="g231">
      <path
         id="path232"
         d="m 824.95,382.55 c 0,1.92 1.56,3.48 3.48,3.48 1.92,0 3.48,-1.56 3.48,-3.48 0,-1.92 -1.56,-3.48 -3.48,-3.48 -1.92,0 -3.48,1.56 -3.48,3.48 z"
         style="fill:#46b1e1;fill-opacity:1;fill-rule:evenodd;stroke:#042433;stroke-width:1.5;stroke-linecap:butt;stroke-linejoin:miter;stroke-miterlimit:10;stroke-dasharray:none;stroke-opacity:1"
         transform="matrix(1.3333333,0,0,-1.3333333,0,720)" />
    </g>
    <g
       id="g232">
      <path
         id="path233"
         d="m 824.95,354.92 c 0,1.92 1.56,3.48 3.48,3.48 1.92,0 3.48,-1.56 3.48,-3.48 0,-1.92 -1.56,-3.47 -3.48,-3.47 -1.92,0 -3.48,1.55 -3.48,3.47 z"
         style="fill:#46b1e1;fill-opacity:1;fill-rule:evenodd;stroke:#042433;stroke-width:1.5;stroke-linecap:butt;stroke-linejoin:miter;stroke-miterlimit:10;stroke-dasharray:none;stroke-opacity:1"
         transform="matrix(1.3333333,0,0,-1.3333333,0,720)" />
    </g>
    <g
       id="g233">
      <path
         id="path234"
         d="m 824.95,326.84 c 0,1.92 1.56,3.48 3.48,3.48 1.92,0 3.48,-1.56 3.48,-3.48 0,-1.92 -1.56,-3.48 -3.48,-3.48 -1.92,0 -3.48,1.56 -3.48,3.48 z"
         style="fill:#46b1e1;fill-opacity:1;fill-rule:evenodd;stroke:#042433;stroke-width:1.5;stroke-linecap:butt;stroke-linejoin:miter;stroke-miterlimit:10;stroke-dasharray:none;stroke-opacity:1"
         transform="matrix(1.3333333,0,0,-1.3333333,0,720)" />
    </g>
    <g
       id="g234">
      <path
         id="path235"
         d="M -0.83140625,-6.640625e-4 6.1178125,-11.836602 H 7.781875 L 9.6451563,-6.640625e-4 h -1.59375 L 7.6529688,-3.3170703 H 2.7310938 L 0.85609375,-6.640625e-4 Z M 3.4459375,-4.6412891 h 4.03125 L 6.656875,-10.25457 Z m 0,0"
         style="fill:#00b050;fill-opacity:1;fill-rule:nonzero;stroke:none"
         aria-label="A"
         transform="matrix(1.3333333,0,0,1.3333333,1213.1867,155.42667)"
         clip-path="url(#clipPath236)" />
    </g>
    <g
       id="g236">
      <path
         id="path237"
         d="M 0.65757813,-6.640625e-4 3.1536719,-11.836602 h 3.65625 c 0.8203125,0 1.5029297,0.140625 2.0507812,0.421875 0.553711,0.28125 0.9492188,0.679688 1.1835939,1.195313 0.234375,0.5156249 0.272461,1.1191406 0.117187,1.8046874 -0.117187,0.5332032 -0.3955074,0.9931641 -0.8320309,1.3828125 -0.4394531,0.3837891 -0.9580078,0.6328125 -1.5585937,0.75 0.46875,0.1259766 0.8789062,0.3339844 1.2304687,0.6210938 0.3515625,0.290039 0.600586,0.65625 0.75,1.1015625 0.1552735,0.4453125 0.1699219,0.9726562 0.046875,1.5820312 -0.1259765,0.6035157 -0.3925781,1.125 -0.796875,1.5703125 -0.4072265,0.44531254 -0.9550781,0.79394535 -1.640625,1.04296879 -0.6796875,0.24316406 -1.508789,0.3632812475 -2.484375,0.3632812475 z M 2.4857031,-1.3248828 h 2.5664063 c 0.84375,0 1.546875,-0.1552735 2.109375,-0.46875 0.5683594,-0.3105469 0.9257812,-0.788086 1.0664062,-1.4296875 0.1552735,-0.7558594 0.017578,-1.3271485 -0.4101562,-1.7109375 -0.421875,-0.3896485 -1.0488281,-0.5859375 -1.875,-0.5859375 H 3.3763281 Z m 1.1835938,-5.484375 h 2.2148437 c 0.796875,0 1.4238282,-0.1523438 1.8867188,-0.4570313 0.4599609,-0.3105468 0.75,-0.7412109 0.8671875,-1.2890625 C 8.7610938,-9.1705859 8.6497656,-9.6569141 8.2982031,-10.008477 7.9466406,-10.360039 7.3753516,-10.53582 6.5872656,-10.53582 H 4.4544531 Z m 0,0"
         style="fill:#46b1e1;fill-opacity:1;fill-rule:nonzero;stroke:none"
         aria-label="B"
         transform="matrix(1.3333333,0,0,1.3333333,1097.1467,155.42667)"
         clip-path="url(#clipPath238)" />
    </g>
    <g
       id="g238">
      <path
         id="path239"
         d="m 836.18,411.29 h 67.35 v -1.5 h -67.35 z m 66.35,2.25 6,-3 -6,-3 z"
         style="fill:#000000;fill-opacity:1;fill-rule:nonzero;stroke:none"
         transform="matrix(1.3333333,0,0,-1.3333333,0,720)" />
    </g>
    <g
       id="g239">
      <path
         id="path240"
         d="m 836.62,383.5 68.28,-48.92 -0.87,-1.22 -68.29,48.92 z m 68.78,-46.51 3.13,-5.94 -6.63,1.06 z"
         style="fill:#000000;fill-opacity:1;fill-rule:nonzero;stroke:none"
         transform="matrix(1.3333333,0,0,-1.3333333,0,720)" />
    </g>
    <g
       id="g240">
      <path
         id="path241"
         d="m 836.44,353.75 65.82,23.91 -0.51,1.41 -65.83,-23.91 z m 65.65,21.45 4.61,4.87 -6.66,0.77 z"
         style="fill:#000000;fill-opacity:1;fill-rule:nonzero;stroke:none"
         transform="matrix(1.3333333,0,0,-1.3333333,0,720)" />
    </g>
    <g
       id="g241">
      <path
         id="path242"
         d="m 835.93,325.84 66.38,25.73 -0.54,1.4 -66.38,-25.73 z m 66.26,23.28 4.51,4.96 -6.68,0.63 z"
         style="fill:#000000;fill-opacity:1;fill-rule:nonzero;stroke:none"
         transform="matrix(1.3333333,0,0,-1.3333333,0,720)" />
    </g>
    <g
       id="g242">
      <path
         id="path243"
         d="M 0.715,-6.25e-4 2.4610938,-8.2154688 H 0.89078125 l 0.26953125,-1.3125 h 1.5820313 l 0.1054687,-0.5625002 c 0.1083984,-0.521484 0.2373047,-0.978515 0.3867188,-1.371094 0.1552734,-0.389648 0.3544921,-0.708984 0.5976562,-0.960937 0.2402344,-0.249023 0.5566406,-0.436523 0.9492188,-0.5625 0.3984375,-0.123047 0.8964843,-0.1875 1.5,-0.1875 H 7.37125 L 7.09,-11.883438 H 6.199375 c -0.5800781,0 -0.9814453,0.161133 -1.2070312,0.480469 -0.2285157,0.322266 -0.4042969,0.779297 -0.5273438,1.371094 L 4.3595313,-9.5279688 H 6.574375 l -0.2695312,1.3125 H 4.1017188 L 2.355625,-6.25e-4 Z m 0,0"
         style="fill:#000000;fill-opacity:1;fill-rule:nonzero;stroke:none"
         aria-label="f"
         transform="matrix(1.3333333,0,0,1.3333333,1152.5467,146.81333)"
         clip-path="url(#clipPath244)" />
      <path
         id="path245"
         d="M 0.73820312,-3.8795313 V -4.82875 H 6.3749219 v 0.9492187 z M 10.584883,-6.25e-4 v -7.125 c -0.117188,0.1582031 -0.28711,0.3105469 -0.503906,0.4570312 -0.2109379,0.1494141 -0.4658208,0.28125 -0.7617192,0.3984375 -0.2988281,0.1171875 -0.6269531,0.2050782 -0.984375,0.2578125 v -1.03125 c 0.3574219,-0.052734 0.6914063,-0.1640625 0.9960938,-0.328125 0.3105468,-0.1640625 0.5859375,-0.3457031 0.8203124,-0.5507812 0.240234,-0.2109375 0.427734,-0.4101563 0.5625,-0.5976563 h 1.007813 V -6.25e-4 Z m 0,0"
         style="fill:#000000;fill-opacity:1;fill-rule:nonzero;stroke:none"
         aria-label="−1"
         transform="matrix(1.3333333,0,0,1.3333333,1160.2267,138.81333)"
         clip-path="url(#clipPath246)" />
    </g>
  </g>
</svg>
