<?xml version="1.0" encoding="UTF-8" standalone="no"?>
<!-- Created with Inkscape (http://www.inkscape.org/) -->

<svg
   width="34.652149mm"
   height="49.651878mm"
   viewBox="0 0 34.65215 49.65188"
   version="1.1"
   id="svg1"
   xml:space="preserve"
   xmlns="http://www.w3.org/2000/svg"
   xmlns:svg="http://www.w3.org/2000/svg"><defs
     id="defs1"><clipPath
       clipPathUnits="userSpaceOnUse"
       id="clipPath1007"><path
         d="M 1.4305e-5,0 H 960.00001 V 540 H 1.4305e-5 Z"
         transform="matrix(1,0,0,-1,-773.16002,425.52001)"
         clip-rule="evenodd"
         id="path1007" /></clipPath><clipPath
       clipPathUnits="userSpaceOnUse"
       id="clipPath1009"><path
         d="M 1.4305e-5,0 H 960.00001 V 540 H 1.4305e-5 Z"
         transform="matrix(1,0,0,-1,-860.30027,425.52001)"
         clip-rule="evenodd"
         id="path1009" /></clipPath></defs><g
     id="g924"
     transform="matrix(0.26458333,0,0,0.26458334,-3712.0435,-36.210712)"><g
       id="g996"><path
         id="path997"
         d="m 775.26,412.63 c 0,1.92 1.56,3.48 3.48,3.48 1.92,0 3.48,-1.56 3.48,-3.48 0,-1.92 -1.56,-3.48 -3.48,-3.48 -1.92,0 -3.48,1.56 -3.48,3.48 z"
         style="fill:#47d45a;fill-opacity:1;fill-rule:evenodd;stroke:#042433;stroke-width:1.5;stroke-linecap:butt;stroke-linejoin:miter;stroke-miterlimit:10;stroke-dasharray:none;stroke-opacity:1"
         transform="matrix(1.3333333,0,0,-1.3333333,13000,720)" /></g><g
       id="g997"><path
         id="path998"
         d="m 775.26,384.63 c 0,1.92 1.56,3.48 3.48,3.48 1.92,0 3.48,-1.56 3.48,-3.48 0,-1.92 -1.56,-3.47 -3.48,-3.47 -1.92,0 -3.48,1.55 -3.48,3.47 z"
         style="fill:#47d45a;fill-opacity:1;fill-rule:evenodd;stroke:#042433;stroke-width:1.5;stroke-linecap:butt;stroke-linejoin:miter;stroke-miterlimit:10;stroke-dasharray:none;stroke-opacity:1"
         transform="matrix(1.3333333,0,0,-1.3333333,13000,720)" /></g><g
       id="g998"><path
         id="path999"
         d="m 775.26,357.01 c 0,1.92 1.56,3.48 3.48,3.48 1.92,0 3.48,-1.56 3.48,-3.48 0,-1.92 -1.56,-3.48 -3.48,-3.48 -1.92,0 -3.48,1.56 -3.48,3.48 z"
         style="fill:#47d45a;fill-opacity:1;fill-rule:evenodd;stroke:#042433;stroke-width:1.5;stroke-linecap:butt;stroke-linejoin:miter;stroke-miterlimit:10;stroke-dasharray:none;stroke-opacity:1"
         transform="matrix(1.3333333,0,0,-1.3333333,13000,720)" /></g><g
       id="g999"><path
         id="path1000"
         d="m 775.26,328.92 c 0,1.93 1.56,3.48 3.48,3.48 1.92,0 3.48,-1.55 3.48,-3.48 0,-1.92 -1.56,-3.47 -3.48,-3.47 -1.92,0 -3.48,1.55 -3.48,3.47 z"
         style="fill:#47d45a;fill-opacity:1;fill-rule:evenodd;stroke:#042433;stroke-width:1.5;stroke-linecap:butt;stroke-linejoin:miter;stroke-miterlimit:10;stroke-dasharray:none;stroke-opacity:1"
         transform="matrix(1.3333333,0,0,-1.3333333,13000,720)" /></g><g
       id="g1000"><path
         id="path1001"
         d="m 775.26,300.84 c 0,1.92 1.56,3.48 3.48,3.48 1.92,0 3.48,-1.56 3.48,-3.48 0,-1.92 -1.56,-3.48 -3.48,-3.48 -1.92,0 -3.48,1.56 -3.48,3.48 z"
         style="fill:#47d45a;fill-opacity:1;fill-rule:evenodd;stroke:#042433;stroke-width:1.5;stroke-linecap:butt;stroke-linejoin:miter;stroke-miterlimit:10;stroke-dasharray:none;stroke-opacity:1"
         transform="matrix(1.3333333,0,0,-1.3333333,13000,720)" /></g><g
       id="g1001"><path
         id="path1002"
         d="m 862.39,412.63 c 0,1.92 1.56,3.48 3.48,3.48 1.92,0 3.48,-1.56 3.48,-3.48 0,-1.92 -1.56,-3.48 -3.48,-3.48 -1.92,0 -3.48,1.56 -3.48,3.48 z"
         style="fill:#46b1e1;fill-opacity:1;fill-rule:evenodd;stroke:#042433;stroke-width:1.5;stroke-linecap:butt;stroke-linejoin:miter;stroke-miterlimit:10;stroke-dasharray:none;stroke-opacity:1"
         transform="matrix(1.3333333,0,0,-1.3333333,13000,720)" /></g><g
       id="g1002"><path
         id="path1003"
         d="m 862.39,384.63 c 0,1.92 1.56,3.48 3.48,3.48 1.92,0 3.48,-1.56 3.48,-3.48 0,-1.92 -1.56,-3.47 -3.48,-3.47 -1.92,0 -3.48,1.55 -3.48,3.47 z"
         style="fill:#46b1e1;fill-opacity:1;fill-rule:evenodd;stroke:#042433;stroke-width:1.5;stroke-linecap:butt;stroke-linejoin:miter;stroke-miterlimit:10;stroke-dasharray:none;stroke-opacity:1"
         transform="matrix(1.3333333,0,0,-1.3333333,13000,720)" /></g><g
       id="g1003"><path
         id="path1004"
         d="m 862.39,357.01 c 0,1.92 1.56,3.48 3.48,3.48 1.92,0 3.48,-1.56 3.48,-3.48 0,-1.92 -1.56,-3.48 -3.48,-3.48 -1.92,0 -3.48,1.56 -3.48,3.48 z"
         style="fill:#46b1e1;fill-opacity:1;fill-rule:evenodd;stroke:#042433;stroke-width:1.5;stroke-linecap:butt;stroke-linejoin:miter;stroke-miterlimit:10;stroke-dasharray:none;stroke-opacity:1"
         transform="matrix(1.3333333,0,0,-1.3333333,13000,720)" /></g><g
       id="g1004"><path
         id="path1005"
         d="m 862.39,328.92 c 0,1.93 1.56,3.48 3.48,3.48 1.92,0 3.48,-1.55 3.48,-3.48 0,-1.92 -1.56,-3.47 -3.48,-3.47 -1.92,0 -3.48,1.55 -3.48,3.47 z"
         style="fill:#46b1e1;fill-opacity:1;fill-rule:evenodd;stroke:#042433;stroke-width:1.5;stroke-linecap:butt;stroke-linejoin:miter;stroke-miterlimit:10;stroke-dasharray:none;stroke-opacity:1"
         transform="matrix(1.3333333,0,0,-1.3333333,13000,720)" /></g><g
       id="g1005"><path
         id="path1006"
         d="M -0.83285156,4.6875e-4 6.1163672,-11.835469 H 7.7804297 L 9.6437109,4.6875e-4 h -1.59375 L 7.6515234,-3.3159375 H 2.7296484 L 0.85464844,4.6875e-4 Z M 3.4444922,-4.6401563 h 4.03125 L 6.6554297,-10.253438 Z m 0,0"
         style="fill:#00b050;fill-opacity:1;fill-rule:nonzero;stroke:none"
         aria-label="A"
         transform="matrix(1.3333333,0,0,1.3333333,14030.88,152.64)"
         clip-path="url(#clipPath1007)" /></g><g
       id="g1007"><path
         id="path1008"
         d="M 0.65605469,4.6875e-4 3.1521484,-11.835469 h 3.65625 c 0.8203125,0 1.5029297,0.140625 2.0507813,0.421875 0.5537109,0.28125 0.9492187,0.679688 1.1835933,1.195313 0.234375,0.5156247 0.272461,1.1191404 0.117188,1.8046872 -0.117188,0.5332032 -0.3955079,0.9931641 -0.8320313,1.3828125 -0.4394531,0.3837891 -0.9580078,0.6328125 -1.5585938,0.75 0.46875,0.1259766 0.8789063,0.3339844 1.2304688,0.6210938 0.3515625,0.2900391 0.6005859,0.65625 0.75,1.1015625 0.1552734,0.4453125 0.1699219,0.9726562 0.046875,1.5820312 -0.1259766,0.6035157 -0.3925781,1.125 -0.796875,1.5703125 -0.4072266,0.44531255 -0.9550781,0.79394536 -1.640625,1.0429688 C 6.6794922,-0.11964844 5.8503906,4.6875e-4 4.8748047,4.6875e-4 Z M 2.4841797,-1.32375 h 2.5664062 c 0.84375,0 1.546875,-0.1552734 2.109375,-0.46875 0.5683594,-0.3105469 0.9257813,-0.7880859 1.0664063,-1.4296875 0.1552734,-0.7558594 0.017578,-1.3271484 -0.4101563,-1.7109375 -0.421875,-0.3896484 -1.0488281,-0.5859375 -1.875,-0.5859375 H 3.3748047 Z m 1.1835937,-5.484375 h 2.2148438 c 0.796875,0 1.4238281,-0.1523438 1.8867187,-0.4570313 0.459961,-0.3105468 0.75,-0.7412109 0.8671875,-1.2890625 0.1230469,-0.6152343 0.011719,-1.1015625 -0.3398437,-1.4531252 -0.3515625,-0.351562 -0.9228516,-0.527344 -1.7109375,-0.527344 H 4.4529297 Z m 0,0"
         style="fill:#46b1e1;fill-opacity:1;fill-rule:nonzero;stroke:none"
         aria-label="B"
         transform="matrix(1.3333333,0,0,1.3333333,14147.067,152.64)"
         clip-path="url(#clipPath1009)" /></g><g
       id="g1009"><path
         id="path1010"
         d="m 786.39,413.38 h 67.35 v -1.5 h -67.35 z m 66.35,2.25 6,-3 -6,-3 z"
         style="fill:#000000;fill-opacity:1;fill-rule:nonzero;stroke:none"
         transform="matrix(1.3333333,0,0,-1.3333333,13000,720)" /></g><g
       id="g1010"><path
         id="path1011"
         d="m 786.63,385.69 67.62,-22.89 -0.48,-1.42 -67.62,22.89 z m 67.39,-20.44 4.72,-4.76 -6.64,-0.92 z"
         style="fill:#000000;fill-opacity:1;fill-rule:nonzero;stroke:none"
         transform="matrix(1.3333333,0,0,-1.3333333,13000,720)" /></g><g
       id="g1011"><path
         id="path1012"
         d="m 786.66,300.45 67.66,25.36 -0.52,1.4 -67.67,-25.36 z m 67.52,22.9 4.56,4.91 -6.67,0.71 z"
         style="fill:#000000;fill-opacity:1;fill-rule:nonzero;stroke:none"
         transform="matrix(1.3333333,0,0,-1.3333333,13000,720)" /></g><g
       id="g1012"><path
         id="path1013"
         d="m 786.63,356.94 67.59,-21.85 -0.47,-1.43 -67.59,21.85 z m 67.33,-19.4 4.78,-4.7 -6.63,-1.01 z"
         style="fill:#000000;fill-opacity:1;fill-rule:nonzero;stroke:none"
         transform="matrix(1.3333333,0,0,-1.3333333,13000,720)" /></g><g
       id="g1013"><path
         id="path1014"
         d="m 786.32,329.3 68.89,52.06 -0.91,1.2 -68.88,-52.07 z m 69.44,49.66 2.98,6.02 -6.59,-1.23 z"
         style="fill:#000000;fill-opacity:1;fill-rule:nonzero;stroke:none"
         transform="matrix(1.3333333,0,0,-1.3333333,13000,720)" /></g></g></svg>
